<svg xmlns="http://www.w3.org/2000/svg" width="512" height="512" viewBox="0 0 512 512" role="img" aria-label="Seamless abstract doodles pattern tile">
  <rect data-bg="solid" x="0" y="0" width="512" height="512" fill="#FFFFFF" />
  <rect width="512" height="512" fill="#F7F6F2"/><circle cx="315.00" cy="300.55" r="0.32" fill="rgb(238,238,238)" opacity="0.128"/><circle cx="235.20" cy="427.34" r="0.42" fill="rgb(234,234,234)" opacity="0.114"/><circle cx="491.49" cy="442.83" r="0.27" fill="rgb(237,237,237)" opacity="0.084"/><circle cx="167.01" cy="459.13" r="0.38" fill="rgb(238,238,238)" opacity="0.085"/><circle cx="131.03" cy="330.08" r="0.28" fill="rgb(239,239,239)" opacity="0.086"/><circle cx="308.71" cy="213.06" r="0.41" fill="rgb(234,234,234)" opacity="0.087"/><circle cx="43.36" cy="195.69" r="0.32" fill="rgb(239,239,239)" opacity="0.096"/><circle cx="64.54" cy="104.40" r="0.40" fill="rgb(235,235,235)" opacity="0.110"/><circle cx="422.38" cy="52.50" r="0.37" fill="rgb(233,233,233)" opacity="0.129"/><circle cx="498.39" cy="334.91" r="0.23" fill="rgb(239,239,239)" opacity="0.129"/><circle cx="297.79" cy="379.54" r="0.19" fill="rgb(236,236,236)" opacity="0.102"/><circle cx="294.11" cy="46.09" r="0.37" fill="rgb(237,237,237)" opacity="0.099"/><circle cx="418.19" cy="246.67" r="0.36" fill="rgb(236,236,236)" opacity="0.089"/><circle cx="382.70" cy="105.42" r="0.41" fill="rgb(233,233,233)" opacity="0.083"/><circle cx="243.51" cy="147.18" r="0.22" fill="rgb(239,239,239)" opacity="0.087"/><circle cx="319.36" cy="122.08" r="0.40" fill="rgb(236,236,236)" opacity="0.092"/><circle cx="55.84" cy="132.60" r="0.26" fill="rgb(236,236,236)" opacity="0.103"/><circle cx="148.98" cy="335.54" r="0.38" fill="rgb(239,239,239)" opacity="0.071"/><circle cx="160.73" cy="470.83" r="0.24" fill="rgb(234,234,234)" opacity="0.125"/><circle cx="214.27" cy="333.23" r="0.34" fill="rgb(234,234,234)" opacity="0.113"/><circle cx="243.70" cy="227.54" r="0.34" fill="rgb(240,240,240)" opacity="0.100"/><circle cx="424.21" cy="64.99" r="0.24" fill="rgb(239,239,239)" opacity="0.124"/><circle cx="217.29" cy="158.87" r="0.38" fill="rgb(235,235,235)" opacity="0.082"/><circle cx="71.66" cy="358.41" r="0.35" fill="rgb(233,233,233)" opacity="0.080"/><circle cx="97.92" cy="473.44" r="0.34" fill="rgb(233,233,233)" opacity="0.124"/><circle cx="291.90" cy="192.13" r="0.42" fill="rgb(235,235,235)" opacity="0.080"/><circle cx="11.54" cy="210.22" r="0.30" fill="rgb(237,237,237)" opacity="0.103"/><circle cx="209.81" cy="446.71" r="0.31" fill="rgb(240,240,240)" opacity="0.120"/><circle cx="201.21" cy="398.53" r="0.18" fill="rgb(233,233,233)" opacity="0.121"/><circle cx="302.40" cy="153.74" r="0.18" fill="rgb(235,235,235)" opacity="0.098"/><circle cx="334.79" cy="265.41" r="0.39" fill="rgb(236,236,236)" opacity="0.075"/><circle cx="220.18" cy="306.95" r="0.34" fill="rgb(238,238,238)" opacity="0.111"/><circle cx="182.35" cy="434.31" r="0.19" fill="rgb(235,235,235)" opacity="0.072"/><circle cx="160.43" cy="237.79" r="0.18" fill="rgb(234,234,234)" opacity="0.098"/><circle cx="91.73" cy="229.85" r="0.37" fill="rgb(239,239,239)" opacity="0.111"/><circle cx="497.07" cy="18.01" r="0.37" fill="rgb(235,235,235)" opacity="0.092"/><circle cx="287.63" cy="356.81" r="0.38" fill="rgb(233,233,233)" opacity="0.088"/><circle cx="469.95" cy="332.15" r="0.41" fill="rgb(234,234,234)" opacity="0.088"/><circle cx="181.85" cy="465.56" r="0.36" fill="rgb(235,235,235)" opacity="0.111"/><circle cx="20.50" cy="284.43" r="0.37" fill="rgb(235,235,235)" opacity="0.112"/><circle cx="399.97" cy="113.64" r="0.33" fill="rgb(239,239,239)" opacity="0.111"/><circle cx="217.78" cy="242.10" r="0.39" fill="rgb(233,233,233)" opacity="0.088"/><circle cx="55.40" cy="479.28" r="0.21" fill="rgb(236,236,236)" opacity="0.116"/><circle cx="43.35" cy="461.59" r="0.41" fill="rgb(236,236,236)" opacity="0.125"/><circle cx="267.21" cy="1.46" r="0.31" fill="rgb(233,233,233)" opacity="0.100"/><circle cx="344.22" cy="402.24" r="0.42" fill="rgb(233,233,233)" opacity="0.099"/><circle cx="122.18" cy="91.45" r="0.37" fill="rgb(238,238,238)" opacity="0.085"/><circle cx="275.51" cy="294.14" r="0.21" fill="rgb(239,239,239)" opacity="0.071"/><circle cx="462.86" cy="492.29" r="0.29" fill="rgb(237,237,237)" opacity="0.102"/><circle cx="476.88" cy="91.28" r="0.42" fill="rgb(240,240,240)" opacity="0.089"/><circle cx="21.76" cy="261.78" r="0.16" fill="rgb(234,234,234)" opacity="0.087"/><circle cx="488.67" cy="354.18" r="0.40" fill="rgb(237,237,237)" opacity="0.109"/><circle cx="470.84" cy="401.86" r="0.19" fill="rgb(240,240,240)" opacity="0.109"/><circle cx="31.94" cy="324.72" r="0.19" fill="rgb(239,239,239)" opacity="0.074"/><circle cx="25.83" cy="460.39" r="0.41" fill="rgb(238,238,238)" opacity="0.079"/><circle cx="380.93" cy="103.21" r="0.38" fill="rgb(237,237,237)" opacity="0.106"/><circle cx="194.59" cy="60.14" r="0.25" fill="rgb(237,237,237)" opacity="0.122"/><circle cx="494.09" cy="171.01" r="0.23" fill="rgb(237,237,237)" opacity="0.104"/><circle cx="266.83" cy="241.25" r="0.24" fill="rgb(235,235,235)" opacity="0.118"/><circle cx="137.99" cy="254.24" r="0.41" fill="rgb(235,235,235)" opacity="0.126"/><circle cx="266.19" cy="125.74" r="0.22" fill="rgb(237,237,237)" opacity="0.076"/><circle cx="218.41" cy="217.44" r="0.18" fill="rgb(237,237,237)" opacity="0.111"/><circle cx="459.75" cy="463.86" r="0.21" fill="rgb(235,235,235)" opacity="0.086"/><circle cx="25.58" cy="240.23" r="0.23" fill="rgb(235,235,235)" opacity="0.109"/><circle cx="401.63" cy="43.83" r="0.24" fill="rgb(235,235,235)" opacity="0.092"/><circle cx="406.52" cy="213.25" r="0.30" fill="rgb(234,234,234)" opacity="0.096"/><circle cx="285.88" cy="508.63" r="0.33" fill="rgb(236,236,236)" opacity="0.085"/><circle cx="284.75" cy="151.22" r="0.20" fill="rgb(238,238,238)" opacity="0.093"/><circle cx="137.37" cy="194.53" r="0.25" fill="rgb(237,237,237)" opacity="0.110"/><circle cx="294.06" cy="366.10" r="0.19" fill="rgb(237,237,237)" opacity="0.109"/><circle cx="389.45" cy="156.59" r="0.22" fill="rgb(234,234,234)" opacity="0.098"/><circle cx="13.94" cy="406.22" r="0.30" fill="rgb(237,237,237)" opacity="0.093"/><circle cx="250.75" cy="276.54" r="0.22" fill="rgb(233,233,233)" opacity="0.108"/><circle cx="371.98" cy="0.61" r="0.28" fill="rgb(237,237,237)" opacity="0.098"/><circle cx="149.22" cy="68.99" r="0.17" fill="rgb(235,235,235)" opacity="0.094"/><circle cx="103.40" cy="191.50" r="0.36" fill="rgb(235,235,235)" opacity="0.106"/><circle cx="122.65" cy="217.07" r="0.33" fill="rgb(234,234,234)" opacity="0.096"/><circle cx="445.49" cy="238.70" r="0.33" fill="rgb(234,234,234)" opacity="0.083"/><circle cx="0.44" cy="364.27" r="0.23" fill="rgb(239,239,239)" opacity="0.117"/><circle cx="200.33" cy="201.98" r="0.38" fill="rgb(239,239,239)" opacity="0.096"/><circle cx="292.68" cy="173.24" r="0.38" fill="rgb(234,234,234)" opacity="0.105"/><circle cx="467.52" cy="109.46" r="0.35" fill="rgb(234,234,234)" opacity="0.093"/><circle cx="75.82" cy="122.92" r="0.36" fill="rgb(237,237,237)" opacity="0.072"/><circle cx="145.75" cy="480.91" r="0.39" fill="rgb(238,238,238)" opacity="0.118"/><circle cx="39.43" cy="44.72" r="0.29" fill="rgb(233,233,233)" opacity="0.126"/><circle cx="313.69" cy="429.89" r="0.39" fill="rgb(239,239,239)" opacity="0.097"/><circle cx="472.25" cy="230.16" r="0.30" fill="rgb(236,236,236)" opacity="0.125"/><circle cx="43.73" cy="216.93" r="0.24" fill="rgb(240,240,240)" opacity="0.088"/><circle cx="111.71" cy="249.21" r="0.30" fill="rgb(239,239,239)" opacity="0.092"/><circle cx="207.20" cy="312.27" r="0.27" fill="rgb(240,240,240)" opacity="0.103"/><circle cx="372.10" cy="181.27" r="0.17" fill="rgb(240,240,240)" opacity="0.104"/><circle cx="205.34" cy="4.59" r="0.22" fill="rgb(235,235,235)" opacity="0.115"/><circle cx="248.74" cy="53.84" r="0.34" fill="rgb(239,239,239)" opacity="0.076"/><circle cx="68.58" cy="484.69" r="0.24" fill="rgb(238,238,238)" opacity="0.095"/><circle cx="460.38" cy="373.39" r="0.31" fill="rgb(238,238,238)" opacity="0.123"/><circle cx="97.23" cy="248.69" r="0.30" fill="rgb(233,233,233)" opacity="0.070"/><circle cx="436.00" cy="480.98" r="0.26" fill="rgb(238,238,238)" opacity="0.095"/><circle cx="251.64" cy="54.64" r="0.35" fill="rgb(240,240,240)" opacity="0.086"/><circle cx="212.03" cy="462.34" r="0.20" fill="rgb(240,240,240)" opacity="0.077"/><circle cx="176.15" cy="313.92" r="0.33" fill="rgb(240,240,240)" opacity="0.081"/><circle cx="378.46" cy="190.05" r="0.38" fill="rgb(240,240,240)" opacity="0.115"/><circle cx="359.63" cy="289.62" r="0.24" fill="rgb(240,240,240)" opacity="0.108"/><circle cx="166.46" cy="310.80" r="0.17" fill="rgb(236,236,236)" opacity="0.090"/><circle cx="13.09" cy="228.51" r="0.40" fill="rgb(240,240,240)" opacity="0.078"/><circle cx="392.46" cy="316.65" r="0.23" fill="rgb(235,235,235)" opacity="0.118"/><circle cx="370.62" cy="477.50" r="0.36" fill="rgb(240,240,240)" opacity="0.095"/><circle cx="466.74" cy="184.91" r="0.25" fill="rgb(235,235,235)" opacity="0.097"/><circle cx="230.89" cy="32.57" r="0.31" fill="rgb(234,234,234)" opacity="0.120"/><circle cx="510.56" cy="119.48" r="0.42" fill="rgb(237,237,237)" opacity="0.125"/><circle cx="289.40" cy="182.54" r="0.41" fill="rgb(233,233,233)" opacity="0.113"/><g transform="translate(-512.00,-512.00)"><path d="M 35.68,41.04 Q 44.57,38.71 47.05,50.80 Q 57.17,47.45 60.60,59.17" fill="none" stroke="rgb(155,155,155)" stroke-width="2.25" stroke-linecap="round" stroke-linejoin="round" opacity="0.897"/></g><g transform="translate(-512.00,0.00)"><path d="M 35.68,41.04 Q 44.57,38.71 47.05,50.80 Q 57.17,47.45 60.60,59.17" fill="none" stroke="rgb(155,155,155)" stroke-width="2.25" stroke-linecap="round" stroke-linejoin="round" opacity="0.897"/></g><g transform="translate(-512.00,512.00)"><path d="M 35.68,41.04 Q 44.57,38.71 47.05,50.80 Q 57.17,47.45 60.60,59.17" fill="none" stroke="rgb(155,155,155)" stroke-width="2.25" stroke-linecap="round" stroke-linejoin="round" opacity="0.897"/></g><g transform="translate(0.00,-512.00)"><path d="M 35.68,41.04 Q 44.57,38.71 47.05,50.80 Q 57.17,47.45 60.60,59.17" fill="none" stroke="rgb(155,155,155)" stroke-width="2.25" stroke-linecap="round" stroke-linejoin="round" opacity="0.897"/></g><g transform="translate(0.00,0.00)"><path d="M 35.68,41.04 Q 44.57,38.71 47.05,50.80 Q 57.17,47.45 60.60,59.17" fill="none" stroke="rgb(155,155,155)" stroke-width="2.25" stroke-linecap="round" stroke-linejoin="round" opacity="0.897"/></g><g transform="translate(0.00,512.00)"><path d="M 35.68,41.04 Q 44.57,38.71 47.05,50.80 Q 57.17,47.45 60.60,59.17" fill="none" stroke="rgb(155,155,155)" stroke-width="2.25" stroke-linecap="round" stroke-linejoin="round" opacity="0.897"/></g><g transform="translate(512.00,-512.00)"><path d="M 35.68,41.04 Q 44.57,38.71 47.05,50.80 Q 57.17,47.45 60.60,59.17" fill="none" stroke="rgb(155,155,155)" stroke-width="2.25" stroke-linecap="round" stroke-linejoin="round" opacity="0.897"/></g><g transform="translate(512.00,0.00)"><path d="M 35.68,41.04 Q 44.57,38.71 47.05,50.80 Q 57.17,47.45 60.60,59.17" fill="none" stroke="rgb(155,155,155)" stroke-width="2.25" stroke-linecap="round" stroke-linejoin="round" opacity="0.897"/></g><g transform="translate(512.00,512.00)"><path d="M 35.68,41.04 Q 44.57,38.71 47.05,50.80 Q 57.17,47.45 60.60,59.17" fill="none" stroke="rgb(155,155,155)" stroke-width="2.25" stroke-linecap="round" stroke-linejoin="round" opacity="0.897"/></g><g transform="translate(-512.00,-512.00)"><path d="M 170.09,42.37 L 171.40,45.07 L 169.97,48.10 L 166.26,50.24 L 162.20,51.23 L 158.69,51.92 L 154.96,52.85 L 150.60,53.19 L 146.95,51.88 L 145.72,49.13 L 146.75,46.20 L 148.29,43.77 L 149.49,41.34 L 151.39,38.58 L 155.01,36.35 L 159.50,35.89 L 163.09,37.18 L 165.41,39.00 L 167.60,40.56 L 170.09,42.37 Z" fill="rgba(161,161,161,0.10)" stroke="rgb(161,161,161)" stroke-width="1.39" stroke-linecap="round" stroke-linejoin="round" opacity="0.843"/></g><g transform="translate(-512.00,0.00)"><path d="M 170.09,42.37 L 171.40,45.07 L 169.97,48.10 L 166.26,50.24 L 162.20,51.23 L 158.69,51.92 L 154.96,52.85 L 150.60,53.19 L 146.95,51.88 L 145.72,49.13 L 146.75,46.20 L 148.29,43.77 L 149.49,41.34 L 151.39,38.58 L 155.01,36.35 L 159.50,35.89 L 163.09,37.18 L 165.41,39.00 L 167.60,40.56 L 170.09,42.37 Z" fill="rgba(161,161,161,0.10)" stroke="rgb(161,161,161)" stroke-width="1.39" stroke-linecap="round" stroke-linejoin="round" opacity="0.843"/></g><g transform="translate(-512.00,512.00)"><path d="M 170.09,42.37 L 171.40,45.07 L 169.97,48.10 L 166.26,50.24 L 162.20,51.23 L 158.69,51.92 L 154.96,52.85 L 150.60,53.19 L 146.95,51.88 L 145.72,49.13 L 146.75,46.20 L 148.29,43.77 L 149.49,41.34 L 151.39,38.58 L 155.01,36.35 L 159.50,35.89 L 163.09,37.18 L 165.41,39.00 L 167.60,40.56 L 170.09,42.37 Z" fill="rgba(161,161,161,0.10)" stroke="rgb(161,161,161)" stroke-width="1.39" stroke-linecap="round" stroke-linejoin="round" opacity="0.843"/></g><g transform="translate(0.00,-512.00)"><path d="M 170.09,42.37 L 171.40,45.07 L 169.97,48.10 L 166.26,50.24 L 162.20,51.23 L 158.69,51.92 L 154.96,52.85 L 150.60,53.19 L 146.95,51.88 L 145.72,49.13 L 146.75,46.20 L 148.29,43.77 L 149.49,41.34 L 151.39,38.58 L 155.01,36.35 L 159.50,35.89 L 163.09,37.18 L 165.41,39.00 L 167.60,40.56 L 170.09,42.37 Z" fill="rgba(161,161,161,0.10)" stroke="rgb(161,161,161)" stroke-width="1.39" stroke-linecap="round" stroke-linejoin="round" opacity="0.843"/></g><g transform="translate(0.00,0.00)"><path d="M 170.09,42.37 L 171.40,45.07 L 169.97,48.10 L 166.26,50.24 L 162.20,51.23 L 158.69,51.92 L 154.96,52.85 L 150.60,53.19 L 146.95,51.88 L 145.72,49.13 L 146.75,46.20 L 148.29,43.77 L 149.49,41.34 L 151.39,38.58 L 155.01,36.35 L 159.50,35.89 L 163.09,37.18 L 165.41,39.00 L 167.60,40.56 L 170.09,42.37 Z" fill="rgba(161,161,161,0.10)" stroke="rgb(161,161,161)" stroke-width="1.39" stroke-linecap="round" stroke-linejoin="round" opacity="0.843"/></g><g transform="translate(0.00,512.00)"><path d="M 170.09,42.37 L 171.40,45.07 L 169.97,48.10 L 166.26,50.24 L 162.20,51.23 L 158.69,51.92 L 154.96,52.85 L 150.60,53.19 L 146.95,51.88 L 145.72,49.13 L 146.75,46.20 L 148.29,43.77 L 149.49,41.34 L 151.39,38.58 L 155.01,36.35 L 159.50,35.89 L 163.09,37.18 L 165.41,39.00 L 167.60,40.56 L 170.09,42.37 Z" fill="rgba(161,161,161,0.10)" stroke="rgb(161,161,161)" stroke-width="1.39" stroke-linecap="round" stroke-linejoin="round" opacity="0.843"/></g><g transform="translate(512.00,-512.00)"><path d="M 170.09,42.37 L 171.40,45.07 L 169.97,48.10 L 166.26,50.24 L 162.20,51.23 L 158.69,51.92 L 154.96,52.85 L 150.60,53.19 L 146.95,51.88 L 145.72,49.13 L 146.75,46.20 L 148.29,43.77 L 149.49,41.34 L 151.39,38.58 L 155.01,36.35 L 159.50,35.89 L 163.09,37.18 L 165.41,39.00 L 167.60,40.56 L 170.09,42.37 Z" fill="rgba(161,161,161,0.10)" stroke="rgb(161,161,161)" stroke-width="1.39" stroke-linecap="round" stroke-linejoin="round" opacity="0.843"/></g><g transform="translate(512.00,0.00)"><path d="M 170.09,42.37 L 171.40,45.07 L 169.97,48.10 L 166.26,50.24 L 162.20,51.23 L 158.69,51.92 L 154.96,52.85 L 150.60,53.19 L 146.95,51.88 L 145.72,49.13 L 146.75,46.20 L 148.29,43.77 L 149.49,41.34 L 151.39,38.58 L 155.01,36.35 L 159.50,35.89 L 163.09,37.18 L 165.41,39.00 L 167.60,40.56 L 170.09,42.37 Z" fill="rgba(161,161,161,0.10)" stroke="rgb(161,161,161)" stroke-width="1.39" stroke-linecap="round" stroke-linejoin="round" opacity="0.843"/></g><g transform="translate(512.00,512.00)"><path d="M 170.09,42.37 L 171.40,45.07 L 169.97,48.10 L 166.26,50.24 L 162.20,51.23 L 158.69,51.92 L 154.96,52.85 L 150.60,53.19 L 146.95,51.88 L 145.72,49.13 L 146.75,46.20 L 148.29,43.77 L 149.49,41.34 L 151.39,38.58 L 155.01,36.35 L 159.50,35.89 L 163.09,37.18 L 165.41,39.00 L 167.60,40.56 L 170.09,42.37 Z" fill="rgba(161,161,161,0.10)" stroke="rgb(161,161,161)" stroke-width="1.39" stroke-linecap="round" stroke-linejoin="round" opacity="0.843"/></g><g transform="translate(-512.00,-512.00)"><path d="M 236.34,47.80 Q 244.03,36.05 252.56,37.32 Q 255.30,41.42 258.65,46.42" fill="none" stroke="rgb(154,154,154)" stroke-width="2.11" stroke-linecap="round" stroke-linejoin="round" opacity="0.765"/></g><g transform="translate(-512.00,0.00)"><path d="M 236.34,47.80 Q 244.03,36.05 252.56,37.32 Q 255.30,41.42 258.65,46.42" fill="none" stroke="rgb(154,154,154)" stroke-width="2.11" stroke-linecap="round" stroke-linejoin="round" opacity="0.765"/></g><g transform="translate(-512.00,512.00)"><path d="M 236.34,47.80 Q 244.03,36.05 252.56,37.32 Q 255.30,41.42 258.65,46.42" fill="none" stroke="rgb(154,154,154)" stroke-width="2.11" stroke-linecap="round" stroke-linejoin="round" opacity="0.765"/></g><g transform="translate(0.00,-512.00)"><path d="M 236.34,47.80 Q 244.03,36.05 252.56,37.32 Q 255.30,41.42 258.65,46.42" fill="none" stroke="rgb(154,154,154)" stroke-width="2.11" stroke-linecap="round" stroke-linejoin="round" opacity="0.765"/></g><g transform="translate(0.00,0.00)"><path d="M 236.34,47.80 Q 244.03,36.05 252.56,37.32 Q 255.30,41.42 258.65,46.42" fill="none" stroke="rgb(154,154,154)" stroke-width="2.11" stroke-linecap="round" stroke-linejoin="round" opacity="0.765"/></g><g transform="translate(0.00,512.00)"><path d="M 236.34,47.80 Q 244.03,36.05 252.56,37.32 Q 255.30,41.42 258.65,46.42" fill="none" stroke="rgb(154,154,154)" stroke-width="2.11" stroke-linecap="round" stroke-linejoin="round" opacity="0.765"/></g><g transform="translate(512.00,-512.00)"><path d="M 236.34,47.80 Q 244.03,36.05 252.56,37.32 Q 255.30,41.42 258.65,46.42" fill="none" stroke="rgb(154,154,154)" stroke-width="2.11" stroke-linecap="round" stroke-linejoin="round" opacity="0.765"/></g><g transform="translate(512.00,0.00)"><path d="M 236.34,47.80 Q 244.03,36.05 252.56,37.32 Q 255.30,41.42 258.65,46.42" fill="none" stroke="rgb(154,154,154)" stroke-width="2.11" stroke-linecap="round" stroke-linejoin="round" opacity="0.765"/></g><g transform="translate(512.00,512.00)"><path d="M 236.34,47.80 Q 244.03,36.05 252.56,37.32 Q 255.30,41.42 258.65,46.42" fill="none" stroke="rgb(154,154,154)" stroke-width="2.11" stroke-linecap="round" stroke-linejoin="round" opacity="0.765"/></g><g transform="translate(-512.00,-512.00)"><path d="M 339.19,53.53 L 349.72,58.60 L 354.52,48.37 L 365.05,53.44 L 370.13,42.91 L 379.25,46.79 " fill="none" stroke="rgb(156,156,156)" stroke-width="2.11" stroke-linecap="round" stroke-linejoin="round" opacity="0.809"/></g><g transform="translate(-512.00,0.00)"><path d="M 339.19,53.53 L 349.72,58.60 L 354.52,48.37 L 365.05,53.44 L 370.13,42.91 L 379.25,46.79 " fill="none" stroke="rgb(156,156,156)" stroke-width="2.11" stroke-linecap="round" stroke-linejoin="round" opacity="0.809"/></g><g transform="translate(-512.00,512.00)"><path d="M 339.19,53.53 L 349.72,58.60 L 354.52,48.37 L 365.05,53.44 L 370.13,42.91 L 379.25,46.79 " fill="none" stroke="rgb(156,156,156)" stroke-width="2.11" stroke-linecap="round" stroke-linejoin="round" opacity="0.809"/></g><g transform="translate(0.00,-512.00)"><path d="M 339.19,53.53 L 349.72,58.60 L 354.52,48.37 L 365.05,53.44 L 370.13,42.91 L 379.25,46.79 " fill="none" stroke="rgb(156,156,156)" stroke-width="2.11" stroke-linecap="round" stroke-linejoin="round" opacity="0.809"/></g><g transform="translate(0.00,0.00)"><path d="M 339.19,53.53 L 349.72,58.60 L 354.52,48.37 L 365.05,53.44 L 370.13,42.91 L 379.25,46.79 " fill="none" stroke="rgb(156,156,156)" stroke-width="2.11" stroke-linecap="round" stroke-linejoin="round" opacity="0.809"/></g><g transform="translate(0.00,512.00)"><path d="M 339.19,53.53 L 349.72,58.60 L 354.52,48.37 L 365.05,53.44 L 370.13,42.91 L 379.25,46.79 " fill="none" stroke="rgb(156,156,156)" stroke-width="2.11" stroke-linecap="round" stroke-linejoin="round" opacity="0.809"/></g><g transform="translate(512.00,-512.00)"><path d="M 339.19,53.53 L 349.72,58.60 L 354.52,48.37 L 365.05,53.44 L 370.13,42.91 L 379.25,46.79 " fill="none" stroke="rgb(156,156,156)" stroke-width="2.11" stroke-linecap="round" stroke-linejoin="round" opacity="0.809"/></g><g transform="translate(512.00,0.00)"><path d="M 339.19,53.53 L 349.72,58.60 L 354.52,48.37 L 365.05,53.44 L 370.13,42.91 L 379.25,46.79 " fill="none" stroke="rgb(156,156,156)" stroke-width="2.11" stroke-linecap="round" stroke-linejoin="round" opacity="0.809"/></g><g transform="translate(512.00,512.00)"><path d="M 339.19,53.53 L 349.72,58.60 L 354.52,48.37 L 365.05,53.44 L 370.13,42.91 L 379.25,46.79 " fill="none" stroke="rgb(156,156,156)" stroke-width="2.11" stroke-linecap="round" stroke-linejoin="round" opacity="0.809"/></g><g transform="translate(-512.00,-512.00)"><line x1="454.77" y1="48.03" x2="479.04" y2="48.76" stroke="rgb(164,164,164)" stroke-width="1.46" stroke-linecap="round" opacity="0.78"/><line x1="461.75" y1="42.91" x2="472.07" y2="53.87" stroke="rgb(164,164,164)" stroke-width="1.46" stroke-linecap="round" opacity="0.78"/></g><g transform="translate(-512.00,0.00)"><line x1="454.77" y1="48.03" x2="479.04" y2="48.76" stroke="rgb(164,164,164)" stroke-width="1.46" stroke-linecap="round" opacity="0.78"/><line x1="461.75" y1="42.91" x2="472.07" y2="53.87" stroke="rgb(164,164,164)" stroke-width="1.46" stroke-linecap="round" opacity="0.78"/></g><g transform="translate(-512.00,512.00)"><line x1="454.77" y1="48.03" x2="479.04" y2="48.76" stroke="rgb(164,164,164)" stroke-width="1.46" stroke-linecap="round" opacity="0.78"/><line x1="461.75" y1="42.91" x2="472.07" y2="53.87" stroke="rgb(164,164,164)" stroke-width="1.46" stroke-linecap="round" opacity="0.78"/></g><g transform="translate(0.00,-512.00)"><line x1="454.77" y1="48.03" x2="479.04" y2="48.76" stroke="rgb(164,164,164)" stroke-width="1.46" stroke-linecap="round" opacity="0.78"/><line x1="461.75" y1="42.91" x2="472.07" y2="53.87" stroke="rgb(164,164,164)" stroke-width="1.46" stroke-linecap="round" opacity="0.78"/></g><g transform="translate(0.00,0.00)"><line x1="454.77" y1="48.03" x2="479.04" y2="48.76" stroke="rgb(164,164,164)" stroke-width="1.46" stroke-linecap="round" opacity="0.78"/><line x1="461.75" y1="42.91" x2="472.07" y2="53.87" stroke="rgb(164,164,164)" stroke-width="1.46" stroke-linecap="round" opacity="0.78"/></g><g transform="translate(0.00,512.00)"><line x1="454.77" y1="48.03" x2="479.04" y2="48.76" stroke="rgb(164,164,164)" stroke-width="1.46" stroke-linecap="round" opacity="0.78"/><line x1="461.75" y1="42.91" x2="472.07" y2="53.87" stroke="rgb(164,164,164)" stroke-width="1.46" stroke-linecap="round" opacity="0.78"/></g><g transform="translate(512.00,-512.00)"><line x1="454.77" y1="48.03" x2="479.04" y2="48.76" stroke="rgb(164,164,164)" stroke-width="1.46" stroke-linecap="round" opacity="0.78"/><line x1="461.75" y1="42.91" x2="472.07" y2="53.87" stroke="rgb(164,164,164)" stroke-width="1.46" stroke-linecap="round" opacity="0.78"/></g><g transform="translate(512.00,0.00)"><line x1="454.77" y1="48.03" x2="479.04" y2="48.76" stroke="rgb(164,164,164)" stroke-width="1.46" stroke-linecap="round" opacity="0.78"/><line x1="461.75" y1="42.91" x2="472.07" y2="53.87" stroke="rgb(164,164,164)" stroke-width="1.46" stroke-linecap="round" opacity="0.78"/></g><g transform="translate(512.00,512.00)"><line x1="454.77" y1="48.03" x2="479.04" y2="48.76" stroke="rgb(164,164,164)" stroke-width="1.46" stroke-linecap="round" opacity="0.78"/><line x1="461.75" y1="42.91" x2="472.07" y2="53.87" stroke="rgb(164,164,164)" stroke-width="1.46" stroke-linecap="round" opacity="0.78"/></g><g transform="translate(-512.00,-512.00)"><circle cx="48.81" cy="155.27" r="2.29" fill="rgba(155,155,155,0.55)"/><circle cx="55.83" cy="157.18" r="2.04" fill="rgba(155,155,155,0.55)"/><circle cx="62.45" cy="155.65" r="1.78" fill="rgba(155,155,155,0.55)"/><circle cx="54.30" cy="162.53" r="1.53" fill="rgba(155,155,155,0.55)"/></g><g transform="translate(-512.00,0.00)"><circle cx="48.81" cy="155.27" r="2.29" fill="rgba(155,155,155,0.55)"/><circle cx="55.83" cy="157.18" r="2.04" fill="rgba(155,155,155,0.55)"/><circle cx="62.45" cy="155.65" r="1.78" fill="rgba(155,155,155,0.55)"/><circle cx="54.30" cy="162.53" r="1.53" fill="rgba(155,155,155,0.55)"/></g><g transform="translate(-512.00,512.00)"><circle cx="48.81" cy="155.27" r="2.29" fill="rgba(155,155,155,0.55)"/><circle cx="55.83" cy="157.18" r="2.04" fill="rgba(155,155,155,0.55)"/><circle cx="62.45" cy="155.65" r="1.78" fill="rgba(155,155,155,0.55)"/><circle cx="54.30" cy="162.53" r="1.53" fill="rgba(155,155,155,0.55)"/></g><g transform="translate(0.00,-512.00)"><circle cx="48.81" cy="155.27" r="2.29" fill="rgba(155,155,155,0.55)"/><circle cx="55.83" cy="157.18" r="2.04" fill="rgba(155,155,155,0.55)"/><circle cx="62.45" cy="155.65" r="1.78" fill="rgba(155,155,155,0.55)"/><circle cx="54.30" cy="162.53" r="1.53" fill="rgba(155,155,155,0.55)"/></g><g transform="translate(0.00,0.00)"><circle cx="48.81" cy="155.27" r="2.29" fill="rgba(155,155,155,0.55)"/><circle cx="55.83" cy="157.18" r="2.04" fill="rgba(155,155,155,0.55)"/><circle cx="62.45" cy="155.65" r="1.78" fill="rgba(155,155,155,0.55)"/><circle cx="54.30" cy="162.53" r="1.53" fill="rgba(155,155,155,0.55)"/></g><g transform="translate(0.00,512.00)"><circle cx="48.81" cy="155.27" r="2.29" fill="rgba(155,155,155,0.55)"/><circle cx="55.83" cy="157.18" r="2.04" fill="rgba(155,155,155,0.55)"/><circle cx="62.45" cy="155.65" r="1.78" fill="rgba(155,155,155,0.55)"/><circle cx="54.30" cy="162.53" r="1.53" fill="rgba(155,155,155,0.55)"/></g><g transform="translate(512.00,-512.00)"><circle cx="48.81" cy="155.27" r="2.29" fill="rgba(155,155,155,0.55)"/><circle cx="55.83" cy="157.18" r="2.04" fill="rgba(155,155,155,0.55)"/><circle cx="62.45" cy="155.65" r="1.78" fill="rgba(155,155,155,0.55)"/><circle cx="54.30" cy="162.53" r="1.53" fill="rgba(155,155,155,0.55)"/></g><g transform="translate(512.00,0.00)"><circle cx="48.81" cy="155.27" r="2.29" fill="rgba(155,155,155,0.55)"/><circle cx="55.83" cy="157.18" r="2.04" fill="rgba(155,155,155,0.55)"/><circle cx="62.45" cy="155.65" r="1.78" fill="rgba(155,155,155,0.55)"/><circle cx="54.30" cy="162.53" r="1.53" fill="rgba(155,155,155,0.55)"/></g><g transform="translate(512.00,512.00)"><circle cx="48.81" cy="155.27" r="2.29" fill="rgba(155,155,155,0.55)"/><circle cx="55.83" cy="157.18" r="2.04" fill="rgba(155,155,155,0.55)"/><circle cx="62.45" cy="155.65" r="1.78" fill="rgba(155,155,155,0.55)"/><circle cx="54.30" cy="162.53" r="1.53" fill="rgba(155,155,155,0.55)"/></g><g transform="translate(-512.00,-512.00)"><path d="M 138.32,146.73 Q 146.27,142.53 151.33,153.51 Q 160.24,148.06 166.11,158.48" fill="none" stroke="rgb(155,155,155)" stroke-width="1.85" stroke-linecap="round" stroke-linejoin="round" opacity="0.744"/></g><g transform="translate(-512.00,0.00)"><path d="M 138.32,146.73 Q 146.27,142.53 151.33,153.51 Q 160.24,148.06 166.11,158.48" fill="none" stroke="rgb(155,155,155)" stroke-width="1.85" stroke-linecap="round" stroke-linejoin="round" opacity="0.744"/></g><g transform="translate(-512.00,512.00)"><path d="M 138.32,146.73 Q 146.27,142.53 151.33,153.51 Q 160.24,148.06 166.11,158.48" fill="none" stroke="rgb(155,155,155)" stroke-width="1.85" stroke-linecap="round" stroke-linejoin="round" opacity="0.744"/></g><g transform="translate(0.00,-512.00)"><path d="M 138.32,146.73 Q 146.27,142.53 151.33,153.51 Q 160.24,148.06 166.11,158.48" fill="none" stroke="rgb(155,155,155)" stroke-width="1.85" stroke-linecap="round" stroke-linejoin="round" opacity="0.744"/></g><g transform="translate(0.00,0.00)"><path d="M 138.32,146.73 Q 146.27,142.53 151.33,153.51 Q 160.24,148.06 166.11,158.48" fill="none" stroke="rgb(155,155,155)" stroke-width="1.85" stroke-linecap="round" stroke-linejoin="round" opacity="0.744"/></g><g transform="translate(0.00,512.00)"><path d="M 138.32,146.73 Q 146.27,142.53 151.33,153.51 Q 160.24,148.06 166.11,158.48" fill="none" stroke="rgb(155,155,155)" stroke-width="1.85" stroke-linecap="round" stroke-linejoin="round" opacity="0.744"/></g><g transform="translate(512.00,-512.00)"><path d="M 138.32,146.73 Q 146.27,142.53 151.33,153.51 Q 160.24,148.06 166.11,158.48" fill="none" stroke="rgb(155,155,155)" stroke-width="1.85" stroke-linecap="round" stroke-linejoin="round" opacity="0.744"/></g><g transform="translate(512.00,0.00)"><path d="M 138.32,146.73 Q 146.27,142.53 151.33,153.51 Q 160.24,148.06 166.11,158.48" fill="none" stroke="rgb(155,155,155)" stroke-width="1.85" stroke-linecap="round" stroke-linejoin="round" opacity="0.744"/></g><g transform="translate(512.00,512.00)"><path d="M 138.32,146.73 Q 146.27,142.53 151.33,153.51 Q 160.24,148.06 166.11,158.48" fill="none" stroke="rgb(155,155,155)" stroke-width="1.85" stroke-linecap="round" stroke-linejoin="round" opacity="0.744"/></g><g transform="translate(-512.00,-512.00)"><path d="M 262.69,142.70 L 264.07,145.00 L 263.02,147.81 L 259.88,150.01 L 256.34,151.20 L 253.26,152.09 L 250.00,153.20 L 246.14,153.84 L 242.78,152.95 L 241.48,150.60 L 242.18,147.90 L 243.36,145.62 L 244.24,143.37 L 245.72,140.76 L 248.78,138.49 L 252.75,137.73 L 256.05,138.61 L 258.26,140.05 L 260.34,141.28 L 262.69,142.70 Z" fill="rgba(137,137,137,0.10)" stroke="rgb(137,137,137)" stroke-width="1.68" stroke-linecap="round" stroke-linejoin="round" opacity="0.824"/></g><g transform="translate(-512.00,0.00)"><path d="M 262.69,142.70 L 264.07,145.00 L 263.02,147.81 L 259.88,150.01 L 256.34,151.20 L 253.26,152.09 L 250.00,153.20 L 246.14,153.84 L 242.78,152.95 L 241.48,150.60 L 242.18,147.90 L 243.36,145.62 L 244.24,143.37 L 245.72,140.76 L 248.78,138.49 L 252.75,137.73 L 256.05,138.61 L 258.26,140.05 L 260.34,141.28 L 262.69,142.70 Z" fill="rgba(137,137,137,0.10)" stroke="rgb(137,137,137)" stroke-width="1.68" stroke-linecap="round" stroke-linejoin="round" opacity="0.824"/></g><g transform="translate(-512.00,512.00)"><path d="M 262.69,142.70 L 264.07,145.00 L 263.02,147.81 L 259.88,150.01 L 256.34,151.20 L 253.26,152.09 L 250.00,153.20 L 246.14,153.84 L 242.78,152.95 L 241.48,150.60 L 242.18,147.90 L 243.36,145.62 L 244.24,143.37 L 245.72,140.76 L 248.78,138.49 L 252.75,137.73 L 256.05,138.61 L 258.26,140.05 L 260.34,141.28 L 262.69,142.70 Z" fill="rgba(137,137,137,0.10)" stroke="rgb(137,137,137)" stroke-width="1.68" stroke-linecap="round" stroke-linejoin="round" opacity="0.824"/></g><g transform="translate(0.00,-512.00)"><path d="M 262.69,142.70 L 264.07,145.00 L 263.02,147.81 L 259.88,150.01 L 256.34,151.20 L 253.26,152.09 L 250.00,153.20 L 246.14,153.84 L 242.78,152.95 L 241.48,150.60 L 242.18,147.90 L 243.36,145.62 L 244.24,143.37 L 245.72,140.76 L 248.78,138.49 L 252.75,137.73 L 256.05,138.61 L 258.26,140.05 L 260.34,141.28 L 262.69,142.70 Z" fill="rgba(137,137,137,0.10)" stroke="rgb(137,137,137)" stroke-width="1.68" stroke-linecap="round" stroke-linejoin="round" opacity="0.824"/></g><g transform="translate(0.00,0.00)"><path d="M 262.69,142.70 L 264.07,145.00 L 263.02,147.81 L 259.88,150.01 L 256.34,151.20 L 253.26,152.09 L 250.00,153.20 L 246.14,153.84 L 242.78,152.95 L 241.48,150.60 L 242.18,147.90 L 243.36,145.62 L 244.24,143.37 L 245.72,140.76 L 248.78,138.49 L 252.75,137.73 L 256.05,138.61 L 258.26,140.05 L 260.34,141.28 L 262.69,142.70 Z" fill="rgba(137,137,137,0.10)" stroke="rgb(137,137,137)" stroke-width="1.68" stroke-linecap="round" stroke-linejoin="round" opacity="0.824"/></g><g transform="translate(0.00,512.00)"><path d="M 262.69,142.70 L 264.07,145.00 L 263.02,147.81 L 259.88,150.01 L 256.34,151.20 L 253.26,152.09 L 250.00,153.20 L 246.14,153.84 L 242.78,152.95 L 241.48,150.60 L 242.18,147.90 L 243.36,145.62 L 244.24,143.37 L 245.72,140.76 L 248.78,138.49 L 252.75,137.73 L 256.05,138.61 L 258.26,140.05 L 260.34,141.28 L 262.69,142.70 Z" fill="rgba(137,137,137,0.10)" stroke="rgb(137,137,137)" stroke-width="1.68" stroke-linecap="round" stroke-linejoin="round" opacity="0.824"/></g><g transform="translate(512.00,-512.00)"><path d="M 262.69,142.70 L 264.07,145.00 L 263.02,147.81 L 259.88,150.01 L 256.34,151.20 L 253.26,152.09 L 250.00,153.20 L 246.14,153.84 L 242.78,152.95 L 241.48,150.60 L 242.18,147.90 L 243.36,145.62 L 244.24,143.37 L 245.72,140.76 L 248.78,138.49 L 252.75,137.73 L 256.05,138.61 L 258.26,140.05 L 260.34,141.28 L 262.69,142.70 Z" fill="rgba(137,137,137,0.10)" stroke="rgb(137,137,137)" stroke-width="1.68" stroke-linecap="round" stroke-linejoin="round" opacity="0.824"/></g><g transform="translate(512.00,0.00)"><path d="M 262.69,142.70 L 264.07,145.00 L 263.02,147.81 L 259.88,150.01 L 256.34,151.20 L 253.26,152.09 L 250.00,153.20 L 246.14,153.84 L 242.78,152.95 L 241.48,150.60 L 242.18,147.90 L 243.36,145.62 L 244.24,143.37 L 245.72,140.76 L 248.78,138.49 L 252.75,137.73 L 256.05,138.61 L 258.26,140.05 L 260.34,141.28 L 262.69,142.70 Z" fill="rgba(137,137,137,0.10)" stroke="rgb(137,137,137)" stroke-width="1.68" stroke-linecap="round" stroke-linejoin="round" opacity="0.824"/></g><g transform="translate(512.00,512.00)"><path d="M 262.69,142.70 L 264.07,145.00 L 263.02,147.81 L 259.88,150.01 L 256.34,151.20 L 253.26,152.09 L 250.00,153.20 L 246.14,153.84 L 242.78,152.95 L 241.48,150.60 L 242.18,147.90 L 243.36,145.62 L 244.24,143.37 L 245.72,140.76 L 248.78,138.49 L 252.75,137.73 L 256.05,138.61 L 258.26,140.05 L 260.34,141.28 L 262.69,142.70 Z" fill="rgba(137,137,137,0.10)" stroke="rgb(137,137,137)" stroke-width="1.68" stroke-linecap="round" stroke-linejoin="round" opacity="0.824"/></g><g transform="translate(-512.00,-512.00)"><path d="M 338.42,145.71 Q 350.41,136.35 358.73,140.64 Q 360.10,145.80 361.78,152.10" fill="none" stroke="rgb(158,158,158)" stroke-width="2.24" stroke-linecap="round" stroke-linejoin="round" opacity="0.773"/></g><g transform="translate(-512.00,0.00)"><path d="M 338.42,145.71 Q 350.41,136.35 358.73,140.64 Q 360.10,145.80 361.78,152.10" fill="none" stroke="rgb(158,158,158)" stroke-width="2.24" stroke-linecap="round" stroke-linejoin="round" opacity="0.773"/></g><g transform="translate(-512.00,512.00)"><path d="M 338.42,145.71 Q 350.41,136.35 358.73,140.64 Q 360.10,145.80 361.78,152.10" fill="none" stroke="rgb(158,158,158)" stroke-width="2.24" stroke-linecap="round" stroke-linejoin="round" opacity="0.773"/></g><g transform="translate(0.00,-512.00)"><path d="M 338.42,145.71 Q 350.41,136.35 358.73,140.64 Q 360.10,145.80 361.78,152.10" fill="none" stroke="rgb(158,158,158)" stroke-width="2.24" stroke-linecap="round" stroke-linejoin="round" opacity="0.773"/></g><g transform="translate(0.00,0.00)"><path d="M 338.42,145.71 Q 350.41,136.35 358.73,140.64 Q 360.10,145.80 361.78,152.10" fill="none" stroke="rgb(158,158,158)" stroke-width="2.24" stroke-linecap="round" stroke-linejoin="round" opacity="0.773"/></g><g transform="translate(0.00,512.00)"><path d="M 338.42,145.71 Q 350.41,136.35 358.73,140.64 Q 360.10,145.80 361.78,152.10" fill="none" stroke="rgb(158,158,158)" stroke-width="2.24" stroke-linecap="round" stroke-linejoin="round" opacity="0.773"/></g><g transform="translate(512.00,-512.00)"><path d="M 338.42,145.71 Q 350.41,136.35 358.73,140.64 Q 360.10,145.80 361.78,152.10" fill="none" stroke="rgb(158,158,158)" stroke-width="2.24" stroke-linecap="round" stroke-linejoin="round" opacity="0.773"/></g><g transform="translate(512.00,0.00)"><path d="M 338.42,145.71 Q 350.41,136.35 358.73,140.64 Q 360.10,145.80 361.78,152.10" fill="none" stroke="rgb(158,158,158)" stroke-width="2.24" stroke-linecap="round" stroke-linejoin="round" opacity="0.773"/></g><g transform="translate(512.00,512.00)"><path d="M 338.42,145.71 Q 350.41,136.35 358.73,140.64 Q 360.10,145.80 361.78,152.10" fill="none" stroke="rgb(158,158,158)" stroke-width="2.24" stroke-linecap="round" stroke-linejoin="round" opacity="0.773"/></g><g transform="translate(-512.00,-512.00)"><path d="M 442.56,152.72 L 447.91,160.43 L 455.32,155.18 L 460.67,162.90 L 468.39,157.54 L 473.23,163.86 " fill="none" stroke="rgb(164,164,164)" stroke-width="1.92" stroke-linecap="round" stroke-linejoin="round" opacity="0.752"/></g><g transform="translate(-512.00,0.00)"><path d="M 442.56,152.72 L 447.91,160.43 L 455.32,155.18 L 460.67,162.90 L 468.39,157.54 L 473.23,163.86 " fill="none" stroke="rgb(164,164,164)" stroke-width="1.92" stroke-linecap="round" stroke-linejoin="round" opacity="0.752"/></g><g transform="translate(-512.00,512.00)"><path d="M 442.56,152.72 L 447.91,160.43 L 455.32,155.18 L 460.67,162.90 L 468.39,157.54 L 473.23,163.86 " fill="none" stroke="rgb(164,164,164)" stroke-width="1.92" stroke-linecap="round" stroke-linejoin="round" opacity="0.752"/></g><g transform="translate(0.00,-512.00)"><path d="M 442.56,152.72 L 447.91,160.43 L 455.32,155.18 L 460.67,162.90 L 468.39,157.54 L 473.23,163.86 " fill="none" stroke="rgb(164,164,164)" stroke-width="1.92" stroke-linecap="round" stroke-linejoin="round" opacity="0.752"/></g><g transform="translate(0.00,0.00)"><path d="M 442.56,152.72 L 447.91,160.43 L 455.32,155.18 L 460.67,162.90 L 468.39,157.54 L 473.23,163.86 " fill="none" stroke="rgb(164,164,164)" stroke-width="1.92" stroke-linecap="round" stroke-linejoin="round" opacity="0.752"/></g><g transform="translate(0.00,512.00)"><path d="M 442.56,152.72 L 447.91,160.43 L 455.32,155.18 L 460.67,162.90 L 468.39,157.54 L 473.23,163.86 " fill="none" stroke="rgb(164,164,164)" stroke-width="1.92" stroke-linecap="round" stroke-linejoin="round" opacity="0.752"/></g><g transform="translate(512.00,-512.00)"><path d="M 442.56,152.72 L 447.91,160.43 L 455.32,155.18 L 460.67,162.90 L 468.39,157.54 L 473.23,163.86 " fill="none" stroke="rgb(164,164,164)" stroke-width="1.92" stroke-linecap="round" stroke-linejoin="round" opacity="0.752"/></g><g transform="translate(512.00,0.00)"><path d="M 442.56,152.72 L 447.91,160.43 L 455.32,155.18 L 460.67,162.90 L 468.39,157.54 L 473.23,163.86 " fill="none" stroke="rgb(164,164,164)" stroke-width="1.92" stroke-linecap="round" stroke-linejoin="round" opacity="0.752"/></g><g transform="translate(512.00,512.00)"><path d="M 442.56,152.72 L 447.91,160.43 L 455.32,155.18 L 460.67,162.90 L 468.39,157.54 L 473.23,163.86 " fill="none" stroke="rgb(164,164,164)" stroke-width="1.92" stroke-linecap="round" stroke-linejoin="round" opacity="0.752"/></g><g transform="translate(-512.00,-512.00)"><line x1="32.28" y1="248.73" x2="54.63" y2="248.76" stroke="rgb(147,147,147)" stroke-width="1.34" stroke-linecap="round" opacity="0.78"/><line x1="38.56" y1="243.84" x2="48.35" y2="253.65" stroke="rgb(147,147,147)" stroke-width="1.34" stroke-linecap="round" opacity="0.78"/></g><g transform="translate(-512.00,0.00)"><line x1="32.28" y1="248.73" x2="54.63" y2="248.76" stroke="rgb(147,147,147)" stroke-width="1.34" stroke-linecap="round" opacity="0.78"/><line x1="38.56" y1="243.84" x2="48.35" y2="253.65" stroke="rgb(147,147,147)" stroke-width="1.34" stroke-linecap="round" opacity="0.78"/></g><g transform="translate(-512.00,512.00)"><line x1="32.28" y1="248.73" x2="54.63" y2="248.76" stroke="rgb(147,147,147)" stroke-width="1.34" stroke-linecap="round" opacity="0.78"/><line x1="38.56" y1="243.84" x2="48.35" y2="253.65" stroke="rgb(147,147,147)" stroke-width="1.34" stroke-linecap="round" opacity="0.78"/></g><g transform="translate(0.00,-512.00)"><line x1="32.28" y1="248.73" x2="54.63" y2="248.76" stroke="rgb(147,147,147)" stroke-width="1.34" stroke-linecap="round" opacity="0.78"/><line x1="38.56" y1="243.84" x2="48.35" y2="253.65" stroke="rgb(147,147,147)" stroke-width="1.34" stroke-linecap="round" opacity="0.78"/></g><g transform="translate(0.00,0.00)"><line x1="32.28" y1="248.73" x2="54.63" y2="248.76" stroke="rgb(147,147,147)" stroke-width="1.34" stroke-linecap="round" opacity="0.78"/><line x1="38.56" y1="243.84" x2="48.35" y2="253.65" stroke="rgb(147,147,147)" stroke-width="1.34" stroke-linecap="round" opacity="0.78"/></g><g transform="translate(0.00,512.00)"><line x1="32.28" y1="248.73" x2="54.63" y2="248.76" stroke="rgb(147,147,147)" stroke-width="1.34" stroke-linecap="round" opacity="0.78"/><line x1="38.56" y1="243.84" x2="48.35" y2="253.65" stroke="rgb(147,147,147)" stroke-width="1.34" stroke-linecap="round" opacity="0.78"/></g><g transform="translate(512.00,-512.00)"><line x1="32.28" y1="248.73" x2="54.63" y2="248.76" stroke="rgb(147,147,147)" stroke-width="1.34" stroke-linecap="round" opacity="0.78"/><line x1="38.56" y1="243.84" x2="48.35" y2="253.65" stroke="rgb(147,147,147)" stroke-width="1.34" stroke-linecap="round" opacity="0.78"/></g><g transform="translate(512.00,0.00)"><line x1="32.28" y1="248.73" x2="54.63" y2="248.76" stroke="rgb(147,147,147)" stroke-width="1.34" stroke-linecap="round" opacity="0.78"/><line x1="38.56" y1="243.84" x2="48.35" y2="253.65" stroke="rgb(147,147,147)" stroke-width="1.34" stroke-linecap="round" opacity="0.78"/></g><g transform="translate(512.00,512.00)"><line x1="32.28" y1="248.73" x2="54.63" y2="248.76" stroke="rgb(147,147,147)" stroke-width="1.34" stroke-linecap="round" opacity="0.78"/><line x1="38.56" y1="243.84" x2="48.35" y2="253.65" stroke="rgb(147,147,147)" stroke-width="1.34" stroke-linecap="round" opacity="0.78"/></g><g transform="translate(-512.00,-512.00)"><circle cx="138.78" cy="248.94" r="3.19" fill="rgba(155,155,155,0.55)"/><circle cx="148.52" cy="251.60" r="2.83" fill="rgba(155,155,155,0.55)"/><circle cx="157.72" cy="249.47" r="2.48" fill="rgba(155,155,155,0.55)"/><circle cx="146.39" cy="259.03" r="2.12" fill="rgba(155,155,155,0.55)"/></g><g transform="translate(-512.00,0.00)"><circle cx="138.78" cy="248.94" r="3.19" fill="rgba(155,155,155,0.55)"/><circle cx="148.52" cy="251.60" r="2.83" fill="rgba(155,155,155,0.55)"/><circle cx="157.72" cy="249.47" r="2.48" fill="rgba(155,155,155,0.55)"/><circle cx="146.39" cy="259.03" r="2.12" fill="rgba(155,155,155,0.55)"/></g><g transform="translate(-512.00,512.00)"><circle cx="138.78" cy="248.94" r="3.19" fill="rgba(155,155,155,0.55)"/><circle cx="148.52" cy="251.60" r="2.83" fill="rgba(155,155,155,0.55)"/><circle cx="157.72" cy="249.47" r="2.48" fill="rgba(155,155,155,0.55)"/><circle cx="146.39" cy="259.03" r="2.12" fill="rgba(155,155,155,0.55)"/></g><g transform="translate(0.00,-512.00)"><circle cx="138.78" cy="248.94" r="3.19" fill="rgba(155,155,155,0.55)"/><circle cx="148.52" cy="251.60" r="2.83" fill="rgba(155,155,155,0.55)"/><circle cx="157.72" cy="249.47" r="2.48" fill="rgba(155,155,155,0.55)"/><circle cx="146.39" cy="259.03" r="2.12" fill="rgba(155,155,155,0.55)"/></g><g transform="translate(0.00,0.00)"><circle cx="138.78" cy="248.94" r="3.19" fill="rgba(155,155,155,0.55)"/><circle cx="148.52" cy="251.60" r="2.83" fill="rgba(155,155,155,0.55)"/><circle cx="157.72" cy="249.47" r="2.48" fill="rgba(155,155,155,0.55)"/><circle cx="146.39" cy="259.03" r="2.12" fill="rgba(155,155,155,0.55)"/></g><g transform="translate(0.00,512.00)"><circle cx="138.78" cy="248.94" r="3.19" fill="rgba(155,155,155,0.55)"/><circle cx="148.52" cy="251.60" r="2.83" fill="rgba(155,155,155,0.55)"/><circle cx="157.72" cy="249.47" r="2.48" fill="rgba(155,155,155,0.55)"/><circle cx="146.39" cy="259.03" r="2.12" fill="rgba(155,155,155,0.55)"/></g><g transform="translate(512.00,-512.00)"><circle cx="138.78" cy="248.94" r="3.19" fill="rgba(155,155,155,0.55)"/><circle cx="148.52" cy="251.60" r="2.83" fill="rgba(155,155,155,0.55)"/><circle cx="157.72" cy="249.47" r="2.48" fill="rgba(155,155,155,0.55)"/><circle cx="146.39" cy="259.03" r="2.12" fill="rgba(155,155,155,0.55)"/></g><g transform="translate(512.00,0.00)"><circle cx="138.78" cy="248.94" r="3.19" fill="rgba(155,155,155,0.55)"/><circle cx="148.52" cy="251.60" r="2.83" fill="rgba(155,155,155,0.55)"/><circle cx="157.72" cy="249.47" r="2.48" fill="rgba(155,155,155,0.55)"/><circle cx="146.39" cy="259.03" r="2.12" fill="rgba(155,155,155,0.55)"/></g><g transform="translate(512.00,512.00)"><circle cx="138.78" cy="248.94" r="3.19" fill="rgba(155,155,155,0.55)"/><circle cx="148.52" cy="251.60" r="2.83" fill="rgba(155,155,155,0.55)"/><circle cx="157.72" cy="249.47" r="2.48" fill="rgba(155,155,155,0.55)"/><circle cx="146.39" cy="259.03" r="2.12" fill="rgba(155,155,155,0.55)"/></g><g transform="translate(-512.00,-512.00)"><path d="M 237.91,249.83 Q 245.11,242.90 253.89,253.07 Q 261.72,244.51 271.20,253.84" fill="none" stroke="rgb(166,166,166)" stroke-width="1.72" stroke-linecap="round" stroke-linejoin="round" opacity="0.759"/></g><g transform="translate(-512.00,0.00)"><path d="M 237.91,249.83 Q 245.11,242.90 253.89,253.07 Q 261.72,244.51 271.20,253.84" fill="none" stroke="rgb(166,166,166)" stroke-width="1.72" stroke-linecap="round" stroke-linejoin="round" opacity="0.759"/></g><g transform="translate(-512.00,512.00)"><path d="M 237.91,249.83 Q 245.11,242.90 253.89,253.07 Q 261.72,244.51 271.20,253.84" fill="none" stroke="rgb(166,166,166)" stroke-width="1.72" stroke-linecap="round" stroke-linejoin="round" opacity="0.759"/></g><g transform="translate(0.00,-512.00)"><path d="M 237.91,249.83 Q 245.11,242.90 253.89,253.07 Q 261.72,244.51 271.20,253.84" fill="none" stroke="rgb(166,166,166)" stroke-width="1.72" stroke-linecap="round" stroke-linejoin="round" opacity="0.759"/></g><g transform="translate(0.00,0.00)"><path d="M 237.91,249.83 Q 245.11,242.90 253.89,253.07 Q 261.72,244.51 271.20,253.84" fill="none" stroke="rgb(166,166,166)" stroke-width="1.72" stroke-linecap="round" stroke-linejoin="round" opacity="0.759"/></g><g transform="translate(0.00,512.00)"><path d="M 237.91,249.83 Q 245.11,242.90 253.89,253.07 Q 261.72,244.51 271.20,253.84" fill="none" stroke="rgb(166,166,166)" stroke-width="1.72" stroke-linecap="round" stroke-linejoin="round" opacity="0.759"/></g><g transform="translate(512.00,-512.00)"><path d="M 237.91,249.83 Q 245.11,242.90 253.89,253.07 Q 261.72,244.51 271.20,253.84" fill="none" stroke="rgb(166,166,166)" stroke-width="1.72" stroke-linecap="round" stroke-linejoin="round" opacity="0.759"/></g><g transform="translate(512.00,0.00)"><path d="M 237.91,249.83 Q 245.11,242.90 253.89,253.07 Q 261.72,244.51 271.20,253.84" fill="none" stroke="rgb(166,166,166)" stroke-width="1.72" stroke-linecap="round" stroke-linejoin="round" opacity="0.759"/></g><g transform="translate(512.00,512.00)"><path d="M 237.91,249.83 Q 245.11,242.90 253.89,253.07 Q 261.72,244.51 271.20,253.84" fill="none" stroke="rgb(166,166,166)" stroke-width="1.72" stroke-linecap="round" stroke-linejoin="round" opacity="0.759"/></g><g transform="translate(-512.00,-512.00)"><path d="M 365.96,252.23 L 366.70,254.22 L 365.49,256.25 L 362.73,257.51 L 359.81,257.93 L 357.29,258.18 L 354.60,258.58 L 351.51,258.53 L 349.03,257.36 L 348.35,255.34 L 349.28,253.35 L 350.52,251.74 L 351.53,250.11 L 353.05,248.30 L 355.75,246.97 L 358.94,246.95 L 361.39,248.10 L 362.90,249.54 L 364.33,250.79 L 365.96,252.23 Z" fill="rgba(152,152,152,0.10)" stroke="rgb(152,152,152)" stroke-width="1.58" stroke-linecap="round" stroke-linejoin="round" opacity="0.827"/></g><g transform="translate(-512.00,0.00)"><path d="M 365.96,252.23 L 366.70,254.22 L 365.49,256.25 L 362.73,257.51 L 359.81,257.93 L 357.29,258.18 L 354.60,258.58 L 351.51,258.53 L 349.03,257.36 L 348.35,255.34 L 349.28,253.35 L 350.52,251.74 L 351.53,250.11 L 353.05,248.30 L 355.75,246.97 L 358.94,246.95 L 361.39,248.10 L 362.90,249.54 L 364.33,250.79 L 365.96,252.23 Z" fill="rgba(152,152,152,0.10)" stroke="rgb(152,152,152)" stroke-width="1.58" stroke-linecap="round" stroke-linejoin="round" opacity="0.827"/></g><g transform="translate(-512.00,512.00)"><path d="M 365.96,252.23 L 366.70,254.22 L 365.49,256.25 L 362.73,257.51 L 359.81,257.93 L 357.29,258.18 L 354.60,258.58 L 351.51,258.53 L 349.03,257.36 L 348.35,255.34 L 349.28,253.35 L 350.52,251.74 L 351.53,250.11 L 353.05,248.30 L 355.75,246.97 L 358.94,246.95 L 361.39,248.10 L 362.90,249.54 L 364.33,250.79 L 365.96,252.23 Z" fill="rgba(152,152,152,0.10)" stroke="rgb(152,152,152)" stroke-width="1.58" stroke-linecap="round" stroke-linejoin="round" opacity="0.827"/></g><g transform="translate(0.00,-512.00)"><path d="M 365.96,252.23 L 366.70,254.22 L 365.49,256.25 L 362.73,257.51 L 359.81,257.93 L 357.29,258.18 L 354.60,258.58 L 351.51,258.53 L 349.03,257.36 L 348.35,255.34 L 349.28,253.35 L 350.52,251.74 L 351.53,250.11 L 353.05,248.30 L 355.75,246.97 L 358.94,246.95 L 361.39,248.10 L 362.90,249.54 L 364.33,250.79 L 365.96,252.23 Z" fill="rgba(152,152,152,0.10)" stroke="rgb(152,152,152)" stroke-width="1.58" stroke-linecap="round" stroke-linejoin="round" opacity="0.827"/></g><g transform="translate(0.00,0.00)"><path d="M 365.96,252.23 L 366.70,254.22 L 365.49,256.25 L 362.73,257.51 L 359.81,257.93 L 357.29,258.18 L 354.60,258.58 L 351.51,258.53 L 349.03,257.36 L 348.35,255.34 L 349.28,253.35 L 350.52,251.74 L 351.53,250.11 L 353.05,248.30 L 355.75,246.97 L 358.94,246.95 L 361.39,248.10 L 362.90,249.54 L 364.33,250.79 L 365.96,252.23 Z" fill="rgba(152,152,152,0.10)" stroke="rgb(152,152,152)" stroke-width="1.58" stroke-linecap="round" stroke-linejoin="round" opacity="0.827"/></g><g transform="translate(0.00,512.00)"><path d="M 365.96,252.23 L 366.70,254.22 L 365.49,256.25 L 362.73,257.51 L 359.81,257.93 L 357.29,258.18 L 354.60,258.58 L 351.51,258.53 L 349.03,257.36 L 348.35,255.34 L 349.28,253.35 L 350.52,251.74 L 351.53,250.11 L 353.05,248.30 L 355.75,246.97 L 358.94,246.95 L 361.39,248.10 L 362.90,249.54 L 364.33,250.79 L 365.96,252.23 Z" fill="rgba(152,152,152,0.10)" stroke="rgb(152,152,152)" stroke-width="1.58" stroke-linecap="round" stroke-linejoin="round" opacity="0.827"/></g><g transform="translate(512.00,-512.00)"><path d="M 365.96,252.23 L 366.70,254.22 L 365.49,256.25 L 362.73,257.51 L 359.81,257.93 L 357.29,258.18 L 354.60,258.58 L 351.51,258.53 L 349.03,257.36 L 348.35,255.34 L 349.28,253.35 L 350.52,251.74 L 351.53,250.11 L 353.05,248.30 L 355.75,246.97 L 358.94,246.95 L 361.39,248.10 L 362.90,249.54 L 364.33,250.79 L 365.96,252.23 Z" fill="rgba(152,152,152,0.10)" stroke="rgb(152,152,152)" stroke-width="1.58" stroke-linecap="round" stroke-linejoin="round" opacity="0.827"/></g><g transform="translate(512.00,0.00)"><path d="M 365.96,252.23 L 366.70,254.22 L 365.49,256.25 L 362.73,257.51 L 359.81,257.93 L 357.29,258.18 L 354.60,258.58 L 351.51,258.53 L 349.03,257.36 L 348.35,255.34 L 349.28,253.35 L 350.52,251.74 L 351.53,250.11 L 353.05,248.30 L 355.75,246.97 L 358.94,246.95 L 361.39,248.10 L 362.90,249.54 L 364.33,250.79 L 365.96,252.23 Z" fill="rgba(152,152,152,0.10)" stroke="rgb(152,152,152)" stroke-width="1.58" stroke-linecap="round" stroke-linejoin="round" opacity="0.827"/></g><g transform="translate(512.00,512.00)"><path d="M 365.96,252.23 L 366.70,254.22 L 365.49,256.25 L 362.73,257.51 L 359.81,257.93 L 357.29,258.18 L 354.60,258.58 L 351.51,258.53 L 349.03,257.36 L 348.35,255.34 L 349.28,253.35 L 350.52,251.74 L 351.53,250.11 L 353.05,248.30 L 355.75,246.97 L 358.94,246.95 L 361.39,248.10 L 362.90,249.54 L 364.33,250.79 L 365.96,252.23 Z" fill="rgba(152,152,152,0.10)" stroke="rgb(152,152,152)" stroke-width="1.58" stroke-linecap="round" stroke-linejoin="round" opacity="0.827"/></g><g transform="translate(-512.00,-512.00)"><path d="M 440.96,248.47 Q 454.52,240.30 462.58,245.77 Q 463.36,251.27 464.31,258.00" fill="none" stroke="rgb(143,143,143)" stroke-width="2.34" stroke-linecap="round" stroke-linejoin="round" opacity="0.833"/></g><g transform="translate(-512.00,0.00)"><path d="M 440.96,248.47 Q 454.52,240.30 462.58,245.77 Q 463.36,251.27 464.31,258.00" fill="none" stroke="rgb(143,143,143)" stroke-width="2.34" stroke-linecap="round" stroke-linejoin="round" opacity="0.833"/></g><g transform="translate(-512.00,512.00)"><path d="M 440.96,248.47 Q 454.52,240.30 462.58,245.77 Q 463.36,251.27 464.31,258.00" fill="none" stroke="rgb(143,143,143)" stroke-width="2.34" stroke-linecap="round" stroke-linejoin="round" opacity="0.833"/></g><g transform="translate(0.00,-512.00)"><path d="M 440.96,248.47 Q 454.52,240.30 462.58,245.77 Q 463.36,251.27 464.31,258.00" fill="none" stroke="rgb(143,143,143)" stroke-width="2.34" stroke-linecap="round" stroke-linejoin="round" opacity="0.833"/></g><g transform="translate(0.00,0.00)"><path d="M 440.96,248.47 Q 454.52,240.30 462.58,245.77 Q 463.36,251.27 464.31,258.00" fill="none" stroke="rgb(143,143,143)" stroke-width="2.34" stroke-linecap="round" stroke-linejoin="round" opacity="0.833"/></g><g transform="translate(0.00,512.00)"><path d="M 440.96,248.47 Q 454.52,240.30 462.58,245.77 Q 463.36,251.27 464.31,258.00" fill="none" stroke="rgb(143,143,143)" stroke-width="2.34" stroke-linecap="round" stroke-linejoin="round" opacity="0.833"/></g><g transform="translate(512.00,-512.00)"><path d="M 440.96,248.47 Q 454.52,240.30 462.58,245.77 Q 463.36,251.27 464.31,258.00" fill="none" stroke="rgb(143,143,143)" stroke-width="2.34" stroke-linecap="round" stroke-linejoin="round" opacity="0.833"/></g><g transform="translate(512.00,0.00)"><path d="M 440.96,248.47 Q 454.52,240.30 462.58,245.77 Q 463.36,251.27 464.31,258.00" fill="none" stroke="rgb(143,143,143)" stroke-width="2.34" stroke-linecap="round" stroke-linejoin="round" opacity="0.833"/></g><g transform="translate(512.00,512.00)"><path d="M 440.96,248.47 Q 454.52,240.30 462.58,245.77 Q 463.36,251.27 464.31,258.00" fill="none" stroke="rgb(143,143,143)" stroke-width="2.34" stroke-linecap="round" stroke-linejoin="round" opacity="0.833"/></g><g transform="translate(-512.00,-512.00)"><path d="M 30.18,359.10 L 38.45,364.79 L 43.87,356.74 L 52.14,362.43 L 57.83,354.16 L 65.07,358.65 " fill="none" stroke="rgb(132,132,132)" stroke-width="2.08" stroke-linecap="round" stroke-linejoin="round" opacity="0.835"/></g><g transform="translate(-512.00,0.00)"><path d="M 30.18,359.10 L 38.45,364.79 L 43.87,356.74 L 52.14,362.43 L 57.83,354.16 L 65.07,358.65 " fill="none" stroke="rgb(132,132,132)" stroke-width="2.08" stroke-linecap="round" stroke-linejoin="round" opacity="0.835"/></g><g transform="translate(-512.00,512.00)"><path d="M 30.18,359.10 L 38.45,364.79 L 43.87,356.74 L 52.14,362.43 L 57.83,354.16 L 65.07,358.65 " fill="none" stroke="rgb(132,132,132)" stroke-width="2.08" stroke-linecap="round" stroke-linejoin="round" opacity="0.835"/></g><g transform="translate(0.00,-512.00)"><path d="M 30.18,359.10 L 38.45,364.79 L 43.87,356.74 L 52.14,362.43 L 57.83,354.16 L 65.07,358.65 " fill="none" stroke="rgb(132,132,132)" stroke-width="2.08" stroke-linecap="round" stroke-linejoin="round" opacity="0.835"/></g><g transform="translate(0.00,0.00)"><path d="M 30.18,359.10 L 38.45,364.79 L 43.87,356.74 L 52.14,362.43 L 57.83,354.16 L 65.07,358.65 " fill="none" stroke="rgb(132,132,132)" stroke-width="2.08" stroke-linecap="round" stroke-linejoin="round" opacity="0.835"/></g><g transform="translate(0.00,512.00)"><path d="M 30.18,359.10 L 38.45,364.79 L 43.87,356.74 L 52.14,362.43 L 57.83,354.16 L 65.07,358.65 " fill="none" stroke="rgb(132,132,132)" stroke-width="2.08" stroke-linecap="round" stroke-linejoin="round" opacity="0.835"/></g><g transform="translate(512.00,-512.00)"><path d="M 30.18,359.10 L 38.45,364.79 L 43.87,356.74 L 52.14,362.43 L 57.83,354.16 L 65.07,358.65 " fill="none" stroke="rgb(132,132,132)" stroke-width="2.08" stroke-linecap="round" stroke-linejoin="round" opacity="0.835"/></g><g transform="translate(512.00,0.00)"><path d="M 30.18,359.10 L 38.45,364.79 L 43.87,356.74 L 52.14,362.43 L 57.83,354.16 L 65.07,358.65 " fill="none" stroke="rgb(132,132,132)" stroke-width="2.08" stroke-linecap="round" stroke-linejoin="round" opacity="0.835"/></g><g transform="translate(512.00,512.00)"><path d="M 30.18,359.10 L 38.45,364.79 L 43.87,356.74 L 52.14,362.43 L 57.83,354.16 L 65.07,358.65 " fill="none" stroke="rgb(132,132,132)" stroke-width="2.08" stroke-linecap="round" stroke-linejoin="round" opacity="0.835"/></g><g transform="translate(-512.00,-512.00)"><line x1="140.30" y1="350.96" x2="162.50" y2="361.35" stroke="rgb(152,152,152)" stroke-width="1.47" stroke-linecap="round" opacity="0.78"/><line x1="148.81" y1="349.01" x2="153.99" y2="363.30" stroke="rgb(152,152,152)" stroke-width="1.47" stroke-linecap="round" opacity="0.78"/></g><g transform="translate(-512.00,0.00)"><line x1="140.30" y1="350.96" x2="162.50" y2="361.35" stroke="rgb(152,152,152)" stroke-width="1.47" stroke-linecap="round" opacity="0.78"/><line x1="148.81" y1="349.01" x2="153.99" y2="363.30" stroke="rgb(152,152,152)" stroke-width="1.47" stroke-linecap="round" opacity="0.78"/></g><g transform="translate(-512.00,512.00)"><line x1="140.30" y1="350.96" x2="162.50" y2="361.35" stroke="rgb(152,152,152)" stroke-width="1.47" stroke-linecap="round" opacity="0.78"/><line x1="148.81" y1="349.01" x2="153.99" y2="363.30" stroke="rgb(152,152,152)" stroke-width="1.47" stroke-linecap="round" opacity="0.78"/></g><g transform="translate(0.00,-512.00)"><line x1="140.30" y1="350.96" x2="162.50" y2="361.35" stroke="rgb(152,152,152)" stroke-width="1.47" stroke-linecap="round" opacity="0.78"/><line x1="148.81" y1="349.01" x2="153.99" y2="363.30" stroke="rgb(152,152,152)" stroke-width="1.47" stroke-linecap="round" opacity="0.78"/></g><g transform="translate(0.00,0.00)"><line x1="140.30" y1="350.96" x2="162.50" y2="361.35" stroke="rgb(152,152,152)" stroke-width="1.47" stroke-linecap="round" opacity="0.78"/><line x1="148.81" y1="349.01" x2="153.99" y2="363.30" stroke="rgb(152,152,152)" stroke-width="1.47" stroke-linecap="round" opacity="0.78"/></g><g transform="translate(0.00,512.00)"><line x1="140.30" y1="350.96" x2="162.50" y2="361.35" stroke="rgb(152,152,152)" stroke-width="1.47" stroke-linecap="round" opacity="0.78"/><line x1="148.81" y1="349.01" x2="153.99" y2="363.30" stroke="rgb(152,152,152)" stroke-width="1.47" stroke-linecap="round" opacity="0.78"/></g><g transform="translate(512.00,-512.00)"><line x1="140.30" y1="350.96" x2="162.50" y2="361.35" stroke="rgb(152,152,152)" stroke-width="1.47" stroke-linecap="round" opacity="0.78"/><line x1="148.81" y1="349.01" x2="153.99" y2="363.30" stroke="rgb(152,152,152)" stroke-width="1.47" stroke-linecap="round" opacity="0.78"/></g><g transform="translate(512.00,0.00)"><line x1="140.30" y1="350.96" x2="162.50" y2="361.35" stroke="rgb(152,152,152)" stroke-width="1.47" stroke-linecap="round" opacity="0.78"/><line x1="148.81" y1="349.01" x2="153.99" y2="363.30" stroke="rgb(152,152,152)" stroke-width="1.47" stroke-linecap="round" opacity="0.78"/></g><g transform="translate(512.00,512.00)"><line x1="140.30" y1="350.96" x2="162.50" y2="361.35" stroke="rgb(152,152,152)" stroke-width="1.47" stroke-linecap="round" opacity="0.78"/><line x1="148.81" y1="349.01" x2="153.99" y2="363.30" stroke="rgb(152,152,152)" stroke-width="1.47" stroke-linecap="round" opacity="0.78"/></g><g transform="translate(-512.00,-512.00)"><circle cx="253.60" cy="349.49" r="2.47" fill="rgba(155,155,155,0.55)"/><circle cx="261.14" cy="351.54" r="2.19" fill="rgba(155,155,155,0.55)"/><circle cx="268.27" cy="349.90" r="1.92" fill="rgba(155,155,155,0.55)"/><circle cx="259.50" cy="357.30" r="1.64" fill="rgba(155,155,155,0.55)"/></g><g transform="translate(-512.00,0.00)"><circle cx="253.60" cy="349.49" r="2.47" fill="rgba(155,155,155,0.55)"/><circle cx="261.14" cy="351.54" r="2.19" fill="rgba(155,155,155,0.55)"/><circle cx="268.27" cy="349.90" r="1.92" fill="rgba(155,155,155,0.55)"/><circle cx="259.50" cy="357.30" r="1.64" fill="rgba(155,155,155,0.55)"/></g><g transform="translate(-512.00,512.00)"><circle cx="253.60" cy="349.49" r="2.47" fill="rgba(155,155,155,0.55)"/><circle cx="261.14" cy="351.54" r="2.19" fill="rgba(155,155,155,0.55)"/><circle cx="268.27" cy="349.90" r="1.92" fill="rgba(155,155,155,0.55)"/><circle cx="259.50" cy="357.30" r="1.64" fill="rgba(155,155,155,0.55)"/></g><g transform="translate(0.00,-512.00)"><circle cx="253.60" cy="349.49" r="2.47" fill="rgba(155,155,155,0.55)"/><circle cx="261.14" cy="351.54" r="2.19" fill="rgba(155,155,155,0.55)"/><circle cx="268.27" cy="349.90" r="1.92" fill="rgba(155,155,155,0.55)"/><circle cx="259.50" cy="357.30" r="1.64" fill="rgba(155,155,155,0.55)"/></g><g transform="translate(0.00,0.00)"><circle cx="253.60" cy="349.49" r="2.47" fill="rgba(155,155,155,0.55)"/><circle cx="261.14" cy="351.54" r="2.19" fill="rgba(155,155,155,0.55)"/><circle cx="268.27" cy="349.90" r="1.92" fill="rgba(155,155,155,0.55)"/><circle cx="259.50" cy="357.30" r="1.64" fill="rgba(155,155,155,0.55)"/></g><g transform="translate(0.00,512.00)"><circle cx="253.60" cy="349.49" r="2.47" fill="rgba(155,155,155,0.55)"/><circle cx="261.14" cy="351.54" r="2.19" fill="rgba(155,155,155,0.55)"/><circle cx="268.27" cy="349.90" r="1.92" fill="rgba(155,155,155,0.55)"/><circle cx="259.50" cy="357.30" r="1.64" fill="rgba(155,155,155,0.55)"/></g><g transform="translate(512.00,-512.00)"><circle cx="253.60" cy="349.49" r="2.47" fill="rgba(155,155,155,0.55)"/><circle cx="261.14" cy="351.54" r="2.19" fill="rgba(155,155,155,0.55)"/><circle cx="268.27" cy="349.90" r="1.92" fill="rgba(155,155,155,0.55)"/><circle cx="259.50" cy="357.30" r="1.64" fill="rgba(155,155,155,0.55)"/></g><g transform="translate(512.00,0.00)"><circle cx="253.60" cy="349.49" r="2.47" fill="rgba(155,155,155,0.55)"/><circle cx="261.14" cy="351.54" r="2.19" fill="rgba(155,155,155,0.55)"/><circle cx="268.27" cy="349.90" r="1.92" fill="rgba(155,155,155,0.55)"/><circle cx="259.50" cy="357.30" r="1.64" fill="rgba(155,155,155,0.55)"/></g><g transform="translate(512.00,512.00)"><circle cx="253.60" cy="349.49" r="2.47" fill="rgba(155,155,155,0.55)"/><circle cx="261.14" cy="351.54" r="2.19" fill="rgba(155,155,155,0.55)"/><circle cx="268.27" cy="349.90" r="1.92" fill="rgba(155,155,155,0.55)"/><circle cx="259.50" cy="357.30" r="1.64" fill="rgba(155,155,155,0.55)"/></g><g transform="translate(-512.00,-512.00)"><path d="M 340.78,361.19 Q 347.59,353.75 357.08,363.43 Q 364.42,354.30 374.56,363.08" fill="none" stroke="rgb(139,139,139)" stroke-width="2.20" stroke-linecap="round" stroke-linejoin="round" opacity="0.742"/></g><g transform="translate(-512.00,0.00)"><path d="M 340.78,361.19 Q 347.59,353.75 357.08,363.43 Q 364.42,354.30 374.56,363.08" fill="none" stroke="rgb(139,139,139)" stroke-width="2.20" stroke-linecap="round" stroke-linejoin="round" opacity="0.742"/></g><g transform="translate(-512.00,512.00)"><path d="M 340.78,361.19 Q 347.59,353.75 357.08,363.43 Q 364.42,354.30 374.56,363.08" fill="none" stroke="rgb(139,139,139)" stroke-width="2.20" stroke-linecap="round" stroke-linejoin="round" opacity="0.742"/></g><g transform="translate(0.00,-512.00)"><path d="M 340.78,361.19 Q 347.59,353.75 357.08,363.43 Q 364.42,354.30 374.56,363.08" fill="none" stroke="rgb(139,139,139)" stroke-width="2.20" stroke-linecap="round" stroke-linejoin="round" opacity="0.742"/></g><g transform="translate(0.00,0.00)"><path d="M 340.78,361.19 Q 347.59,353.75 357.08,363.43 Q 364.42,354.30 374.56,363.08" fill="none" stroke="rgb(139,139,139)" stroke-width="2.20" stroke-linecap="round" stroke-linejoin="round" opacity="0.742"/></g><g transform="translate(0.00,512.00)"><path d="M 340.78,361.19 Q 347.59,353.75 357.08,363.43 Q 364.42,354.30 374.56,363.08" fill="none" stroke="rgb(139,139,139)" stroke-width="2.20" stroke-linecap="round" stroke-linejoin="round" opacity="0.742"/></g><g transform="translate(512.00,-512.00)"><path d="M 340.78,361.19 Q 347.59,353.75 357.08,363.43 Q 364.42,354.30 374.56,363.08" fill="none" stroke="rgb(139,139,139)" stroke-width="2.20" stroke-linecap="round" stroke-linejoin="round" opacity="0.742"/></g><g transform="translate(512.00,0.00)"><path d="M 340.78,361.19 Q 347.59,353.75 357.08,363.43 Q 364.42,354.30 374.56,363.08" fill="none" stroke="rgb(139,139,139)" stroke-width="2.20" stroke-linecap="round" stroke-linejoin="round" opacity="0.742"/></g><g transform="translate(512.00,512.00)"><path d="M 340.78,361.19 Q 347.59,353.75 357.08,363.43 Q 364.42,354.30 374.56,363.08" fill="none" stroke="rgb(139,139,139)" stroke-width="2.20" stroke-linecap="round" stroke-linejoin="round" opacity="0.742"/></g><g transform="translate(-512.00,-512.00)"><path d="M 473.35,368.30 L 472.59,370.75 L 469.92,371.78 L 466.37,370.95 L 463.27,369.18 L 460.69,367.55 L 457.84,365.95 L 454.93,363.60 L 453.43,360.65 L 454.28,358.23 L 456.64,357.02 L 459.02,356.41 L 461.18,355.61 L 463.97,355.01 L 467.52,355.74 L 470.58,358.08 L 472.05,360.99 L 472.43,363.48 L 472.87,365.73 L 473.35,368.30 Z" fill="rgba(156,156,156,0.10)" stroke="rgb(156,156,156)" stroke-width="1.84" stroke-linecap="round" stroke-linejoin="round" opacity="0.877"/></g><g transform="translate(-512.00,0.00)"><path d="M 473.35,368.30 L 472.59,370.75 L 469.92,371.78 L 466.37,370.95 L 463.27,369.18 L 460.69,367.55 L 457.84,365.95 L 454.93,363.60 L 453.43,360.65 L 454.28,358.23 L 456.64,357.02 L 459.02,356.41 L 461.18,355.61 L 463.97,355.01 L 467.52,355.74 L 470.58,358.08 L 472.05,360.99 L 472.43,363.48 L 472.87,365.73 L 473.35,368.30 Z" fill="rgba(156,156,156,0.10)" stroke="rgb(156,156,156)" stroke-width="1.84" stroke-linecap="round" stroke-linejoin="round" opacity="0.877"/></g><g transform="translate(-512.00,512.00)"><path d="M 473.35,368.30 L 472.59,370.75 L 469.92,371.78 L 466.37,370.95 L 463.27,369.18 L 460.69,367.55 L 457.84,365.95 L 454.93,363.60 L 453.43,360.65 L 454.28,358.23 L 456.64,357.02 L 459.02,356.41 L 461.18,355.61 L 463.97,355.01 L 467.52,355.74 L 470.58,358.08 L 472.05,360.99 L 472.43,363.48 L 472.87,365.73 L 473.35,368.30 Z" fill="rgba(156,156,156,0.10)" stroke="rgb(156,156,156)" stroke-width="1.84" stroke-linecap="round" stroke-linejoin="round" opacity="0.877"/></g><g transform="translate(0.00,-512.00)"><path d="M 473.35,368.30 L 472.59,370.75 L 469.92,371.78 L 466.37,370.95 L 463.27,369.18 L 460.69,367.55 L 457.84,365.95 L 454.93,363.60 L 453.43,360.65 L 454.28,358.23 L 456.64,357.02 L 459.02,356.41 L 461.18,355.61 L 463.97,355.01 L 467.52,355.74 L 470.58,358.08 L 472.05,360.99 L 472.43,363.48 L 472.87,365.73 L 473.35,368.30 Z" fill="rgba(156,156,156,0.10)" stroke="rgb(156,156,156)" stroke-width="1.84" stroke-linecap="round" stroke-linejoin="round" opacity="0.877"/></g><g transform="translate(0.00,0.00)"><path d="M 473.35,368.30 L 472.59,370.75 L 469.92,371.78 L 466.37,370.95 L 463.27,369.18 L 460.69,367.55 L 457.84,365.95 L 454.93,363.60 L 453.43,360.65 L 454.28,358.23 L 456.64,357.02 L 459.02,356.41 L 461.18,355.61 L 463.97,355.01 L 467.52,355.74 L 470.58,358.08 L 472.05,360.99 L 472.43,363.48 L 472.87,365.73 L 473.35,368.30 Z" fill="rgba(156,156,156,0.10)" stroke="rgb(156,156,156)" stroke-width="1.84" stroke-linecap="round" stroke-linejoin="round" opacity="0.877"/></g><g transform="translate(0.00,512.00)"><path d="M 473.35,368.30 L 472.59,370.75 L 469.92,371.78 L 466.37,370.95 L 463.27,369.18 L 460.69,367.55 L 457.84,365.95 L 454.93,363.60 L 453.43,360.65 L 454.28,358.23 L 456.64,357.02 L 459.02,356.41 L 461.18,355.61 L 463.97,355.01 L 467.52,355.74 L 470.58,358.08 L 472.05,360.99 L 472.43,363.48 L 472.87,365.73 L 473.35,368.30 Z" fill="rgba(156,156,156,0.10)" stroke="rgb(156,156,156)" stroke-width="1.84" stroke-linecap="round" stroke-linejoin="round" opacity="0.877"/></g><g transform="translate(512.00,-512.00)"><path d="M 473.35,368.30 L 472.59,370.75 L 469.92,371.78 L 466.37,370.95 L 463.27,369.18 L 460.69,367.55 L 457.84,365.95 L 454.93,363.60 L 453.43,360.65 L 454.28,358.23 L 456.64,357.02 L 459.02,356.41 L 461.18,355.61 L 463.97,355.01 L 467.52,355.74 L 470.58,358.08 L 472.05,360.99 L 472.43,363.48 L 472.87,365.73 L 473.35,368.30 Z" fill="rgba(156,156,156,0.10)" stroke="rgb(156,156,156)" stroke-width="1.84" stroke-linecap="round" stroke-linejoin="round" opacity="0.877"/></g><g transform="translate(512.00,0.00)"><path d="M 473.35,368.30 L 472.59,370.75 L 469.92,371.78 L 466.37,370.95 L 463.27,369.18 L 460.69,367.55 L 457.84,365.95 L 454.93,363.60 L 453.43,360.65 L 454.28,358.23 L 456.64,357.02 L 459.02,356.41 L 461.18,355.61 L 463.97,355.01 L 467.52,355.74 L 470.58,358.08 L 472.05,360.99 L 472.43,363.48 L 472.87,365.73 L 473.35,368.30 Z" fill="rgba(156,156,156,0.10)" stroke="rgb(156,156,156)" stroke-width="1.84" stroke-linecap="round" stroke-linejoin="round" opacity="0.877"/></g><g transform="translate(512.00,512.00)"><path d="M 473.35,368.30 L 472.59,370.75 L 469.92,371.78 L 466.37,370.95 L 463.27,369.18 L 460.69,367.55 L 457.84,365.95 L 454.93,363.60 L 453.43,360.65 L 454.28,358.23 L 456.64,357.02 L 459.02,356.41 L 461.18,355.61 L 463.97,355.01 L 467.52,355.74 L 470.58,358.08 L 472.05,360.99 L 472.43,363.48 L 472.87,365.73 L 473.35,368.30 Z" fill="rgba(156,156,156,0.10)" stroke="rgb(156,156,156)" stroke-width="1.84" stroke-linecap="round" stroke-linejoin="round" opacity="0.877"/></g><g transform="translate(-512.00,-512.00)"><path d="M 40.66,462.42 Q 52.43,446.21 64.50,448.62 Q 68.12,454.65 72.54,462.01" fill="none" stroke="rgb(126,126,126)" stroke-width="2.02" stroke-linecap="round" stroke-linejoin="round" opacity="0.787"/></g><g transform="translate(-512.00,0.00)"><path d="M 40.66,462.42 Q 52.43,446.21 64.50,448.62 Q 68.12,454.65 72.54,462.01" fill="none" stroke="rgb(126,126,126)" stroke-width="2.02" stroke-linecap="round" stroke-linejoin="round" opacity="0.787"/></g><g transform="translate(-512.00,512.00)"><path d="M 40.66,462.42 Q 52.43,446.21 64.50,448.62 Q 68.12,454.65 72.54,462.01" fill="none" stroke="rgb(126,126,126)" stroke-width="2.02" stroke-linecap="round" stroke-linejoin="round" opacity="0.787"/></g><g transform="translate(0.00,-512.00)"><path d="M 40.66,462.42 Q 52.43,446.21 64.50,448.62 Q 68.12,454.65 72.54,462.01" fill="none" stroke="rgb(126,126,126)" stroke-width="2.02" stroke-linecap="round" stroke-linejoin="round" opacity="0.787"/></g><g transform="translate(0.00,0.00)"><path d="M 40.66,462.42 Q 52.43,446.21 64.50,448.62 Q 68.12,454.65 72.54,462.01" fill="none" stroke="rgb(126,126,126)" stroke-width="2.02" stroke-linecap="round" stroke-linejoin="round" opacity="0.787"/></g><g transform="translate(0.00,512.00)"><path d="M 40.66,462.42 Q 52.43,446.21 64.50,448.62 Q 68.12,454.65 72.54,462.01" fill="none" stroke="rgb(126,126,126)" stroke-width="2.02" stroke-linecap="round" stroke-linejoin="round" opacity="0.787"/></g><g transform="translate(512.00,-512.00)"><path d="M 40.66,462.42 Q 52.43,446.21 64.50,448.62 Q 68.12,454.65 72.54,462.01" fill="none" stroke="rgb(126,126,126)" stroke-width="2.02" stroke-linecap="round" stroke-linejoin="round" opacity="0.787"/></g><g transform="translate(512.00,0.00)"><path d="M 40.66,462.42 Q 52.43,446.21 64.50,448.62 Q 68.12,454.65 72.54,462.01" fill="none" stroke="rgb(126,126,126)" stroke-width="2.02" stroke-linecap="round" stroke-linejoin="round" opacity="0.787"/></g><g transform="translate(512.00,512.00)"><path d="M 40.66,462.42 Q 52.43,446.21 64.50,448.62 Q 68.12,454.65 72.54,462.01" fill="none" stroke="rgb(126,126,126)" stroke-width="2.02" stroke-linecap="round" stroke-linejoin="round" opacity="0.787"/></g><g transform="translate(-512.00,-512.00)"><path d="M 143.43,449.32 L 146.53,459.20 L 156.06,456.10 L 159.16,465.98 L 169.04,462.88 L 172.06,471.12 " fill="none" stroke="rgb(157,157,157)" stroke-width="1.72" stroke-linecap="round" stroke-linejoin="round" opacity="0.888"/></g><g transform="translate(-512.00,0.00)"><path d="M 143.43,449.32 L 146.53,459.20 L 156.06,456.10 L 159.16,465.98 L 169.04,462.88 L 172.06,471.12 " fill="none" stroke="rgb(157,157,157)" stroke-width="1.72" stroke-linecap="round" stroke-linejoin="round" opacity="0.888"/></g><g transform="translate(-512.00,512.00)"><path d="M 143.43,449.32 L 146.53,459.20 L 156.06,456.10 L 159.16,465.98 L 169.04,462.88 L 172.06,471.12 " fill="none" stroke="rgb(157,157,157)" stroke-width="1.72" stroke-linecap="round" stroke-linejoin="round" opacity="0.888"/></g><g transform="translate(0.00,-512.00)"><path d="M 143.43,449.32 L 146.53,459.20 L 156.06,456.10 L 159.16,465.98 L 169.04,462.88 L 172.06,471.12 " fill="none" stroke="rgb(157,157,157)" stroke-width="1.72" stroke-linecap="round" stroke-linejoin="round" opacity="0.888"/></g><g transform="translate(0.00,0.00)"><path d="M 143.43,449.32 L 146.53,459.20 L 156.06,456.10 L 159.16,465.98 L 169.04,462.88 L 172.06,471.12 " fill="none" stroke="rgb(157,157,157)" stroke-width="1.72" stroke-linecap="round" stroke-linejoin="round" opacity="0.888"/></g><g transform="translate(0.00,512.00)"><path d="M 143.43,449.32 L 146.53,459.20 L 156.06,456.10 L 159.16,465.98 L 169.04,462.88 L 172.06,471.12 " fill="none" stroke="rgb(157,157,157)" stroke-width="1.72" stroke-linecap="round" stroke-linejoin="round" opacity="0.888"/></g><g transform="translate(512.00,-512.00)"><path d="M 143.43,449.32 L 146.53,459.20 L 156.06,456.10 L 159.16,465.98 L 169.04,462.88 L 172.06,471.12 " fill="none" stroke="rgb(157,157,157)" stroke-width="1.72" stroke-linecap="round" stroke-linejoin="round" opacity="0.888"/></g><g transform="translate(512.00,0.00)"><path d="M 143.43,449.32 L 146.53,459.20 L 156.06,456.10 L 159.16,465.98 L 169.04,462.88 L 172.06,471.12 " fill="none" stroke="rgb(157,157,157)" stroke-width="1.72" stroke-linecap="round" stroke-linejoin="round" opacity="0.888"/></g><g transform="translate(512.00,512.00)"><path d="M 143.43,449.32 L 146.53,459.20 L 156.06,456.10 L 159.16,465.98 L 169.04,462.88 L 172.06,471.12 " fill="none" stroke="rgb(157,157,157)" stroke-width="1.72" stroke-linecap="round" stroke-linejoin="round" opacity="0.888"/></g><g transform="translate(-512.00,-512.00)"><line x1="241.70" y1="461.49" x2="267.68" y2="459.36" stroke="rgb(149,149,149)" stroke-width="1.56" stroke-linecap="round" opacity="0.78"/><line x1="248.53" y1="455.19" x2="260.85" y2="465.65" stroke="rgb(149,149,149)" stroke-width="1.56" stroke-linecap="round" opacity="0.78"/></g><g transform="translate(-512.00,0.00)"><line x1="241.70" y1="461.49" x2="267.68" y2="459.36" stroke="rgb(149,149,149)" stroke-width="1.56" stroke-linecap="round" opacity="0.78"/><line x1="248.53" y1="455.19" x2="260.85" y2="465.65" stroke="rgb(149,149,149)" stroke-width="1.56" stroke-linecap="round" opacity="0.78"/></g><g transform="translate(-512.00,512.00)"><line x1="241.70" y1="461.49" x2="267.68" y2="459.36" stroke="rgb(149,149,149)" stroke-width="1.56" stroke-linecap="round" opacity="0.78"/><line x1="248.53" y1="455.19" x2="260.85" y2="465.65" stroke="rgb(149,149,149)" stroke-width="1.56" stroke-linecap="round" opacity="0.78"/></g><g transform="translate(0.00,-512.00)"><line x1="241.70" y1="461.49" x2="267.68" y2="459.36" stroke="rgb(149,149,149)" stroke-width="1.56" stroke-linecap="round" opacity="0.78"/><line x1="248.53" y1="455.19" x2="260.85" y2="465.65" stroke="rgb(149,149,149)" stroke-width="1.56" stroke-linecap="round" opacity="0.78"/></g><g transform="translate(0.00,0.00)"><line x1="241.70" y1="461.49" x2="267.68" y2="459.36" stroke="rgb(149,149,149)" stroke-width="1.56" stroke-linecap="round" opacity="0.78"/><line x1="248.53" y1="455.19" x2="260.85" y2="465.65" stroke="rgb(149,149,149)" stroke-width="1.56" stroke-linecap="round" opacity="0.78"/></g><g transform="translate(0.00,512.00)"><line x1="241.70" y1="461.49" x2="267.68" y2="459.36" stroke="rgb(149,149,149)" stroke-width="1.56" stroke-linecap="round" opacity="0.78"/><line x1="248.53" y1="455.19" x2="260.85" y2="465.65" stroke="rgb(149,149,149)" stroke-width="1.56" stroke-linecap="round" opacity="0.78"/></g><g transform="translate(512.00,-512.00)"><line x1="241.70" y1="461.49" x2="267.68" y2="459.36" stroke="rgb(149,149,149)" stroke-width="1.56" stroke-linecap="round" opacity="0.78"/><line x1="248.53" y1="455.19" x2="260.85" y2="465.65" stroke="rgb(149,149,149)" stroke-width="1.56" stroke-linecap="round" opacity="0.78"/></g><g transform="translate(512.00,0.00)"><line x1="241.70" y1="461.49" x2="267.68" y2="459.36" stroke="rgb(149,149,149)" stroke-width="1.56" stroke-linecap="round" opacity="0.78"/><line x1="248.53" y1="455.19" x2="260.85" y2="465.65" stroke="rgb(149,149,149)" stroke-width="1.56" stroke-linecap="round" opacity="0.78"/></g><g transform="translate(512.00,512.00)"><line x1="241.70" y1="461.49" x2="267.68" y2="459.36" stroke="rgb(149,149,149)" stroke-width="1.56" stroke-linecap="round" opacity="0.78"/><line x1="248.53" y1="455.19" x2="260.85" y2="465.65" stroke="rgb(149,149,149)" stroke-width="1.56" stroke-linecap="round" opacity="0.78"/></g><g transform="translate(-512.00,-512.00)"><circle cx="353.43" cy="453.46" r="2.66" fill="rgba(155,155,155,0.55)"/><circle cx="361.55" cy="455.68" r="2.36" fill="rgba(155,155,155,0.55)"/><circle cx="369.22" cy="453.91" r="2.07" fill="rgba(155,155,155,0.55)"/><circle cx="359.78" cy="461.87" r="1.77" fill="rgba(155,155,155,0.55)"/></g><g transform="translate(-512.00,0.00)"><circle cx="353.43" cy="453.46" r="2.66" fill="rgba(155,155,155,0.55)"/><circle cx="361.55" cy="455.68" r="2.36" fill="rgba(155,155,155,0.55)"/><circle cx="369.22" cy="453.91" r="2.07" fill="rgba(155,155,155,0.55)"/><circle cx="359.78" cy="461.87" r="1.77" fill="rgba(155,155,155,0.55)"/></g><g transform="translate(-512.00,512.00)"><circle cx="353.43" cy="453.46" r="2.66" fill="rgba(155,155,155,0.55)"/><circle cx="361.55" cy="455.68" r="2.36" fill="rgba(155,155,155,0.55)"/><circle cx="369.22" cy="453.91" r="2.07" fill="rgba(155,155,155,0.55)"/><circle cx="359.78" cy="461.87" r="1.77" fill="rgba(155,155,155,0.55)"/></g><g transform="translate(0.00,-512.00)"><circle cx="353.43" cy="453.46" r="2.66" fill="rgba(155,155,155,0.55)"/><circle cx="361.55" cy="455.68" r="2.36" fill="rgba(155,155,155,0.55)"/><circle cx="369.22" cy="453.91" r="2.07" fill="rgba(155,155,155,0.55)"/><circle cx="359.78" cy="461.87" r="1.77" fill="rgba(155,155,155,0.55)"/></g><g transform="translate(0.00,0.00)"><circle cx="353.43" cy="453.46" r="2.66" fill="rgba(155,155,155,0.55)"/><circle cx="361.55" cy="455.68" r="2.36" fill="rgba(155,155,155,0.55)"/><circle cx="369.22" cy="453.91" r="2.07" fill="rgba(155,155,155,0.55)"/><circle cx="359.78" cy="461.87" r="1.77" fill="rgba(155,155,155,0.55)"/></g><g transform="translate(0.00,512.00)"><circle cx="353.43" cy="453.46" r="2.66" fill="rgba(155,155,155,0.55)"/><circle cx="361.55" cy="455.68" r="2.36" fill="rgba(155,155,155,0.55)"/><circle cx="369.22" cy="453.91" r="2.07" fill="rgba(155,155,155,0.55)"/><circle cx="359.78" cy="461.87" r="1.77" fill="rgba(155,155,155,0.55)"/></g><g transform="translate(512.00,-512.00)"><circle cx="353.43" cy="453.46" r="2.66" fill="rgba(155,155,155,0.55)"/><circle cx="361.55" cy="455.68" r="2.36" fill="rgba(155,155,155,0.55)"/><circle cx="369.22" cy="453.91" r="2.07" fill="rgba(155,155,155,0.55)"/><circle cx="359.78" cy="461.87" r="1.77" fill="rgba(155,155,155,0.55)"/></g><g transform="translate(512.00,0.00)"><circle cx="353.43" cy="453.46" r="2.66" fill="rgba(155,155,155,0.55)"/><circle cx="361.55" cy="455.68" r="2.36" fill="rgba(155,155,155,0.55)"/><circle cx="369.22" cy="453.91" r="2.07" fill="rgba(155,155,155,0.55)"/><circle cx="359.78" cy="461.87" r="1.77" fill="rgba(155,155,155,0.55)"/></g><g transform="translate(512.00,512.00)"><circle cx="353.43" cy="453.46" r="2.66" fill="rgba(155,155,155,0.55)"/><circle cx="361.55" cy="455.68" r="2.36" fill="rgba(155,155,155,0.55)"/><circle cx="369.22" cy="453.91" r="2.07" fill="rgba(155,155,155,0.55)"/><circle cx="359.78" cy="461.87" r="1.77" fill="rgba(155,155,155,0.55)"/></g><g transform="translate(-512.00,-512.00)"><path d="M 445.31,449.94 Q 456.30,447.80 458.37,462.70 Q 470.95,459.42 474.19,473.96" fill="none" stroke="rgb(158,158,158)" stroke-width="2.21" stroke-linecap="round" stroke-linejoin="round" opacity="0.736"/></g><g transform="translate(-512.00,0.00)"><path d="M 445.31,449.94 Q 456.30,447.80 458.37,462.70 Q 470.95,459.42 474.19,473.96" fill="none" stroke="rgb(158,158,158)" stroke-width="2.21" stroke-linecap="round" stroke-linejoin="round" opacity="0.736"/></g><g transform="translate(-512.00,512.00)"><path d="M 445.31,449.94 Q 456.30,447.80 458.37,462.70 Q 470.95,459.42 474.19,473.96" fill="none" stroke="rgb(158,158,158)" stroke-width="2.21" stroke-linecap="round" stroke-linejoin="round" opacity="0.736"/></g><g transform="translate(0.00,-512.00)"><path d="M 445.31,449.94 Q 456.30,447.80 458.37,462.70 Q 470.95,459.42 474.19,473.96" fill="none" stroke="rgb(158,158,158)" stroke-width="2.21" stroke-linecap="round" stroke-linejoin="round" opacity="0.736"/></g><g transform="translate(0.00,0.00)"><path d="M 445.31,449.94 Q 456.30,447.80 458.37,462.70 Q 470.95,459.42 474.19,473.96" fill="none" stroke="rgb(158,158,158)" stroke-width="2.21" stroke-linecap="round" stroke-linejoin="round" opacity="0.736"/></g><g transform="translate(0.00,512.00)"><path d="M 445.31,449.94 Q 456.30,447.80 458.37,462.70 Q 470.95,459.42 474.19,473.96" fill="none" stroke="rgb(158,158,158)" stroke-width="2.21" stroke-linecap="round" stroke-linejoin="round" opacity="0.736"/></g><g transform="translate(512.00,-512.00)"><path d="M 445.31,449.94 Q 456.30,447.80 458.37,462.70 Q 470.95,459.42 474.19,473.96" fill="none" stroke="rgb(158,158,158)" stroke-width="2.21" stroke-linecap="round" stroke-linejoin="round" opacity="0.736"/></g><g transform="translate(512.00,0.00)"><path d="M 445.31,449.94 Q 456.30,447.80 458.37,462.70 Q 470.95,459.42 474.19,473.96" fill="none" stroke="rgb(158,158,158)" stroke-width="2.21" stroke-linecap="round" stroke-linejoin="round" opacity="0.736"/></g><g transform="translate(512.00,512.00)"><path d="M 445.31,449.94 Q 456.30,447.80 458.37,462.70 Q 470.95,459.42 474.19,473.96" fill="none" stroke="rgb(158,158,158)" stroke-width="2.21" stroke-linecap="round" stroke-linejoin="round" opacity="0.736"/></g>
</svg>
