<svg xmlns="http://www.w3.org/2000/svg" width="512" height="512" viewBox="0 0 512 512" role="img" aria-label="Seamless dark doodles pattern tile">
  <rect data-bg="solid" x="0" y="0" width="512" height="512" fill="#FFFFFF" />
  <rect width="512" height="512" fill="#2B2B2B"/><circle cx="447.06" cy="162.59" r="0.17" fill="rgb(61,61,61)" opacity="0.101"/><circle cx="283.54" cy="393.75" r="0.41" fill="rgb(59,59,59)" opacity="0.113"/><circle cx="406.79" cy="131.20" r="0.32" fill="rgb(67,67,67)" opacity="0.083"/><circle cx="282.25" cy="187.84" r="0.37" fill="rgb(64,64,64)" opacity="0.110"/><circle cx="290.50" cy="405.26" r="0.27" fill="rgb(63,63,63)" opacity="0.088"/><circle cx="378.98" cy="99.24" r="0.31" fill="rgb(63,63,63)" opacity="0.107"/><circle cx="85.57" cy="288.52" r="0.40" fill="rgb(65,65,65)" opacity="0.084"/><circle cx="322.02" cy="87.30" r="0.22" fill="rgb(60,60,60)" opacity="0.126"/><circle cx="108.56" cy="147.54" r="0.18" fill="rgb(72,72,72)" opacity="0.132"/><circle cx="249.72" cy="333.65" r="0.39" fill="rgb(69,69,69)" opacity="0.089"/><circle cx="481.56" cy="68.84" r="0.28" fill="rgb(71,71,71)" opacity="0.120"/><circle cx="173.16" cy="90.45" r="0.26" fill="rgb(67,67,67)" opacity="0.092"/><circle cx="228.76" cy="2.84" r="0.25" fill="rgb(62,62,62)" opacity="0.126"/><circle cx="447.05" cy="449.54" r="0.20" fill="rgb(64,64,64)" opacity="0.140"/><circle cx="414.68" cy="412.37" r="0.29" fill="rgb(61,61,61)" opacity="0.090"/><circle cx="113.33" cy="420.83" r="0.34" fill="rgb(72,72,72)" opacity="0.086"/><circle cx="251.00" cy="153.45" r="0.18" fill="rgb(68,68,68)" opacity="0.116"/><circle cx="489.09" cy="52.78" r="0.30" fill="rgb(60,60,60)" opacity="0.103"/><circle cx="89.80" cy="427.00" r="0.27" fill="rgb(70,70,70)" opacity="0.136"/><circle cx="54.83" cy="148.06" r="0.24" fill="rgb(67,67,67)" opacity="0.110"/><circle cx="45.49" cy="286.56" r="0.35" fill="rgb(61,61,61)" opacity="0.115"/><circle cx="456.05" cy="237.51" r="0.29" fill="rgb(58,58,58)" opacity="0.086"/><circle cx="391.26" cy="259.37" r="0.37" fill="rgb(71,71,71)" opacity="0.139"/><circle cx="426.61" cy="357.79" r="0.40" fill="rgb(59,59,59)" opacity="0.125"/><circle cx="283.31" cy="397.25" r="0.27" fill="rgb(64,64,64)" opacity="0.094"/><circle cx="370.77" cy="81.28" r="0.37" fill="rgb(66,66,66)" opacity="0.098"/><circle cx="371.01" cy="393.69" r="0.21" fill="rgb(67,67,67)" opacity="0.124"/><circle cx="151.32" cy="69.78" r="0.33" fill="rgb(72,72,72)" opacity="0.086"/><circle cx="191.27" cy="418.51" r="0.30" fill="rgb(58,58,58)" opacity="0.114"/><circle cx="452.22" cy="19.84" r="0.33" fill="rgb(60,60,60)" opacity="0.130"/><circle cx="269.71" cy="486.15" r="0.32" fill="rgb(67,67,67)" opacity="0.086"/><circle cx="432.94" cy="178.98" r="0.40" fill="rgb(66,66,66)" opacity="0.089"/><circle cx="111.02" cy="485.02" r="0.29" fill="rgb(60,60,60)" opacity="0.122"/><circle cx="155.95" cy="254.65" r="0.21" fill="rgb(58,58,58)" opacity="0.116"/><circle cx="268.73" cy="309.65" r="0.39" fill="rgb(69,69,69)" opacity="0.102"/><circle cx="142.78" cy="190.25" r="0.40" fill="rgb(61,61,61)" opacity="0.113"/><circle cx="123.93" cy="228.57" r="0.18" fill="rgb(67,67,67)" opacity="0.095"/><circle cx="99.12" cy="361.86" r="0.29" fill="rgb(60,60,60)" opacity="0.120"/><circle cx="427.06" cy="106.71" r="0.29" fill="rgb(62,62,62)" opacity="0.086"/><circle cx="495.29" cy="326.66" r="0.31" fill="rgb(62,62,62)" opacity="0.093"/><circle cx="462.51" cy="339.96" r="0.28" fill="rgb(59,59,59)" opacity="0.100"/><circle cx="412.64" cy="396.89" r="0.30" fill="rgb(64,64,64)" opacity="0.111"/><circle cx="468.84" cy="59.60" r="0.33" fill="rgb(72,72,72)" opacity="0.087"/><circle cx="8.51" cy="188.79" r="0.21" fill="rgb(67,67,67)" opacity="0.127"/><circle cx="393.26" cy="326.21" r="0.20" fill="rgb(62,62,62)" opacity="0.131"/><circle cx="463.10" cy="35.41" r="0.17" fill="rgb(69,69,69)" opacity="0.139"/><circle cx="15.66" cy="374.53" r="0.23" fill="rgb(60,60,60)" opacity="0.116"/><circle cx="374.94" cy="419.33" r="0.40" fill="rgb(62,62,62)" opacity="0.100"/><circle cx="269.36" cy="274.28" r="0.23" fill="rgb(63,63,63)" opacity="0.118"/><circle cx="409.46" cy="390.39" r="0.33" fill="rgb(61,61,61)" opacity="0.106"/><circle cx="49.80" cy="440.17" r="0.35" fill="rgb(64,64,64)" opacity="0.131"/><circle cx="461.81" cy="157.88" r="0.20" fill="rgb(71,71,71)" opacity="0.116"/><circle cx="160.96" cy="137.39" r="0.26" fill="rgb(63,63,63)" opacity="0.093"/><circle cx="174.43" cy="84.22" r="0.26" fill="rgb(67,67,67)" opacity="0.095"/><circle cx="241.46" cy="110.13" r="0.25" fill="rgb(62,62,62)" opacity="0.118"/><circle cx="215.80" cy="85.17" r="0.37" fill="rgb(72,72,72)" opacity="0.097"/><circle cx="303.98" cy="507.41" r="0.36" fill="rgb(62,62,62)" opacity="0.091"/><circle cx="16.45" cy="464.85" r="0.20" fill="rgb(70,70,70)" opacity="0.111"/><circle cx="295.52" cy="175.27" r="0.33" fill="rgb(67,67,67)" opacity="0.117"/><circle cx="259.48" cy="351.02" r="0.39" fill="rgb(62,62,62)" opacity="0.113"/><circle cx="291.67" cy="471.89" r="0.40" fill="rgb(69,69,69)" opacity="0.125"/><circle cx="458.06" cy="410.85" r="0.41" fill="rgb(67,67,67)" opacity="0.126"/><circle cx="311.90" cy="345.98" r="0.23" fill="rgb(71,71,71)" opacity="0.125"/><circle cx="313.47" cy="510.03" r="0.33" fill="rgb(64,64,64)" opacity="0.117"/><circle cx="184.19" cy="225.49" r="0.42" fill="rgb(71,71,71)" opacity="0.112"/><circle cx="323.89" cy="395.71" r="0.19" fill="rgb(69,69,69)" opacity="0.082"/><circle cx="299.55" cy="68.36" r="0.18" fill="rgb(58,58,58)" opacity="0.123"/><circle cx="44.11" cy="336.69" r="0.28" fill="rgb(63,63,63)" opacity="0.111"/><circle cx="428.36" cy="329.86" r="0.31" fill="rgb(60,60,60)" opacity="0.090"/><circle cx="0.94" cy="390.69" r="0.25" fill="rgb(58,58,58)" opacity="0.102"/><circle cx="480.12" cy="261.43" r="0.18" fill="rgb(60,60,60)" opacity="0.108"/><circle cx="306.54" cy="225.57" r="0.20" fill="rgb(68,68,68)" opacity="0.096"/><circle cx="410.44" cy="424.87" r="0.32" fill="rgb(68,68,68)" opacity="0.086"/><circle cx="377.50" cy="297.17" r="0.25" fill="rgb(70,70,70)" opacity="0.105"/><circle cx="97.32" cy="406.46" r="0.25" fill="rgb(64,64,64)" opacity="0.092"/><circle cx="457.02" cy="473.51" r="0.39" fill="rgb(60,60,60)" opacity="0.103"/><circle cx="292.87" cy="107.17" r="0.24" fill="rgb(64,64,64)" opacity="0.082"/><circle cx="111.51" cy="170.15" r="0.40" fill="rgb(59,59,59)" opacity="0.096"/><circle cx="457.61" cy="237.18" r="0.27" fill="rgb(69,69,69)" opacity="0.116"/><circle cx="343.43" cy="265.08" r="0.17" fill="rgb(65,65,65)" opacity="0.109"/><circle cx="191.17" cy="85.50" r="0.29" fill="rgb(58,58,58)" opacity="0.137"/><circle cx="8.77" cy="164.36" r="0.19" fill="rgb(62,62,62)" opacity="0.102"/><circle cx="83.19" cy="319.85" r="0.40" fill="rgb(68,68,68)" opacity="0.088"/><circle cx="293.35" cy="20.66" r="0.19" fill="rgb(66,66,66)" opacity="0.087"/><circle cx="369.87" cy="251.17" r="0.38" fill="rgb(71,71,71)" opacity="0.088"/><circle cx="159.90" cy="103.61" r="0.37" fill="rgb(67,67,67)" opacity="0.133"/><circle cx="258.32" cy="465.60" r="0.21" fill="rgb(64,64,64)" opacity="0.099"/><circle cx="141.11" cy="78.65" r="0.25" fill="rgb(63,63,63)" opacity="0.113"/><circle cx="332.19" cy="54.96" r="0.39" fill="rgb(62,62,62)" opacity="0.082"/><circle cx="338.32" cy="415.97" r="0.34" fill="rgb(68,68,68)" opacity="0.124"/><circle cx="89.26" cy="219.76" r="0.38" fill="rgb(65,65,65)" opacity="0.119"/><circle cx="440.52" cy="466.86" r="0.40" fill="rgb(69,69,69)" opacity="0.139"/><circle cx="319.23" cy="340.68" r="0.34" fill="rgb(70,70,70)" opacity="0.082"/><circle cx="217.35" cy="229.87" r="0.24" fill="rgb(60,60,60)" opacity="0.107"/><circle cx="431.75" cy="241.94" r="0.19" fill="rgb(62,62,62)" opacity="0.099"/><circle cx="3.95" cy="402.35" r="0.40" fill="rgb(67,67,67)" opacity="0.095"/><circle cx="82.27" cy="36.20" r="0.16" fill="rgb(60,60,60)" opacity="0.098"/><circle cx="72.92" cy="115.22" r="0.39" fill="rgb(70,70,70)" opacity="0.131"/><circle cx="317.80" cy="133.31" r="0.19" fill="rgb(59,59,59)" opacity="0.111"/><circle cx="366.04" cy="168.06" r="0.27" fill="rgb(72,72,72)" opacity="0.136"/><circle cx="395.00" cy="105.11" r="0.24" fill="rgb(66,66,66)" opacity="0.109"/><circle cx="134.69" cy="321.48" r="0.29" fill="rgb(62,62,62)" opacity="0.115"/><circle cx="258.18" cy="239.80" r="0.31" fill="rgb(62,62,62)" opacity="0.124"/><circle cx="327.52" cy="483.87" r="0.24" fill="rgb(66,66,66)" opacity="0.117"/><circle cx="77.30" cy="365.53" r="0.16" fill="rgb(61,61,61)" opacity="0.121"/><circle cx="112.89" cy="434.91" r="0.32" fill="rgb(72,72,72)" opacity="0.109"/><circle cx="285.20" cy="314.59" r="0.25" fill="rgb(63,63,63)" opacity="0.115"/><circle cx="344.59" cy="199.71" r="0.33" fill="rgb(67,67,67)" opacity="0.128"/><circle cx="326.21" cy="308.71" r="0.26" fill="rgb(63,63,63)" opacity="0.122"/><circle cx="138.96" cy="229.64" r="0.24" fill="rgb(67,67,67)" opacity="0.138"/><g transform="translate(-512.00,-512.00)"><path d="M 31.54,46.69 Q 39.09,40.42 46.94,51.00 Q 55.22,43.19 63.83,52.99" fill="none" stroke="rgba(255,255,255,0.908)" stroke-width="2.11" stroke-linecap="round" stroke-linejoin="round"/></g><g transform="translate(-512.00,0.00)"><path d="M 31.54,46.69 Q 39.09,40.42 46.94,51.00 Q 55.22,43.19 63.83,52.99" fill="none" stroke="rgba(255,255,255,0.908)" stroke-width="2.11" stroke-linecap="round" stroke-linejoin="round"/></g><g transform="translate(-512.00,512.00)"><path d="M 31.54,46.69 Q 39.09,40.42 46.94,51.00 Q 55.22,43.19 63.83,52.99" fill="none" stroke="rgba(255,255,255,0.908)" stroke-width="2.11" stroke-linecap="round" stroke-linejoin="round"/></g><g transform="translate(0.00,-512.00)"><path d="M 31.54,46.69 Q 39.09,40.42 46.94,51.00 Q 55.22,43.19 63.83,52.99" fill="none" stroke="rgba(255,255,255,0.908)" stroke-width="2.11" stroke-linecap="round" stroke-linejoin="round"/></g><g transform="translate(0.00,0.00)"><path d="M 31.54,46.69 Q 39.09,40.42 46.94,51.00 Q 55.22,43.19 63.83,52.99" fill="none" stroke="rgba(255,255,255,0.908)" stroke-width="2.11" stroke-linecap="round" stroke-linejoin="round"/></g><g transform="translate(0.00,512.00)"><path d="M 31.54,46.69 Q 39.09,40.42 46.94,51.00 Q 55.22,43.19 63.83,52.99" fill="none" stroke="rgba(255,255,255,0.908)" stroke-width="2.11" stroke-linecap="round" stroke-linejoin="round"/></g><g transform="translate(512.00,-512.00)"><path d="M 31.54,46.69 Q 39.09,40.42 46.94,51.00 Q 55.22,43.19 63.83,52.99" fill="none" stroke="rgba(255,255,255,0.908)" stroke-width="2.11" stroke-linecap="round" stroke-linejoin="round"/></g><g transform="translate(512.00,0.00)"><path d="M 31.54,46.69 Q 39.09,40.42 46.94,51.00 Q 55.22,43.19 63.83,52.99" fill="none" stroke="rgba(255,255,255,0.908)" stroke-width="2.11" stroke-linecap="round" stroke-linejoin="round"/></g><g transform="translate(512.00,512.00)"><path d="M 31.54,46.69 Q 39.09,40.42 46.94,51.00 Q 55.22,43.19 63.83,52.99" fill="none" stroke="rgba(255,255,255,0.908)" stroke-width="2.11" stroke-linecap="round" stroke-linejoin="round"/></g><g transform="translate(-512.00,-512.00)"><path d="M 162.33,53.88 L 163.50,55.85 L 162.75,58.35 L 160.29,60.48 L 157.34,61.85 L 154.65,62.88 L 151.81,63.98 L 148.52,64.63 L 145.61,64.02 L 144.25,62.11 L 144.49,59.78 L 145.28,57.67 L 146.02,55.60 L 147.31,53.27 L 149.89,51.18 L 153.27,50.25 L 156.24,50.67 L 158.39,51.69 L 160.32,52.67 L 162.33,53.88 Z" fill="rgba(255,255,255,0.10)" stroke="rgba(255,255,255,0.877)" stroke-width="1.70" stroke-linecap="round" stroke-linejoin="round"/></g><g transform="translate(-512.00,0.00)"><path d="M 162.33,53.88 L 163.50,55.85 L 162.75,58.35 L 160.29,60.48 L 157.34,61.85 L 154.65,62.88 L 151.81,63.98 L 148.52,64.63 L 145.61,64.02 L 144.25,62.11 L 144.49,59.78 L 145.28,57.67 L 146.02,55.60 L 147.31,53.27 L 149.89,51.18 L 153.27,50.25 L 156.24,50.67 L 158.39,51.69 L 160.32,52.67 L 162.33,53.88 Z" fill="rgba(255,255,255,0.10)" stroke="rgba(255,255,255,0.877)" stroke-width="1.70" stroke-linecap="round" stroke-linejoin="round"/></g><g transform="translate(-512.00,512.00)"><path d="M 162.33,53.88 L 163.50,55.85 L 162.75,58.35 L 160.29,60.48 L 157.34,61.85 L 154.65,62.88 L 151.81,63.98 L 148.52,64.63 L 145.61,64.02 L 144.25,62.11 L 144.49,59.78 L 145.28,57.67 L 146.02,55.60 L 147.31,53.27 L 149.89,51.18 L 153.27,50.25 L 156.24,50.67 L 158.39,51.69 L 160.32,52.67 L 162.33,53.88 Z" fill="rgba(255,255,255,0.10)" stroke="rgba(255,255,255,0.877)" stroke-width="1.70" stroke-linecap="round" stroke-linejoin="round"/></g><g transform="translate(0.00,-512.00)"><path d="M 162.33,53.88 L 163.50,55.85 L 162.75,58.35 L 160.29,60.48 L 157.34,61.85 L 154.65,62.88 L 151.81,63.98 L 148.52,64.63 L 145.61,64.02 L 144.25,62.11 L 144.49,59.78 L 145.28,57.67 L 146.02,55.60 L 147.31,53.27 L 149.89,51.18 L 153.27,50.25 L 156.24,50.67 L 158.39,51.69 L 160.32,52.67 L 162.33,53.88 Z" fill="rgba(255,255,255,0.10)" stroke="rgba(255,255,255,0.877)" stroke-width="1.70" stroke-linecap="round" stroke-linejoin="round"/></g><g transform="translate(0.00,0.00)"><path d="M 162.33,53.88 L 163.50,55.85 L 162.75,58.35 L 160.29,60.48 L 157.34,61.85 L 154.65,62.88 L 151.81,63.98 L 148.52,64.63 L 145.61,64.02 L 144.25,62.11 L 144.49,59.78 L 145.28,57.67 L 146.02,55.60 L 147.31,53.27 L 149.89,51.18 L 153.27,50.25 L 156.24,50.67 L 158.39,51.69 L 160.32,52.67 L 162.33,53.88 Z" fill="rgba(255,255,255,0.10)" stroke="rgba(255,255,255,0.877)" stroke-width="1.70" stroke-linecap="round" stroke-linejoin="round"/></g><g transform="translate(0.00,512.00)"><path d="M 162.33,53.88 L 163.50,55.85 L 162.75,58.35 L 160.29,60.48 L 157.34,61.85 L 154.65,62.88 L 151.81,63.98 L 148.52,64.63 L 145.61,64.02 L 144.25,62.11 L 144.49,59.78 L 145.28,57.67 L 146.02,55.60 L 147.31,53.27 L 149.89,51.18 L 153.27,50.25 L 156.24,50.67 L 158.39,51.69 L 160.32,52.67 L 162.33,53.88 Z" fill="rgba(255,255,255,0.10)" stroke="rgba(255,255,255,0.877)" stroke-width="1.70" stroke-linecap="round" stroke-linejoin="round"/></g><g transform="translate(512.00,-512.00)"><path d="M 162.33,53.88 L 163.50,55.85 L 162.75,58.35 L 160.29,60.48 L 157.34,61.85 L 154.65,62.88 L 151.81,63.98 L 148.52,64.63 L 145.61,64.02 L 144.25,62.11 L 144.49,59.78 L 145.28,57.67 L 146.02,55.60 L 147.31,53.27 L 149.89,51.18 L 153.27,50.25 L 156.24,50.67 L 158.39,51.69 L 160.32,52.67 L 162.33,53.88 Z" fill="rgba(255,255,255,0.10)" stroke="rgba(255,255,255,0.877)" stroke-width="1.70" stroke-linecap="round" stroke-linejoin="round"/></g><g transform="translate(512.00,0.00)"><path d="M 162.33,53.88 L 163.50,55.85 L 162.75,58.35 L 160.29,60.48 L 157.34,61.85 L 154.65,62.88 L 151.81,63.98 L 148.52,64.63 L 145.61,64.02 L 144.25,62.11 L 144.49,59.78 L 145.28,57.67 L 146.02,55.60 L 147.31,53.27 L 149.89,51.18 L 153.27,50.25 L 156.24,50.67 L 158.39,51.69 L 160.32,52.67 L 162.33,53.88 Z" fill="rgba(255,255,255,0.10)" stroke="rgba(255,255,255,0.877)" stroke-width="1.70" stroke-linecap="round" stroke-linejoin="round"/></g><g transform="translate(512.00,512.00)"><path d="M 162.33,53.88 L 163.50,55.85 L 162.75,58.35 L 160.29,60.48 L 157.34,61.85 L 154.65,62.88 L 151.81,63.98 L 148.52,64.63 L 145.61,64.02 L 144.25,62.11 L 144.49,59.78 L 145.28,57.67 L 146.02,55.60 L 147.31,53.27 L 149.89,51.18 L 153.27,50.25 L 156.24,50.67 L 158.39,51.69 L 160.32,52.67 L 162.33,53.88 Z" fill="rgba(255,255,255,0.10)" stroke="rgba(255,255,255,0.877)" stroke-width="1.70" stroke-linecap="round" stroke-linejoin="round"/></g><g transform="translate(-512.00,-512.00)"><path d="M 242.67,47.95 Q 253.70,37.84 262.18,41.39 Q 263.94,46.34 266.08,52.39" fill="none" stroke="rgba(255,255,255,0.882)" stroke-width="2.39" stroke-linecap="round" stroke-linejoin="round"/></g><g transform="translate(-512.00,0.00)"><path d="M 242.67,47.95 Q 253.70,37.84 262.18,41.39 Q 263.94,46.34 266.08,52.39" fill="none" stroke="rgba(255,255,255,0.882)" stroke-width="2.39" stroke-linecap="round" stroke-linejoin="round"/></g><g transform="translate(-512.00,512.00)"><path d="M 242.67,47.95 Q 253.70,37.84 262.18,41.39 Q 263.94,46.34 266.08,52.39" fill="none" stroke="rgba(255,255,255,0.882)" stroke-width="2.39" stroke-linecap="round" stroke-linejoin="round"/></g><g transform="translate(0.00,-512.00)"><path d="M 242.67,47.95 Q 253.70,37.84 262.18,41.39 Q 263.94,46.34 266.08,52.39" fill="none" stroke="rgba(255,255,255,0.882)" stroke-width="2.39" stroke-linecap="round" stroke-linejoin="round"/></g><g transform="translate(0.00,0.00)"><path d="M 242.67,47.95 Q 253.70,37.84 262.18,41.39 Q 263.94,46.34 266.08,52.39" fill="none" stroke="rgba(255,255,255,0.882)" stroke-width="2.39" stroke-linecap="round" stroke-linejoin="round"/></g><g transform="translate(0.00,512.00)"><path d="M 242.67,47.95 Q 253.70,37.84 262.18,41.39 Q 263.94,46.34 266.08,52.39" fill="none" stroke="rgba(255,255,255,0.882)" stroke-width="2.39" stroke-linecap="round" stroke-linejoin="round"/></g><g transform="translate(512.00,-512.00)"><path d="M 242.67,47.95 Q 253.70,37.84 262.18,41.39 Q 263.94,46.34 266.08,52.39" fill="none" stroke="rgba(255,255,255,0.882)" stroke-width="2.39" stroke-linecap="round" stroke-linejoin="round"/></g><g transform="translate(512.00,0.00)"><path d="M 242.67,47.95 Q 253.70,37.84 262.18,41.39 Q 263.94,46.34 266.08,52.39" fill="none" stroke="rgba(255,255,255,0.882)" stroke-width="2.39" stroke-linecap="round" stroke-linejoin="round"/></g><g transform="translate(512.00,512.00)"><path d="M 242.67,47.95 Q 253.70,37.84 262.18,41.39 Q 263.94,46.34 266.08,52.39" fill="none" stroke="rgba(255,255,255,0.882)" stroke-width="2.39" stroke-linecap="round" stroke-linejoin="round"/></g><g transform="translate(-512.00,-512.00)"><path d="M 339.55,42.94 L 342.31,52.36 L 351.40,49.59 L 354.17,59.02 L 363.59,56.25 L 366.31,64.12 " fill="none" stroke="rgba(255,255,255,0.760)" stroke-width="2.33" stroke-linecap="round" stroke-linejoin="round"/></g><g transform="translate(-512.00,0.00)"><path d="M 339.55,42.94 L 342.31,52.36 L 351.40,49.59 L 354.17,59.02 L 363.59,56.25 L 366.31,64.12 " fill="none" stroke="rgba(255,255,255,0.760)" stroke-width="2.33" stroke-linecap="round" stroke-linejoin="round"/></g><g transform="translate(-512.00,512.00)"><path d="M 339.55,42.94 L 342.31,52.36 L 351.40,49.59 L 354.17,59.02 L 363.59,56.25 L 366.31,64.12 " fill="none" stroke="rgba(255,255,255,0.760)" stroke-width="2.33" stroke-linecap="round" stroke-linejoin="round"/></g><g transform="translate(0.00,-512.00)"><path d="M 339.55,42.94 L 342.31,52.36 L 351.40,49.59 L 354.17,59.02 L 363.59,56.25 L 366.31,64.12 " fill="none" stroke="rgba(255,255,255,0.760)" stroke-width="2.33" stroke-linecap="round" stroke-linejoin="round"/></g><g transform="translate(0.00,0.00)"><path d="M 339.55,42.94 L 342.31,52.36 L 351.40,49.59 L 354.17,59.02 L 363.59,56.25 L 366.31,64.12 " fill="none" stroke="rgba(255,255,255,0.760)" stroke-width="2.33" stroke-linecap="round" stroke-linejoin="round"/></g><g transform="translate(0.00,512.00)"><path d="M 339.55,42.94 L 342.31,52.36 L 351.40,49.59 L 354.17,59.02 L 363.59,56.25 L 366.31,64.12 " fill="none" stroke="rgba(255,255,255,0.760)" stroke-width="2.33" stroke-linecap="round" stroke-linejoin="round"/></g><g transform="translate(512.00,-512.00)"><path d="M 339.55,42.94 L 342.31,52.36 L 351.40,49.59 L 354.17,59.02 L 363.59,56.25 L 366.31,64.12 " fill="none" stroke="rgba(255,255,255,0.760)" stroke-width="2.33" stroke-linecap="round" stroke-linejoin="round"/></g><g transform="translate(512.00,0.00)"><path d="M 339.55,42.94 L 342.31,52.36 L 351.40,49.59 L 354.17,59.02 L 363.59,56.25 L 366.31,64.12 " fill="none" stroke="rgba(255,255,255,0.760)" stroke-width="2.33" stroke-linecap="round" stroke-linejoin="round"/></g><g transform="translate(512.00,512.00)"><path d="M 339.55,42.94 L 342.31,52.36 L 351.40,49.59 L 354.17,59.02 L 363.59,56.25 L 366.31,64.12 " fill="none" stroke="rgba(255,255,255,0.760)" stroke-width="2.33" stroke-linecap="round" stroke-linejoin="round"/></g><g transform="translate(-512.00,-512.00)"><line x1="456.38" y1="54.04" x2="476.96" y2="60.16" stroke="rgba(255,255,255,0.82)" stroke-width="1.29" stroke-linecap="round"/><line x1="463.50" y1="51.25" x2="469.84" y2="62.95" stroke="rgba(255,255,255,0.82)" stroke-width="1.29" stroke-linecap="round"/></g><g transform="translate(-512.00,0.00)"><line x1="456.38" y1="54.04" x2="476.96" y2="60.16" stroke="rgba(255,255,255,0.82)" stroke-width="1.29" stroke-linecap="round"/><line x1="463.50" y1="51.25" x2="469.84" y2="62.95" stroke="rgba(255,255,255,0.82)" stroke-width="1.29" stroke-linecap="round"/></g><g transform="translate(-512.00,512.00)"><line x1="456.38" y1="54.04" x2="476.96" y2="60.16" stroke="rgba(255,255,255,0.82)" stroke-width="1.29" stroke-linecap="round"/><line x1="463.50" y1="51.25" x2="469.84" y2="62.95" stroke="rgba(255,255,255,0.82)" stroke-width="1.29" stroke-linecap="round"/></g><g transform="translate(0.00,-512.00)"><line x1="456.38" y1="54.04" x2="476.96" y2="60.16" stroke="rgba(255,255,255,0.82)" stroke-width="1.29" stroke-linecap="round"/><line x1="463.50" y1="51.25" x2="469.84" y2="62.95" stroke="rgba(255,255,255,0.82)" stroke-width="1.29" stroke-linecap="round"/></g><g transform="translate(0.00,0.00)"><line x1="456.38" y1="54.04" x2="476.96" y2="60.16" stroke="rgba(255,255,255,0.82)" stroke-width="1.29" stroke-linecap="round"/><line x1="463.50" y1="51.25" x2="469.84" y2="62.95" stroke="rgba(255,255,255,0.82)" stroke-width="1.29" stroke-linecap="round"/></g><g transform="translate(0.00,512.00)"><line x1="456.38" y1="54.04" x2="476.96" y2="60.16" stroke="rgba(255,255,255,0.82)" stroke-width="1.29" stroke-linecap="round"/><line x1="463.50" y1="51.25" x2="469.84" y2="62.95" stroke="rgba(255,255,255,0.82)" stroke-width="1.29" stroke-linecap="round"/></g><g transform="translate(512.00,-512.00)"><line x1="456.38" y1="54.04" x2="476.96" y2="60.16" stroke="rgba(255,255,255,0.82)" stroke-width="1.29" stroke-linecap="round"/><line x1="463.50" y1="51.25" x2="469.84" y2="62.95" stroke="rgba(255,255,255,0.82)" stroke-width="1.29" stroke-linecap="round"/></g><g transform="translate(512.00,0.00)"><line x1="456.38" y1="54.04" x2="476.96" y2="60.16" stroke="rgba(255,255,255,0.82)" stroke-width="1.29" stroke-linecap="round"/><line x1="463.50" y1="51.25" x2="469.84" y2="62.95" stroke="rgba(255,255,255,0.82)" stroke-width="1.29" stroke-linecap="round"/></g><g transform="translate(512.00,512.00)"><line x1="456.38" y1="54.04" x2="476.96" y2="60.16" stroke="rgba(255,255,255,0.82)" stroke-width="1.29" stroke-linecap="round"/><line x1="463.50" y1="51.25" x2="469.84" y2="62.95" stroke="rgba(255,255,255,0.82)" stroke-width="1.29" stroke-linecap="round"/></g><g transform="translate(-512.00,-512.00)"><circle cx="35.41" cy="149.39" r="2.66" fill="rgba(255,255,255,0.56)"/><circle cx="43.52" cy="151.60" r="2.36" fill="rgba(255,255,255,0.56)"/><circle cx="51.20" cy="149.83" r="2.07" fill="rgba(255,255,255,0.56)"/><circle cx="41.75" cy="157.80" r="1.77" fill="rgba(255,255,255,0.56)"/></g><g transform="translate(-512.00,0.00)"><circle cx="35.41" cy="149.39" r="2.66" fill="rgba(255,255,255,0.56)"/><circle cx="43.52" cy="151.60" r="2.36" fill="rgba(255,255,255,0.56)"/><circle cx="51.20" cy="149.83" r="2.07" fill="rgba(255,255,255,0.56)"/><circle cx="41.75" cy="157.80" r="1.77" fill="rgba(255,255,255,0.56)"/></g><g transform="translate(-512.00,512.00)"><circle cx="35.41" cy="149.39" r="2.66" fill="rgba(255,255,255,0.56)"/><circle cx="43.52" cy="151.60" r="2.36" fill="rgba(255,255,255,0.56)"/><circle cx="51.20" cy="149.83" r="2.07" fill="rgba(255,255,255,0.56)"/><circle cx="41.75" cy="157.80" r="1.77" fill="rgba(255,255,255,0.56)"/></g><g transform="translate(0.00,-512.00)"><circle cx="35.41" cy="149.39" r="2.66" fill="rgba(255,255,255,0.56)"/><circle cx="43.52" cy="151.60" r="2.36" fill="rgba(255,255,255,0.56)"/><circle cx="51.20" cy="149.83" r="2.07" fill="rgba(255,255,255,0.56)"/><circle cx="41.75" cy="157.80" r="1.77" fill="rgba(255,255,255,0.56)"/></g><g transform="translate(0.00,0.00)"><circle cx="35.41" cy="149.39" r="2.66" fill="rgba(255,255,255,0.56)"/><circle cx="43.52" cy="151.60" r="2.36" fill="rgba(255,255,255,0.56)"/><circle cx="51.20" cy="149.83" r="2.07" fill="rgba(255,255,255,0.56)"/><circle cx="41.75" cy="157.80" r="1.77" fill="rgba(255,255,255,0.56)"/></g><g transform="translate(0.00,512.00)"><circle cx="35.41" cy="149.39" r="2.66" fill="rgba(255,255,255,0.56)"/><circle cx="43.52" cy="151.60" r="2.36" fill="rgba(255,255,255,0.56)"/><circle cx="51.20" cy="149.83" r="2.07" fill="rgba(255,255,255,0.56)"/><circle cx="41.75" cy="157.80" r="1.77" fill="rgba(255,255,255,0.56)"/></g><g transform="translate(512.00,-512.00)"><circle cx="35.41" cy="149.39" r="2.66" fill="rgba(255,255,255,0.56)"/><circle cx="43.52" cy="151.60" r="2.36" fill="rgba(255,255,255,0.56)"/><circle cx="51.20" cy="149.83" r="2.07" fill="rgba(255,255,255,0.56)"/><circle cx="41.75" cy="157.80" r="1.77" fill="rgba(255,255,255,0.56)"/></g><g transform="translate(512.00,0.00)"><circle cx="35.41" cy="149.39" r="2.66" fill="rgba(255,255,255,0.56)"/><circle cx="43.52" cy="151.60" r="2.36" fill="rgba(255,255,255,0.56)"/><circle cx="51.20" cy="149.83" r="2.07" fill="rgba(255,255,255,0.56)"/><circle cx="41.75" cy="157.80" r="1.77" fill="rgba(255,255,255,0.56)"/></g><g transform="translate(512.00,512.00)"><circle cx="35.41" cy="149.39" r="2.66" fill="rgba(255,255,255,0.56)"/><circle cx="43.52" cy="151.60" r="2.36" fill="rgba(255,255,255,0.56)"/><circle cx="51.20" cy="149.83" r="2.07" fill="rgba(255,255,255,0.56)"/><circle cx="41.75" cy="157.80" r="1.77" fill="rgba(255,255,255,0.56)"/></g><g transform="translate(-512.00,-512.00)"><path d="M 134.01,139.47 Q 143.80,135.73 148.11,149.14 Q 159.18,144.09 164.51,156.97" fill="none" stroke="rgba(255,255,255,0.723)" stroke-width="1.91" stroke-linecap="round" stroke-linejoin="round"/></g><g transform="translate(-512.00,0.00)"><path d="M 134.01,139.47 Q 143.80,135.73 148.11,149.14 Q 159.18,144.09 164.51,156.97" fill="none" stroke="rgba(255,255,255,0.723)" stroke-width="1.91" stroke-linecap="round" stroke-linejoin="round"/></g><g transform="translate(-512.00,512.00)"><path d="M 134.01,139.47 Q 143.80,135.73 148.11,149.14 Q 159.18,144.09 164.51,156.97" fill="none" stroke="rgba(255,255,255,0.723)" stroke-width="1.91" stroke-linecap="round" stroke-linejoin="round"/></g><g transform="translate(0.00,-512.00)"><path d="M 134.01,139.47 Q 143.80,135.73 148.11,149.14 Q 159.18,144.09 164.51,156.97" fill="none" stroke="rgba(255,255,255,0.723)" stroke-width="1.91" stroke-linecap="round" stroke-linejoin="round"/></g><g transform="translate(0.00,0.00)"><path d="M 134.01,139.47 Q 143.80,135.73 148.11,149.14 Q 159.18,144.09 164.51,156.97" fill="none" stroke="rgba(255,255,255,0.723)" stroke-width="1.91" stroke-linecap="round" stroke-linejoin="round"/></g><g transform="translate(0.00,512.00)"><path d="M 134.01,139.47 Q 143.80,135.73 148.11,149.14 Q 159.18,144.09 164.51,156.97" fill="none" stroke="rgba(255,255,255,0.723)" stroke-width="1.91" stroke-linecap="round" stroke-linejoin="round"/></g><g transform="translate(512.00,-512.00)"><path d="M 134.01,139.47 Q 143.80,135.73 148.11,149.14 Q 159.18,144.09 164.51,156.97" fill="none" stroke="rgba(255,255,255,0.723)" stroke-width="1.91" stroke-linecap="round" stroke-linejoin="round"/></g><g transform="translate(512.00,0.00)"><path d="M 134.01,139.47 Q 143.80,135.73 148.11,149.14 Q 159.18,144.09 164.51,156.97" fill="none" stroke="rgba(255,255,255,0.723)" stroke-width="1.91" stroke-linecap="round" stroke-linejoin="round"/></g><g transform="translate(512.00,512.00)"><path d="M 134.01,139.47 Q 143.80,135.73 148.11,149.14 Q 159.18,144.09 164.51,156.97" fill="none" stroke="rgba(255,255,255,0.723)" stroke-width="1.91" stroke-linecap="round" stroke-linejoin="round"/></g><g transform="translate(-512.00,-512.00)"><path d="M 258.78,164.01 L 258.42,166.43 L 256.12,167.99 L 252.62,168.10 L 249.26,167.24 L 246.33,166.27 L 243.24,165.25 L 240.07,163.57 L 238.07,161.09 L 238.24,158.59 L 240.02,156.82 L 242.10,155.61 L 244.11,154.39 L 246.76,153.34 L 250.31,153.35 L 253.73,154.87 L 255.91,157.23 L 257.00,159.52 L 257.94,161.65 L 258.78,164.01 Z" fill="rgba(255,255,255,0.10)" stroke="rgba(255,255,255,0.769)" stroke-width="1.86" stroke-linecap="round" stroke-linejoin="round"/></g><g transform="translate(-512.00,0.00)"><path d="M 258.78,164.01 L 258.42,166.43 L 256.12,167.99 L 252.62,168.10 L 249.26,167.24 L 246.33,166.27 L 243.24,165.25 L 240.07,163.57 L 238.07,161.09 L 238.24,158.59 L 240.02,156.82 L 242.10,155.61 L 244.11,154.39 L 246.76,153.34 L 250.31,153.35 L 253.73,154.87 L 255.91,157.23 L 257.00,159.52 L 257.94,161.65 L 258.78,164.01 Z" fill="rgba(255,255,255,0.10)" stroke="rgba(255,255,255,0.769)" stroke-width="1.86" stroke-linecap="round" stroke-linejoin="round"/></g><g transform="translate(-512.00,512.00)"><path d="M 258.78,164.01 L 258.42,166.43 L 256.12,167.99 L 252.62,168.10 L 249.26,167.24 L 246.33,166.27 L 243.24,165.25 L 240.07,163.57 L 238.07,161.09 L 238.24,158.59 L 240.02,156.82 L 242.10,155.61 L 244.11,154.39 L 246.76,153.34 L 250.31,153.35 L 253.73,154.87 L 255.91,157.23 L 257.00,159.52 L 257.94,161.65 L 258.78,164.01 Z" fill="rgba(255,255,255,0.10)" stroke="rgba(255,255,255,0.769)" stroke-width="1.86" stroke-linecap="round" stroke-linejoin="round"/></g><g transform="translate(0.00,-512.00)"><path d="M 258.78,164.01 L 258.42,166.43 L 256.12,167.99 L 252.62,168.10 L 249.26,167.24 L 246.33,166.27 L 243.24,165.25 L 240.07,163.57 L 238.07,161.09 L 238.24,158.59 L 240.02,156.82 L 242.10,155.61 L 244.11,154.39 L 246.76,153.34 L 250.31,153.35 L 253.73,154.87 L 255.91,157.23 L 257.00,159.52 L 257.94,161.65 L 258.78,164.01 Z" fill="rgba(255,255,255,0.10)" stroke="rgba(255,255,255,0.769)" stroke-width="1.86" stroke-linecap="round" stroke-linejoin="round"/></g><g transform="translate(0.00,0.00)"><path d="M 258.78,164.01 L 258.42,166.43 L 256.12,167.99 L 252.62,168.10 L 249.26,167.24 L 246.33,166.27 L 243.24,165.25 L 240.07,163.57 L 238.07,161.09 L 238.24,158.59 L 240.02,156.82 L 242.10,155.61 L 244.11,154.39 L 246.76,153.34 L 250.31,153.35 L 253.73,154.87 L 255.91,157.23 L 257.00,159.52 L 257.94,161.65 L 258.78,164.01 Z" fill="rgba(255,255,255,0.10)" stroke="rgba(255,255,255,0.769)" stroke-width="1.86" stroke-linecap="round" stroke-linejoin="round"/></g><g transform="translate(0.00,512.00)"><path d="M 258.78,164.01 L 258.42,166.43 L 256.12,167.99 L 252.62,168.10 L 249.26,167.24 L 246.33,166.27 L 243.24,165.25 L 240.07,163.57 L 238.07,161.09 L 238.24,158.59 L 240.02,156.82 L 242.10,155.61 L 244.11,154.39 L 246.76,153.34 L 250.31,153.35 L 253.73,154.87 L 255.91,157.23 L 257.00,159.52 L 257.94,161.65 L 258.78,164.01 Z" fill="rgba(255,255,255,0.10)" stroke="rgba(255,255,255,0.769)" stroke-width="1.86" stroke-linecap="round" stroke-linejoin="round"/></g><g transform="translate(512.00,-512.00)"><path d="M 258.78,164.01 L 258.42,166.43 L 256.12,167.99 L 252.62,168.10 L 249.26,167.24 L 246.33,166.27 L 243.24,165.25 L 240.07,163.57 L 238.07,161.09 L 238.24,158.59 L 240.02,156.82 L 242.10,155.61 L 244.11,154.39 L 246.76,153.34 L 250.31,153.35 L 253.73,154.87 L 255.91,157.23 L 257.00,159.52 L 257.94,161.65 L 258.78,164.01 Z" fill="rgba(255,255,255,0.10)" stroke="rgba(255,255,255,0.769)" stroke-width="1.86" stroke-linecap="round" stroke-linejoin="round"/></g><g transform="translate(512.00,0.00)"><path d="M 258.78,164.01 L 258.42,166.43 L 256.12,167.99 L 252.62,168.10 L 249.26,167.24 L 246.33,166.27 L 243.24,165.25 L 240.07,163.57 L 238.07,161.09 L 238.24,158.59 L 240.02,156.82 L 242.10,155.61 L 244.11,154.39 L 246.76,153.34 L 250.31,153.35 L 253.73,154.87 L 255.91,157.23 L 257.00,159.52 L 257.94,161.65 L 258.78,164.01 Z" fill="rgba(255,255,255,0.10)" stroke="rgba(255,255,255,0.769)" stroke-width="1.86" stroke-linecap="round" stroke-linejoin="round"/></g><g transform="translate(512.00,512.00)"><path d="M 258.78,164.01 L 258.42,166.43 L 256.12,167.99 L 252.62,168.10 L 249.26,167.24 L 246.33,166.27 L 243.24,165.25 L 240.07,163.57 L 238.07,161.09 L 238.24,158.59 L 240.02,156.82 L 242.10,155.61 L 244.11,154.39 L 246.76,153.34 L 250.31,153.35 L 253.73,154.87 L 255.91,157.23 L 257.00,159.52 L 257.94,161.65 L 258.78,164.01 Z" fill="rgba(255,255,255,0.10)" stroke="rgba(255,255,255,0.769)" stroke-width="1.86" stroke-linecap="round" stroke-linejoin="round"/></g><g transform="translate(-512.00,-512.00)"><path d="M 342.64,158.90 Q 355.59,148.00 365.01,152.43 Q 366.76,158.11 368.89,165.05" fill="none" stroke="rgba(255,255,255,0.920)" stroke-width="2.28" stroke-linecap="round" stroke-linejoin="round"/></g><g transform="translate(-512.00,0.00)"><path d="M 342.64,158.90 Q 355.59,148.00 365.01,152.43 Q 366.76,158.11 368.89,165.05" fill="none" stroke="rgba(255,255,255,0.920)" stroke-width="2.28" stroke-linecap="round" stroke-linejoin="round"/></g><g transform="translate(-512.00,512.00)"><path d="M 342.64,158.90 Q 355.59,148.00 365.01,152.43 Q 366.76,158.11 368.89,165.05" fill="none" stroke="rgba(255,255,255,0.920)" stroke-width="2.28" stroke-linecap="round" stroke-linejoin="round"/></g><g transform="translate(0.00,-512.00)"><path d="M 342.64,158.90 Q 355.59,148.00 365.01,152.43 Q 366.76,158.11 368.89,165.05" fill="none" stroke="rgba(255,255,255,0.920)" stroke-width="2.28" stroke-linecap="round" stroke-linejoin="round"/></g><g transform="translate(0.00,0.00)"><path d="M 342.64,158.90 Q 355.59,148.00 365.01,152.43 Q 366.76,158.11 368.89,165.05" fill="none" stroke="rgba(255,255,255,0.920)" stroke-width="2.28" stroke-linecap="round" stroke-linejoin="round"/></g><g transform="translate(0.00,512.00)"><path d="M 342.64,158.90 Q 355.59,148.00 365.01,152.43 Q 366.76,158.11 368.89,165.05" fill="none" stroke="rgba(255,255,255,0.920)" stroke-width="2.28" stroke-linecap="round" stroke-linejoin="round"/></g><g transform="translate(512.00,-512.00)"><path d="M 342.64,158.90 Q 355.59,148.00 365.01,152.43 Q 366.76,158.11 368.89,165.05" fill="none" stroke="rgba(255,255,255,0.920)" stroke-width="2.28" stroke-linecap="round" stroke-linejoin="round"/></g><g transform="translate(512.00,0.00)"><path d="M 342.64,158.90 Q 355.59,148.00 365.01,152.43 Q 366.76,158.11 368.89,165.05" fill="none" stroke="rgba(255,255,255,0.920)" stroke-width="2.28" stroke-linecap="round" stroke-linejoin="round"/></g><g transform="translate(512.00,512.00)"><path d="M 342.64,158.90 Q 355.59,148.00 365.01,152.43 Q 366.76,158.11 368.89,165.05" fill="none" stroke="rgba(255,255,255,0.920)" stroke-width="2.28" stroke-linecap="round" stroke-linejoin="round"/></g><g transform="translate(-512.00,-512.00)"><path d="M 439.08,155.13 L 446.18,163.66 L 454.36,156.71 L 461.46,165.24 L 469.99,158.14 L 476.34,165.08 " fill="none" stroke="rgba(255,255,255,0.880)" stroke-width="2.17" stroke-linecap="round" stroke-linejoin="round"/></g><g transform="translate(-512.00,0.00)"><path d="M 439.08,155.13 L 446.18,163.66 L 454.36,156.71 L 461.46,165.24 L 469.99,158.14 L 476.34,165.08 " fill="none" stroke="rgba(255,255,255,0.880)" stroke-width="2.17" stroke-linecap="round" stroke-linejoin="round"/></g><g transform="translate(-512.00,512.00)"><path d="M 439.08,155.13 L 446.18,163.66 L 454.36,156.71 L 461.46,165.24 L 469.99,158.14 L 476.34,165.08 " fill="none" stroke="rgba(255,255,255,0.880)" stroke-width="2.17" stroke-linecap="round" stroke-linejoin="round"/></g><g transform="translate(0.00,-512.00)"><path d="M 439.08,155.13 L 446.18,163.66 L 454.36,156.71 L 461.46,165.24 L 469.99,158.14 L 476.34,165.08 " fill="none" stroke="rgba(255,255,255,0.880)" stroke-width="2.17" stroke-linecap="round" stroke-linejoin="round"/></g><g transform="translate(0.00,0.00)"><path d="M 439.08,155.13 L 446.18,163.66 L 454.36,156.71 L 461.46,165.24 L 469.99,158.14 L 476.34,165.08 " fill="none" stroke="rgba(255,255,255,0.880)" stroke-width="2.17" stroke-linecap="round" stroke-linejoin="round"/></g><g transform="translate(0.00,512.00)"><path d="M 439.08,155.13 L 446.18,163.66 L 454.36,156.71 L 461.46,165.24 L 469.99,158.14 L 476.34,165.08 " fill="none" stroke="rgba(255,255,255,0.880)" stroke-width="2.17" stroke-linecap="round" stroke-linejoin="round"/></g><g transform="translate(512.00,-512.00)"><path d="M 439.08,155.13 L 446.18,163.66 L 454.36,156.71 L 461.46,165.24 L 469.99,158.14 L 476.34,165.08 " fill="none" stroke="rgba(255,255,255,0.880)" stroke-width="2.17" stroke-linecap="round" stroke-linejoin="round"/></g><g transform="translate(512.00,0.00)"><path d="M 439.08,155.13 L 446.18,163.66 L 454.36,156.71 L 461.46,165.24 L 469.99,158.14 L 476.34,165.08 " fill="none" stroke="rgba(255,255,255,0.880)" stroke-width="2.17" stroke-linecap="round" stroke-linejoin="round"/></g><g transform="translate(512.00,512.00)"><path d="M 439.08,155.13 L 446.18,163.66 L 454.36,156.71 L 461.46,165.24 L 469.99,158.14 L 476.34,165.08 " fill="none" stroke="rgba(255,255,255,0.880)" stroke-width="2.17" stroke-linecap="round" stroke-linejoin="round"/></g><g transform="translate(-512.00,-512.00)"><line x1="38.59" y1="250.26" x2="61.78" y2="254.31" stroke="rgba(255,255,255,0.82)" stroke-width="1.41" stroke-linecap="round"/><line x1="45.99" y1="246.31" x2="54.38" y2="258.26" stroke="rgba(255,255,255,0.82)" stroke-width="1.41" stroke-linecap="round"/></g><g transform="translate(-512.00,0.00)"><line x1="38.59" y1="250.26" x2="61.78" y2="254.31" stroke="rgba(255,255,255,0.82)" stroke-width="1.41" stroke-linecap="round"/><line x1="45.99" y1="246.31" x2="54.38" y2="258.26" stroke="rgba(255,255,255,0.82)" stroke-width="1.41" stroke-linecap="round"/></g><g transform="translate(-512.00,512.00)"><line x1="38.59" y1="250.26" x2="61.78" y2="254.31" stroke="rgba(255,255,255,0.82)" stroke-width="1.41" stroke-linecap="round"/><line x1="45.99" y1="246.31" x2="54.38" y2="258.26" stroke="rgba(255,255,255,0.82)" stroke-width="1.41" stroke-linecap="round"/></g><g transform="translate(0.00,-512.00)"><line x1="38.59" y1="250.26" x2="61.78" y2="254.31" stroke="rgba(255,255,255,0.82)" stroke-width="1.41" stroke-linecap="round"/><line x1="45.99" y1="246.31" x2="54.38" y2="258.26" stroke="rgba(255,255,255,0.82)" stroke-width="1.41" stroke-linecap="round"/></g><g transform="translate(0.00,0.00)"><line x1="38.59" y1="250.26" x2="61.78" y2="254.31" stroke="rgba(255,255,255,0.82)" stroke-width="1.41" stroke-linecap="round"/><line x1="45.99" y1="246.31" x2="54.38" y2="258.26" stroke="rgba(255,255,255,0.82)" stroke-width="1.41" stroke-linecap="round"/></g><g transform="translate(0.00,512.00)"><line x1="38.59" y1="250.26" x2="61.78" y2="254.31" stroke="rgba(255,255,255,0.82)" stroke-width="1.41" stroke-linecap="round"/><line x1="45.99" y1="246.31" x2="54.38" y2="258.26" stroke="rgba(255,255,255,0.82)" stroke-width="1.41" stroke-linecap="round"/></g><g transform="translate(512.00,-512.00)"><line x1="38.59" y1="250.26" x2="61.78" y2="254.31" stroke="rgba(255,255,255,0.82)" stroke-width="1.41" stroke-linecap="round"/><line x1="45.99" y1="246.31" x2="54.38" y2="258.26" stroke="rgba(255,255,255,0.82)" stroke-width="1.41" stroke-linecap="round"/></g><g transform="translate(512.00,0.00)"><line x1="38.59" y1="250.26" x2="61.78" y2="254.31" stroke="rgba(255,255,255,0.82)" stroke-width="1.41" stroke-linecap="round"/><line x1="45.99" y1="246.31" x2="54.38" y2="258.26" stroke="rgba(255,255,255,0.82)" stroke-width="1.41" stroke-linecap="round"/></g><g transform="translate(512.00,512.00)"><line x1="38.59" y1="250.26" x2="61.78" y2="254.31" stroke="rgba(255,255,255,0.82)" stroke-width="1.41" stroke-linecap="round"/><line x1="45.99" y1="246.31" x2="54.38" y2="258.26" stroke="rgba(255,255,255,0.82)" stroke-width="1.41" stroke-linecap="round"/></g><g transform="translate(-512.00,-512.00)"><circle cx="152.06" cy="260.23" r="2.24" fill="rgba(255,255,255,0.56)"/><circle cx="158.91" cy="262.10" r="1.99" fill="rgba(255,255,255,0.56)"/><circle cx="165.38" cy="260.60" r="1.74" fill="rgba(255,255,255,0.56)"/><circle cx="157.41" cy="267.32" r="1.49" fill="rgba(255,255,255,0.56)"/></g><g transform="translate(-512.00,0.00)"><circle cx="152.06" cy="260.23" r="2.24" fill="rgba(255,255,255,0.56)"/><circle cx="158.91" cy="262.10" r="1.99" fill="rgba(255,255,255,0.56)"/><circle cx="165.38" cy="260.60" r="1.74" fill="rgba(255,255,255,0.56)"/><circle cx="157.41" cy="267.32" r="1.49" fill="rgba(255,255,255,0.56)"/></g><g transform="translate(-512.00,512.00)"><circle cx="152.06" cy="260.23" r="2.24" fill="rgba(255,255,255,0.56)"/><circle cx="158.91" cy="262.10" r="1.99" fill="rgba(255,255,255,0.56)"/><circle cx="165.38" cy="260.60" r="1.74" fill="rgba(255,255,255,0.56)"/><circle cx="157.41" cy="267.32" r="1.49" fill="rgba(255,255,255,0.56)"/></g><g transform="translate(0.00,-512.00)"><circle cx="152.06" cy="260.23" r="2.24" fill="rgba(255,255,255,0.56)"/><circle cx="158.91" cy="262.10" r="1.99" fill="rgba(255,255,255,0.56)"/><circle cx="165.38" cy="260.60" r="1.74" fill="rgba(255,255,255,0.56)"/><circle cx="157.41" cy="267.32" r="1.49" fill="rgba(255,255,255,0.56)"/></g><g transform="translate(0.00,0.00)"><circle cx="152.06" cy="260.23" r="2.24" fill="rgba(255,255,255,0.56)"/><circle cx="158.91" cy="262.10" r="1.99" fill="rgba(255,255,255,0.56)"/><circle cx="165.38" cy="260.60" r="1.74" fill="rgba(255,255,255,0.56)"/><circle cx="157.41" cy="267.32" r="1.49" fill="rgba(255,255,255,0.56)"/></g><g transform="translate(0.00,512.00)"><circle cx="152.06" cy="260.23" r="2.24" fill="rgba(255,255,255,0.56)"/><circle cx="158.91" cy="262.10" r="1.99" fill="rgba(255,255,255,0.56)"/><circle cx="165.38" cy="260.60" r="1.74" fill="rgba(255,255,255,0.56)"/><circle cx="157.41" cy="267.32" r="1.49" fill="rgba(255,255,255,0.56)"/></g><g transform="translate(512.00,-512.00)"><circle cx="152.06" cy="260.23" r="2.24" fill="rgba(255,255,255,0.56)"/><circle cx="158.91" cy="262.10" r="1.99" fill="rgba(255,255,255,0.56)"/><circle cx="165.38" cy="260.60" r="1.74" fill="rgba(255,255,255,0.56)"/><circle cx="157.41" cy="267.32" r="1.49" fill="rgba(255,255,255,0.56)"/></g><g transform="translate(512.00,0.00)"><circle cx="152.06" cy="260.23" r="2.24" fill="rgba(255,255,255,0.56)"/><circle cx="158.91" cy="262.10" r="1.99" fill="rgba(255,255,255,0.56)"/><circle cx="165.38" cy="260.60" r="1.74" fill="rgba(255,255,255,0.56)"/><circle cx="157.41" cy="267.32" r="1.49" fill="rgba(255,255,255,0.56)"/></g><g transform="translate(512.00,512.00)"><circle cx="152.06" cy="260.23" r="2.24" fill="rgba(255,255,255,0.56)"/><circle cx="158.91" cy="262.10" r="1.99" fill="rgba(255,255,255,0.56)"/><circle cx="165.38" cy="260.60" r="1.74" fill="rgba(255,255,255,0.56)"/><circle cx="157.41" cy="267.32" r="1.49" fill="rgba(255,255,255,0.56)"/></g><g transform="translate(-512.00,-512.00)"><path d="M 237.46,244.01 Q 247.25,242.15 249.03,255.41 Q 260.23,252.53 263.07,265.47" fill="none" stroke="rgba(255,255,255,0.824)" stroke-width="2.22" stroke-linecap="round" stroke-linejoin="round"/></g><g transform="translate(-512.00,0.00)"><path d="M 237.46,244.01 Q 247.25,242.15 249.03,255.41 Q 260.23,252.53 263.07,265.47" fill="none" stroke="rgba(255,255,255,0.824)" stroke-width="2.22" stroke-linecap="round" stroke-linejoin="round"/></g><g transform="translate(-512.00,512.00)"><path d="M 237.46,244.01 Q 247.25,242.15 249.03,255.41 Q 260.23,252.53 263.07,265.47" fill="none" stroke="rgba(255,255,255,0.824)" stroke-width="2.22" stroke-linecap="round" stroke-linejoin="round"/></g><g transform="translate(0.00,-512.00)"><path d="M 237.46,244.01 Q 247.25,242.15 249.03,255.41 Q 260.23,252.53 263.07,265.47" fill="none" stroke="rgba(255,255,255,0.824)" stroke-width="2.22" stroke-linecap="round" stroke-linejoin="round"/></g><g transform="translate(0.00,0.00)"><path d="M 237.46,244.01 Q 247.25,242.15 249.03,255.41 Q 260.23,252.53 263.07,265.47" fill="none" stroke="rgba(255,255,255,0.824)" stroke-width="2.22" stroke-linecap="round" stroke-linejoin="round"/></g><g transform="translate(0.00,512.00)"><path d="M 237.46,244.01 Q 247.25,242.15 249.03,255.41 Q 260.23,252.53 263.07,265.47" fill="none" stroke="rgba(255,255,255,0.824)" stroke-width="2.22" stroke-linecap="round" stroke-linejoin="round"/></g><g transform="translate(512.00,-512.00)"><path d="M 237.46,244.01 Q 247.25,242.15 249.03,255.41 Q 260.23,252.53 263.07,265.47" fill="none" stroke="rgba(255,255,255,0.824)" stroke-width="2.22" stroke-linecap="round" stroke-linejoin="round"/></g><g transform="translate(512.00,0.00)"><path d="M 237.46,244.01 Q 247.25,242.15 249.03,255.41 Q 260.23,252.53 263.07,265.47" fill="none" stroke="rgba(255,255,255,0.824)" stroke-width="2.22" stroke-linecap="round" stroke-linejoin="round"/></g><g transform="translate(512.00,512.00)"><path d="M 237.46,244.01 Q 247.25,242.15 249.03,255.41 Q 260.23,252.53 263.07,265.47" fill="none" stroke="rgba(255,255,255,0.824)" stroke-width="2.22" stroke-linecap="round" stroke-linejoin="round"/></g><g transform="translate(-512.00,-512.00)"><path d="M 373.09,256.44 L 373.14,258.79 L 371.21,260.64 L 367.92,261.31 L 364.60,261.04 L 361.67,260.60 L 358.58,260.14 L 355.31,259.06 L 353.01,257.04 L 352.76,254.65 L 354.16,252.68 L 355.94,251.20 L 357.64,249.72 L 359.98,248.29 L 363.34,247.72 L 366.83,248.60 L 369.27,250.49 L 370.68,252.48 L 371.91,254.34 L 373.09,256.44 Z" fill="rgba(255,255,255,0.10)" stroke="rgba(255,255,255,0.729)" stroke-width="1.47" stroke-linecap="round" stroke-linejoin="round"/></g><g transform="translate(-512.00,0.00)"><path d="M 373.09,256.44 L 373.14,258.79 L 371.21,260.64 L 367.92,261.31 L 364.60,261.04 L 361.67,260.60 L 358.58,260.14 L 355.31,259.06 L 353.01,257.04 L 352.76,254.65 L 354.16,252.68 L 355.94,251.20 L 357.64,249.72 L 359.98,248.29 L 363.34,247.72 L 366.83,248.60 L 369.27,250.49 L 370.68,252.48 L 371.91,254.34 L 373.09,256.44 Z" fill="rgba(255,255,255,0.10)" stroke="rgba(255,255,255,0.729)" stroke-width="1.47" stroke-linecap="round" stroke-linejoin="round"/></g><g transform="translate(-512.00,512.00)"><path d="M 373.09,256.44 L 373.14,258.79 L 371.21,260.64 L 367.92,261.31 L 364.60,261.04 L 361.67,260.60 L 358.58,260.14 L 355.31,259.06 L 353.01,257.04 L 352.76,254.65 L 354.16,252.68 L 355.94,251.20 L 357.64,249.72 L 359.98,248.29 L 363.34,247.72 L 366.83,248.60 L 369.27,250.49 L 370.68,252.48 L 371.91,254.34 L 373.09,256.44 Z" fill="rgba(255,255,255,0.10)" stroke="rgba(255,255,255,0.729)" stroke-width="1.47" stroke-linecap="round" stroke-linejoin="round"/></g><g transform="translate(0.00,-512.00)"><path d="M 373.09,256.44 L 373.14,258.79 L 371.21,260.64 L 367.92,261.31 L 364.60,261.04 L 361.67,260.60 L 358.58,260.14 L 355.31,259.06 L 353.01,257.04 L 352.76,254.65 L 354.16,252.68 L 355.94,251.20 L 357.64,249.72 L 359.98,248.29 L 363.34,247.72 L 366.83,248.60 L 369.27,250.49 L 370.68,252.48 L 371.91,254.34 L 373.09,256.44 Z" fill="rgba(255,255,255,0.10)" stroke="rgba(255,255,255,0.729)" stroke-width="1.47" stroke-linecap="round" stroke-linejoin="round"/></g><g transform="translate(0.00,0.00)"><path d="M 373.09,256.44 L 373.14,258.79 L 371.21,260.64 L 367.92,261.31 L 364.60,261.04 L 361.67,260.60 L 358.58,260.14 L 355.31,259.06 L 353.01,257.04 L 352.76,254.65 L 354.16,252.68 L 355.94,251.20 L 357.64,249.72 L 359.98,248.29 L 363.34,247.72 L 366.83,248.60 L 369.27,250.49 L 370.68,252.48 L 371.91,254.34 L 373.09,256.44 Z" fill="rgba(255,255,255,0.10)" stroke="rgba(255,255,255,0.729)" stroke-width="1.47" stroke-linecap="round" stroke-linejoin="round"/></g><g transform="translate(0.00,512.00)"><path d="M 373.09,256.44 L 373.14,258.79 L 371.21,260.64 L 367.92,261.31 L 364.60,261.04 L 361.67,260.60 L 358.58,260.14 L 355.31,259.06 L 353.01,257.04 L 352.76,254.65 L 354.16,252.68 L 355.94,251.20 L 357.64,249.72 L 359.98,248.29 L 363.34,247.72 L 366.83,248.60 L 369.27,250.49 L 370.68,252.48 L 371.91,254.34 L 373.09,256.44 Z" fill="rgba(255,255,255,0.10)" stroke="rgba(255,255,255,0.729)" stroke-width="1.47" stroke-linecap="round" stroke-linejoin="round"/></g><g transform="translate(512.00,-512.00)"><path d="M 373.09,256.44 L 373.14,258.79 L 371.21,260.64 L 367.92,261.31 L 364.60,261.04 L 361.67,260.60 L 358.58,260.14 L 355.31,259.06 L 353.01,257.04 L 352.76,254.65 L 354.16,252.68 L 355.94,251.20 L 357.64,249.72 L 359.98,248.29 L 363.34,247.72 L 366.83,248.60 L 369.27,250.49 L 370.68,252.48 L 371.91,254.34 L 373.09,256.44 Z" fill="rgba(255,255,255,0.10)" stroke="rgba(255,255,255,0.729)" stroke-width="1.47" stroke-linecap="round" stroke-linejoin="round"/></g><g transform="translate(512.00,0.00)"><path d="M 373.09,256.44 L 373.14,258.79 L 371.21,260.64 L 367.92,261.31 L 364.60,261.04 L 361.67,260.60 L 358.58,260.14 L 355.31,259.06 L 353.01,257.04 L 352.76,254.65 L 354.16,252.68 L 355.94,251.20 L 357.64,249.72 L 359.98,248.29 L 363.34,247.72 L 366.83,248.60 L 369.27,250.49 L 370.68,252.48 L 371.91,254.34 L 373.09,256.44 Z" fill="rgba(255,255,255,0.10)" stroke="rgba(255,255,255,0.729)" stroke-width="1.47" stroke-linecap="round" stroke-linejoin="round"/></g><g transform="translate(512.00,512.00)"><path d="M 373.09,256.44 L 373.14,258.79 L 371.21,260.64 L 367.92,261.31 L 364.60,261.04 L 361.67,260.60 L 358.58,260.14 L 355.31,259.06 L 353.01,257.04 L 352.76,254.65 L 354.16,252.68 L 355.94,251.20 L 357.64,249.72 L 359.98,248.29 L 363.34,247.72 L 366.83,248.60 L 369.27,250.49 L 370.68,252.48 L 371.91,254.34 L 373.09,256.44 Z" fill="rgba(255,255,255,0.10)" stroke="rgba(255,255,255,0.729)" stroke-width="1.47" stroke-linecap="round" stroke-linejoin="round"/></g><g transform="translate(-512.00,-512.00)"><path d="M 436.02,252.99 Q 446.08,236.48 457.89,237.85 Q 461.84,243.37 466.67,250.12" fill="none" stroke="rgba(255,255,255,0.761)" stroke-width="2.18" stroke-linecap="round" stroke-linejoin="round"/></g><g transform="translate(-512.00,0.00)"><path d="M 436.02,252.99 Q 446.08,236.48 457.89,237.85 Q 461.84,243.37 466.67,250.12" fill="none" stroke="rgba(255,255,255,0.761)" stroke-width="2.18" stroke-linecap="round" stroke-linejoin="round"/></g><g transform="translate(-512.00,512.00)"><path d="M 436.02,252.99 Q 446.08,236.48 457.89,237.85 Q 461.84,243.37 466.67,250.12" fill="none" stroke="rgba(255,255,255,0.761)" stroke-width="2.18" stroke-linecap="round" stroke-linejoin="round"/></g><g transform="translate(0.00,-512.00)"><path d="M 436.02,252.99 Q 446.08,236.48 457.89,237.85 Q 461.84,243.37 466.67,250.12" fill="none" stroke="rgba(255,255,255,0.761)" stroke-width="2.18" stroke-linecap="round" stroke-linejoin="round"/></g><g transform="translate(0.00,0.00)"><path d="M 436.02,252.99 Q 446.08,236.48 457.89,237.85 Q 461.84,243.37 466.67,250.12" fill="none" stroke="rgba(255,255,255,0.761)" stroke-width="2.18" stroke-linecap="round" stroke-linejoin="round"/></g><g transform="translate(0.00,512.00)"><path d="M 436.02,252.99 Q 446.08,236.48 457.89,237.85 Q 461.84,243.37 466.67,250.12" fill="none" stroke="rgba(255,255,255,0.761)" stroke-width="2.18" stroke-linecap="round" stroke-linejoin="round"/></g><g transform="translate(512.00,-512.00)"><path d="M 436.02,252.99 Q 446.08,236.48 457.89,237.85 Q 461.84,243.37 466.67,250.12" fill="none" stroke="rgba(255,255,255,0.761)" stroke-width="2.18" stroke-linecap="round" stroke-linejoin="round"/></g><g transform="translate(512.00,0.00)"><path d="M 436.02,252.99 Q 446.08,236.48 457.89,237.85 Q 461.84,243.37 466.67,250.12" fill="none" stroke="rgba(255,255,255,0.761)" stroke-width="2.18" stroke-linecap="round" stroke-linejoin="round"/></g><g transform="translate(512.00,512.00)"><path d="M 436.02,252.99 Q 446.08,236.48 457.89,237.85 Q 461.84,243.37 466.67,250.12" fill="none" stroke="rgba(255,255,255,0.761)" stroke-width="2.18" stroke-linecap="round" stroke-linejoin="round"/></g><g transform="translate(-512.00,-512.00)"><path d="M 32.16,360.67 L 40.31,365.82 L 45.21,357.89 L 53.35,363.04 L 58.51,354.90 L 65.61,358.93 " fill="none" stroke="rgba(255,255,255,0.842)" stroke-width="2.23" stroke-linecap="round" stroke-linejoin="round"/></g><g transform="translate(-512.00,0.00)"><path d="M 32.16,360.67 L 40.31,365.82 L 45.21,357.89 L 53.35,363.04 L 58.51,354.90 L 65.61,358.93 " fill="none" stroke="rgba(255,255,255,0.842)" stroke-width="2.23" stroke-linecap="round" stroke-linejoin="round"/></g><g transform="translate(-512.00,512.00)"><path d="M 32.16,360.67 L 40.31,365.82 L 45.21,357.89 L 53.35,363.04 L 58.51,354.90 L 65.61,358.93 " fill="none" stroke="rgba(255,255,255,0.842)" stroke-width="2.23" stroke-linecap="round" stroke-linejoin="round"/></g><g transform="translate(0.00,-512.00)"><path d="M 32.16,360.67 L 40.31,365.82 L 45.21,357.89 L 53.35,363.04 L 58.51,354.90 L 65.61,358.93 " fill="none" stroke="rgba(255,255,255,0.842)" stroke-width="2.23" stroke-linecap="round" stroke-linejoin="round"/></g><g transform="translate(0.00,0.00)"><path d="M 32.16,360.67 L 40.31,365.82 L 45.21,357.89 L 53.35,363.04 L 58.51,354.90 L 65.61,358.93 " fill="none" stroke="rgba(255,255,255,0.842)" stroke-width="2.23" stroke-linecap="round" stroke-linejoin="round"/></g><g transform="translate(0.00,512.00)"><path d="M 32.16,360.67 L 40.31,365.82 L 45.21,357.89 L 53.35,363.04 L 58.51,354.90 L 65.61,358.93 " fill="none" stroke="rgba(255,255,255,0.842)" stroke-width="2.23" stroke-linecap="round" stroke-linejoin="round"/></g><g transform="translate(512.00,-512.00)"><path d="M 32.16,360.67 L 40.31,365.82 L 45.21,357.89 L 53.35,363.04 L 58.51,354.90 L 65.61,358.93 " fill="none" stroke="rgba(255,255,255,0.842)" stroke-width="2.23" stroke-linecap="round" stroke-linejoin="round"/></g><g transform="translate(512.00,0.00)"><path d="M 32.16,360.67 L 40.31,365.82 L 45.21,357.89 L 53.35,363.04 L 58.51,354.90 L 65.61,358.93 " fill="none" stroke="rgba(255,255,255,0.842)" stroke-width="2.23" stroke-linecap="round" stroke-linejoin="round"/></g><g transform="translate(512.00,512.00)"><path d="M 32.16,360.67 L 40.31,365.82 L 45.21,357.89 L 53.35,363.04 L 58.51,354.90 L 65.61,358.93 " fill="none" stroke="rgba(255,255,255,0.842)" stroke-width="2.23" stroke-linecap="round" stroke-linejoin="round"/></g><g transform="translate(-512.00,-512.00)"><line x1="144.57" y1="364.43" x2="163.60" y2="353.08" stroke="rgba(255,255,255,0.82)" stroke-width="1.33" stroke-linecap="round"/><line x1="147.42" y1="357.07" x2="160.74" y2="360.43" stroke="rgba(255,255,255,0.82)" stroke-width="1.33" stroke-linecap="round"/></g><g transform="translate(-512.00,0.00)"><line x1="144.57" y1="364.43" x2="163.60" y2="353.08" stroke="rgba(255,255,255,0.82)" stroke-width="1.33" stroke-linecap="round"/><line x1="147.42" y1="357.07" x2="160.74" y2="360.43" stroke="rgba(255,255,255,0.82)" stroke-width="1.33" stroke-linecap="round"/></g><g transform="translate(-512.00,512.00)"><line x1="144.57" y1="364.43" x2="163.60" y2="353.08" stroke="rgba(255,255,255,0.82)" stroke-width="1.33" stroke-linecap="round"/><line x1="147.42" y1="357.07" x2="160.74" y2="360.43" stroke="rgba(255,255,255,0.82)" stroke-width="1.33" stroke-linecap="round"/></g><g transform="translate(0.00,-512.00)"><line x1="144.57" y1="364.43" x2="163.60" y2="353.08" stroke="rgba(255,255,255,0.82)" stroke-width="1.33" stroke-linecap="round"/><line x1="147.42" y1="357.07" x2="160.74" y2="360.43" stroke="rgba(255,255,255,0.82)" stroke-width="1.33" stroke-linecap="round"/></g><g transform="translate(0.00,0.00)"><line x1="144.57" y1="364.43" x2="163.60" y2="353.08" stroke="rgba(255,255,255,0.82)" stroke-width="1.33" stroke-linecap="round"/><line x1="147.42" y1="357.07" x2="160.74" y2="360.43" stroke="rgba(255,255,255,0.82)" stroke-width="1.33" stroke-linecap="round"/></g><g transform="translate(0.00,512.00)"><line x1="144.57" y1="364.43" x2="163.60" y2="353.08" stroke="rgba(255,255,255,0.82)" stroke-width="1.33" stroke-linecap="round"/><line x1="147.42" y1="357.07" x2="160.74" y2="360.43" stroke="rgba(255,255,255,0.82)" stroke-width="1.33" stroke-linecap="round"/></g><g transform="translate(512.00,-512.00)"><line x1="144.57" y1="364.43" x2="163.60" y2="353.08" stroke="rgba(255,255,255,0.82)" stroke-width="1.33" stroke-linecap="round"/><line x1="147.42" y1="357.07" x2="160.74" y2="360.43" stroke="rgba(255,255,255,0.82)" stroke-width="1.33" stroke-linecap="round"/></g><g transform="translate(512.00,0.00)"><line x1="144.57" y1="364.43" x2="163.60" y2="353.08" stroke="rgba(255,255,255,0.82)" stroke-width="1.33" stroke-linecap="round"/><line x1="147.42" y1="357.07" x2="160.74" y2="360.43" stroke="rgba(255,255,255,0.82)" stroke-width="1.33" stroke-linecap="round"/></g><g transform="translate(512.00,512.00)"><line x1="144.57" y1="364.43" x2="163.60" y2="353.08" stroke="rgba(255,255,255,0.82)" stroke-width="1.33" stroke-linecap="round"/><line x1="147.42" y1="357.07" x2="160.74" y2="360.43" stroke="rgba(255,255,255,0.82)" stroke-width="1.33" stroke-linecap="round"/></g><g transform="translate(-512.00,-512.00)"><circle cx="244.26" cy="363.72" r="2.73" fill="rgba(255,255,255,0.56)"/><circle cx="252.61" cy="366.00" r="2.43" fill="rgba(255,255,255,0.56)"/><circle cx="260.51" cy="364.18" r="2.13" fill="rgba(255,255,255,0.56)"/><circle cx="250.79" cy="372.38" r="1.82" fill="rgba(255,255,255,0.56)"/></g><g transform="translate(-512.00,0.00)"><circle cx="244.26" cy="363.72" r="2.73" fill="rgba(255,255,255,0.56)"/><circle cx="252.61" cy="366.00" r="2.43" fill="rgba(255,255,255,0.56)"/><circle cx="260.51" cy="364.18" r="2.13" fill="rgba(255,255,255,0.56)"/><circle cx="250.79" cy="372.38" r="1.82" fill="rgba(255,255,255,0.56)"/></g><g transform="translate(-512.00,512.00)"><circle cx="244.26" cy="363.72" r="2.73" fill="rgba(255,255,255,0.56)"/><circle cx="252.61" cy="366.00" r="2.43" fill="rgba(255,255,255,0.56)"/><circle cx="260.51" cy="364.18" r="2.13" fill="rgba(255,255,255,0.56)"/><circle cx="250.79" cy="372.38" r="1.82" fill="rgba(255,255,255,0.56)"/></g><g transform="translate(0.00,-512.00)"><circle cx="244.26" cy="363.72" r="2.73" fill="rgba(255,255,255,0.56)"/><circle cx="252.61" cy="366.00" r="2.43" fill="rgba(255,255,255,0.56)"/><circle cx="260.51" cy="364.18" r="2.13" fill="rgba(255,255,255,0.56)"/><circle cx="250.79" cy="372.38" r="1.82" fill="rgba(255,255,255,0.56)"/></g><g transform="translate(0.00,0.00)"><circle cx="244.26" cy="363.72" r="2.73" fill="rgba(255,255,255,0.56)"/><circle cx="252.61" cy="366.00" r="2.43" fill="rgba(255,255,255,0.56)"/><circle cx="260.51" cy="364.18" r="2.13" fill="rgba(255,255,255,0.56)"/><circle cx="250.79" cy="372.38" r="1.82" fill="rgba(255,255,255,0.56)"/></g><g transform="translate(0.00,512.00)"><circle cx="244.26" cy="363.72" r="2.73" fill="rgba(255,255,255,0.56)"/><circle cx="252.61" cy="366.00" r="2.43" fill="rgba(255,255,255,0.56)"/><circle cx="260.51" cy="364.18" r="2.13" fill="rgba(255,255,255,0.56)"/><circle cx="250.79" cy="372.38" r="1.82" fill="rgba(255,255,255,0.56)"/></g><g transform="translate(512.00,-512.00)"><circle cx="244.26" cy="363.72" r="2.73" fill="rgba(255,255,255,0.56)"/><circle cx="252.61" cy="366.00" r="2.43" fill="rgba(255,255,255,0.56)"/><circle cx="260.51" cy="364.18" r="2.13" fill="rgba(255,255,255,0.56)"/><circle cx="250.79" cy="372.38" r="1.82" fill="rgba(255,255,255,0.56)"/></g><g transform="translate(512.00,0.00)"><circle cx="244.26" cy="363.72" r="2.73" fill="rgba(255,255,255,0.56)"/><circle cx="252.61" cy="366.00" r="2.43" fill="rgba(255,255,255,0.56)"/><circle cx="260.51" cy="364.18" r="2.13" fill="rgba(255,255,255,0.56)"/><circle cx="250.79" cy="372.38" r="1.82" fill="rgba(255,255,255,0.56)"/></g><g transform="translate(512.00,512.00)"><circle cx="244.26" cy="363.72" r="2.73" fill="rgba(255,255,255,0.56)"/><circle cx="252.61" cy="366.00" r="2.43" fill="rgba(255,255,255,0.56)"/><circle cx="260.51" cy="364.18" r="2.13" fill="rgba(255,255,255,0.56)"/><circle cx="250.79" cy="372.38" r="1.82" fill="rgba(255,255,255,0.56)"/></g><g transform="translate(-512.00,-512.00)"><path d="M 347.76,362.68 Q 355.53,357.24 362.27,368.06 Q 370.87,361.19 378.39,371.32" fill="none" stroke="rgba(255,255,255,0.762)" stroke-width="2.03" stroke-linecap="round" stroke-linejoin="round"/></g><g transform="translate(-512.00,0.00)"><path d="M 347.76,362.68 Q 355.53,357.24 362.27,368.06 Q 370.87,361.19 378.39,371.32" fill="none" stroke="rgba(255,255,255,0.762)" stroke-width="2.03" stroke-linecap="round" stroke-linejoin="round"/></g><g transform="translate(-512.00,512.00)"><path d="M 347.76,362.68 Q 355.53,357.24 362.27,368.06 Q 370.87,361.19 378.39,371.32" fill="none" stroke="rgba(255,255,255,0.762)" stroke-width="2.03" stroke-linecap="round" stroke-linejoin="round"/></g><g transform="translate(0.00,-512.00)"><path d="M 347.76,362.68 Q 355.53,357.24 362.27,368.06 Q 370.87,361.19 378.39,371.32" fill="none" stroke="rgba(255,255,255,0.762)" stroke-width="2.03" stroke-linecap="round" stroke-linejoin="round"/></g><g transform="translate(0.00,0.00)"><path d="M 347.76,362.68 Q 355.53,357.24 362.27,368.06 Q 370.87,361.19 378.39,371.32" fill="none" stroke="rgba(255,255,255,0.762)" stroke-width="2.03" stroke-linecap="round" stroke-linejoin="round"/></g><g transform="translate(0.00,512.00)"><path d="M 347.76,362.68 Q 355.53,357.24 362.27,368.06 Q 370.87,361.19 378.39,371.32" fill="none" stroke="rgba(255,255,255,0.762)" stroke-width="2.03" stroke-linecap="round" stroke-linejoin="round"/></g><g transform="translate(512.00,-512.00)"><path d="M 347.76,362.68 Q 355.53,357.24 362.27,368.06 Q 370.87,361.19 378.39,371.32" fill="none" stroke="rgba(255,255,255,0.762)" stroke-width="2.03" stroke-linecap="round" stroke-linejoin="round"/></g><g transform="translate(512.00,0.00)"><path d="M 347.76,362.68 Q 355.53,357.24 362.27,368.06 Q 370.87,361.19 378.39,371.32" fill="none" stroke="rgba(255,255,255,0.762)" stroke-width="2.03" stroke-linecap="round" stroke-linejoin="round"/></g><g transform="translate(512.00,512.00)"><path d="M 347.76,362.68 Q 355.53,357.24 362.27,368.06 Q 370.87,361.19 378.39,371.32" fill="none" stroke="rgba(255,255,255,0.762)" stroke-width="2.03" stroke-linecap="round" stroke-linejoin="round"/></g><g transform="translate(-512.00,-512.00)"><path d="M 477.14,363.98 L 476.19,366.45 L 473.39,367.55 L 469.68,366.84 L 466.34,365.14 L 463.48,363.43 L 460.46,361.63 L 457.51,359.11 L 455.99,356.03 L 456.75,353.43 L 459.05,351.98 L 461.53,351.20 L 463.93,350.38 L 466.98,349.90 L 470.71,350.74 L 473.97,353.15 L 475.71,356.15 L 476.32,358.83 L 476.80,361.29 L 477.14,363.98 Z" fill="rgba(255,255,255,0.10)" stroke="rgba(255,255,255,0.825)" stroke-width="1.84" stroke-linecap="round" stroke-linejoin="round"/></g><g transform="translate(-512.00,0.00)"><path d="M 477.14,363.98 L 476.19,366.45 L 473.39,367.55 L 469.68,366.84 L 466.34,365.14 L 463.48,363.43 L 460.46,361.63 L 457.51,359.11 L 455.99,356.03 L 456.75,353.43 L 459.05,351.98 L 461.53,351.20 L 463.93,350.38 L 466.98,349.90 L 470.71,350.74 L 473.97,353.15 L 475.71,356.15 L 476.32,358.83 L 476.80,361.29 L 477.14,363.98 Z" fill="rgba(255,255,255,0.10)" stroke="rgba(255,255,255,0.825)" stroke-width="1.84" stroke-linecap="round" stroke-linejoin="round"/></g><g transform="translate(-512.00,512.00)"><path d="M 477.14,363.98 L 476.19,366.45 L 473.39,367.55 L 469.68,366.84 L 466.34,365.14 L 463.48,363.43 L 460.46,361.63 L 457.51,359.11 L 455.99,356.03 L 456.75,353.43 L 459.05,351.98 L 461.53,351.20 L 463.93,350.38 L 466.98,349.90 L 470.71,350.74 L 473.97,353.15 L 475.71,356.15 L 476.32,358.83 L 476.80,361.29 L 477.14,363.98 Z" fill="rgba(255,255,255,0.10)" stroke="rgba(255,255,255,0.825)" stroke-width="1.84" stroke-linecap="round" stroke-linejoin="round"/></g><g transform="translate(0.00,-512.00)"><path d="M 477.14,363.98 L 476.19,366.45 L 473.39,367.55 L 469.68,366.84 L 466.34,365.14 L 463.48,363.43 L 460.46,361.63 L 457.51,359.11 L 455.99,356.03 L 456.75,353.43 L 459.05,351.98 L 461.53,351.20 L 463.93,350.38 L 466.98,349.90 L 470.71,350.74 L 473.97,353.15 L 475.71,356.15 L 476.32,358.83 L 476.80,361.29 L 477.14,363.98 Z" fill="rgba(255,255,255,0.10)" stroke="rgba(255,255,255,0.825)" stroke-width="1.84" stroke-linecap="round" stroke-linejoin="round"/></g><g transform="translate(0.00,0.00)"><path d="M 477.14,363.98 L 476.19,366.45 L 473.39,367.55 L 469.68,366.84 L 466.34,365.14 L 463.48,363.43 L 460.46,361.63 L 457.51,359.11 L 455.99,356.03 L 456.75,353.43 L 459.05,351.98 L 461.53,351.20 L 463.93,350.38 L 466.98,349.90 L 470.71,350.74 L 473.97,353.15 L 475.71,356.15 L 476.32,358.83 L 476.80,361.29 L 477.14,363.98 Z" fill="rgba(255,255,255,0.10)" stroke="rgba(255,255,255,0.825)" stroke-width="1.84" stroke-linecap="round" stroke-linejoin="round"/></g><g transform="translate(0.00,512.00)"><path d="M 477.14,363.98 L 476.19,366.45 L 473.39,367.55 L 469.68,366.84 L 466.34,365.14 L 463.48,363.43 L 460.46,361.63 L 457.51,359.11 L 455.99,356.03 L 456.75,353.43 L 459.05,351.98 L 461.53,351.20 L 463.93,350.38 L 466.98,349.90 L 470.71,350.74 L 473.97,353.15 L 475.71,356.15 L 476.32,358.83 L 476.80,361.29 L 477.14,363.98 Z" fill="rgba(255,255,255,0.10)" stroke="rgba(255,255,255,0.825)" stroke-width="1.84" stroke-linecap="round" stroke-linejoin="round"/></g><g transform="translate(512.00,-512.00)"><path d="M 477.14,363.98 L 476.19,366.45 L 473.39,367.55 L 469.68,366.84 L 466.34,365.14 L 463.48,363.43 L 460.46,361.63 L 457.51,359.11 L 455.99,356.03 L 456.75,353.43 L 459.05,351.98 L 461.53,351.20 L 463.93,350.38 L 466.98,349.90 L 470.71,350.74 L 473.97,353.15 L 475.71,356.15 L 476.32,358.83 L 476.80,361.29 L 477.14,363.98 Z" fill="rgba(255,255,255,0.10)" stroke="rgba(255,255,255,0.825)" stroke-width="1.84" stroke-linecap="round" stroke-linejoin="round"/></g><g transform="translate(512.00,0.00)"><path d="M 477.14,363.98 L 476.19,366.45 L 473.39,367.55 L 469.68,366.84 L 466.34,365.14 L 463.48,363.43 L 460.46,361.63 L 457.51,359.11 L 455.99,356.03 L 456.75,353.43 L 459.05,351.98 L 461.53,351.20 L 463.93,350.38 L 466.98,349.90 L 470.71,350.74 L 473.97,353.15 L 475.71,356.15 L 476.32,358.83 L 476.80,361.29 L 477.14,363.98 Z" fill="rgba(255,255,255,0.10)" stroke="rgba(255,255,255,0.825)" stroke-width="1.84" stroke-linecap="round" stroke-linejoin="round"/></g><g transform="translate(512.00,512.00)"><path d="M 477.14,363.98 L 476.19,366.45 L 473.39,367.55 L 469.68,366.84 L 466.34,365.14 L 463.48,363.43 L 460.46,361.63 L 457.51,359.11 L 455.99,356.03 L 456.75,353.43 L 459.05,351.98 L 461.53,351.20 L 463.93,350.38 L 466.98,349.90 L 470.71,350.74 L 473.97,353.15 L 475.71,356.15 L 476.32,358.83 L 476.80,361.29 L 477.14,363.98 Z" fill="rgba(255,255,255,0.10)" stroke="rgba(255,255,255,0.825)" stroke-width="1.84" stroke-linecap="round" stroke-linejoin="round"/></g><g transform="translate(-512.00,-512.00)"><path d="M 31.77,453.82 Q 47.41,442.36 57.84,448.15 Q 59.39,454.78 61.29,462.88" fill="none" stroke="rgba(255,255,255,0.913)" stroke-width="1.67" stroke-linecap="round" stroke-linejoin="round"/></g><g transform="translate(-512.00,0.00)"><path d="M 31.77,453.82 Q 47.41,442.36 57.84,448.15 Q 59.39,454.78 61.29,462.88" fill="none" stroke="rgba(255,255,255,0.913)" stroke-width="1.67" stroke-linecap="round" stroke-linejoin="round"/></g><g transform="translate(-512.00,512.00)"><path d="M 31.77,453.82 Q 47.41,442.36 57.84,448.15 Q 59.39,454.78 61.29,462.88" fill="none" stroke="rgba(255,255,255,0.913)" stroke-width="1.67" stroke-linecap="round" stroke-linejoin="round"/></g><g transform="translate(0.00,-512.00)"><path d="M 31.77,453.82 Q 47.41,442.36 57.84,448.15 Q 59.39,454.78 61.29,462.88" fill="none" stroke="rgba(255,255,255,0.913)" stroke-width="1.67" stroke-linecap="round" stroke-linejoin="round"/></g><g transform="translate(0.00,0.00)"><path d="M 31.77,453.82 Q 47.41,442.36 57.84,448.15 Q 59.39,454.78 61.29,462.88" fill="none" stroke="rgba(255,255,255,0.913)" stroke-width="1.67" stroke-linecap="round" stroke-linejoin="round"/></g><g transform="translate(0.00,512.00)"><path d="M 31.77,453.82 Q 47.41,442.36 57.84,448.15 Q 59.39,454.78 61.29,462.88" fill="none" stroke="rgba(255,255,255,0.913)" stroke-width="1.67" stroke-linecap="round" stroke-linejoin="round"/></g><g transform="translate(512.00,-512.00)"><path d="M 31.77,453.82 Q 47.41,442.36 57.84,448.15 Q 59.39,454.78 61.29,462.88" fill="none" stroke="rgba(255,255,255,0.913)" stroke-width="1.67" stroke-linecap="round" stroke-linejoin="round"/></g><g transform="translate(512.00,0.00)"><path d="M 31.77,453.82 Q 47.41,442.36 57.84,448.15 Q 59.39,454.78 61.29,462.88" fill="none" stroke="rgba(255,255,255,0.913)" stroke-width="1.67" stroke-linecap="round" stroke-linejoin="round"/></g><g transform="translate(512.00,512.00)"><path d="M 31.77,453.82 Q 47.41,442.36 57.84,448.15 Q 59.39,454.78 61.29,462.88" fill="none" stroke="rgba(255,255,255,0.913)" stroke-width="1.67" stroke-linecap="round" stroke-linejoin="round"/></g><g transform="translate(-512.00,-512.00)"><path d="M 135.25,446.44 L 138.90,457.46 L 149.52,453.82 L 153.17,464.84 L 164.19,461.19 L 167.72,470.37 " fill="none" stroke="rgba(255,255,255,0.859)" stroke-width="2.21" stroke-linecap="round" stroke-linejoin="round"/></g><g transform="translate(-512.00,0.00)"><path d="M 135.25,446.44 L 138.90,457.46 L 149.52,453.82 L 153.17,464.84 L 164.19,461.19 L 167.72,470.37 " fill="none" stroke="rgba(255,255,255,0.859)" stroke-width="2.21" stroke-linecap="round" stroke-linejoin="round"/></g><g transform="translate(-512.00,512.00)"><path d="M 135.25,446.44 L 138.90,457.46 L 149.52,453.82 L 153.17,464.84 L 164.19,461.19 L 167.72,470.37 " fill="none" stroke="rgba(255,255,255,0.859)" stroke-width="2.21" stroke-linecap="round" stroke-linejoin="round"/></g><g transform="translate(0.00,-512.00)"><path d="M 135.25,446.44 L 138.90,457.46 L 149.52,453.82 L 153.17,464.84 L 164.19,461.19 L 167.72,470.37 " fill="none" stroke="rgba(255,255,255,0.859)" stroke-width="2.21" stroke-linecap="round" stroke-linejoin="round"/></g><g transform="translate(0.00,0.00)"><path d="M 135.25,446.44 L 138.90,457.46 L 149.52,453.82 L 153.17,464.84 L 164.19,461.19 L 167.72,470.37 " fill="none" stroke="rgba(255,255,255,0.859)" stroke-width="2.21" stroke-linecap="round" stroke-linejoin="round"/></g><g transform="translate(0.00,512.00)"><path d="M 135.25,446.44 L 138.90,457.46 L 149.52,453.82 L 153.17,464.84 L 164.19,461.19 L 167.72,470.37 " fill="none" stroke="rgba(255,255,255,0.859)" stroke-width="2.21" stroke-linecap="round" stroke-linejoin="round"/></g><g transform="translate(512.00,-512.00)"><path d="M 135.25,446.44 L 138.90,457.46 L 149.52,453.82 L 153.17,464.84 L 164.19,461.19 L 167.72,470.37 " fill="none" stroke="rgba(255,255,255,0.859)" stroke-width="2.21" stroke-linecap="round" stroke-linejoin="round"/></g><g transform="translate(512.00,0.00)"><path d="M 135.25,446.44 L 138.90,457.46 L 149.52,453.82 L 153.17,464.84 L 164.19,461.19 L 167.72,470.37 " fill="none" stroke="rgba(255,255,255,0.859)" stroke-width="2.21" stroke-linecap="round" stroke-linejoin="round"/></g><g transform="translate(512.00,512.00)"><path d="M 135.25,446.44 L 138.90,457.46 L 149.52,453.82 L 153.17,464.84 L 164.19,461.19 L 167.72,470.37 " fill="none" stroke="rgba(255,255,255,0.859)" stroke-width="2.21" stroke-linecap="round" stroke-linejoin="round"/></g><g transform="translate(-512.00,-512.00)"><line x1="239.36" y1="459.03" x2="262.72" y2="452.15" stroke="rgba(255,255,255,0.82)" stroke-width="1.46" stroke-linecap="round"/><line x1="244.41" y1="451.98" x2="257.67" y2="459.20" stroke="rgba(255,255,255,0.82)" stroke-width="1.46" stroke-linecap="round"/></g><g transform="translate(-512.00,0.00)"><line x1="239.36" y1="459.03" x2="262.72" y2="452.15" stroke="rgba(255,255,255,0.82)" stroke-width="1.46" stroke-linecap="round"/><line x1="244.41" y1="451.98" x2="257.67" y2="459.20" stroke="rgba(255,255,255,0.82)" stroke-width="1.46" stroke-linecap="round"/></g><g transform="translate(-512.00,512.00)"><line x1="239.36" y1="459.03" x2="262.72" y2="452.15" stroke="rgba(255,255,255,0.82)" stroke-width="1.46" stroke-linecap="round"/><line x1="244.41" y1="451.98" x2="257.67" y2="459.20" stroke="rgba(255,255,255,0.82)" stroke-width="1.46" stroke-linecap="round"/></g><g transform="translate(0.00,-512.00)"><line x1="239.36" y1="459.03" x2="262.72" y2="452.15" stroke="rgba(255,255,255,0.82)" stroke-width="1.46" stroke-linecap="round"/><line x1="244.41" y1="451.98" x2="257.67" y2="459.20" stroke="rgba(255,255,255,0.82)" stroke-width="1.46" stroke-linecap="round"/></g><g transform="translate(0.00,0.00)"><line x1="239.36" y1="459.03" x2="262.72" y2="452.15" stroke="rgba(255,255,255,0.82)" stroke-width="1.46" stroke-linecap="round"/><line x1="244.41" y1="451.98" x2="257.67" y2="459.20" stroke="rgba(255,255,255,0.82)" stroke-width="1.46" stroke-linecap="round"/></g><g transform="translate(0.00,512.00)"><line x1="239.36" y1="459.03" x2="262.72" y2="452.15" stroke="rgba(255,255,255,0.82)" stroke-width="1.46" stroke-linecap="round"/><line x1="244.41" y1="451.98" x2="257.67" y2="459.20" stroke="rgba(255,255,255,0.82)" stroke-width="1.46" stroke-linecap="round"/></g><g transform="translate(512.00,-512.00)"><line x1="239.36" y1="459.03" x2="262.72" y2="452.15" stroke="rgba(255,255,255,0.82)" stroke-width="1.46" stroke-linecap="round"/><line x1="244.41" y1="451.98" x2="257.67" y2="459.20" stroke="rgba(255,255,255,0.82)" stroke-width="1.46" stroke-linecap="round"/></g><g transform="translate(512.00,0.00)"><line x1="239.36" y1="459.03" x2="262.72" y2="452.15" stroke="rgba(255,255,255,0.82)" stroke-width="1.46" stroke-linecap="round"/><line x1="244.41" y1="451.98" x2="257.67" y2="459.20" stroke="rgba(255,255,255,0.82)" stroke-width="1.46" stroke-linecap="round"/></g><g transform="translate(512.00,512.00)"><line x1="239.36" y1="459.03" x2="262.72" y2="452.15" stroke="rgba(255,255,255,0.82)" stroke-width="1.46" stroke-linecap="round"/><line x1="244.41" y1="451.98" x2="257.67" y2="459.20" stroke="rgba(255,255,255,0.82)" stroke-width="1.46" stroke-linecap="round"/></g><g transform="translate(-512.00,-512.00)"><circle cx="349.66" cy="452.70" r="2.76" fill="rgba(255,255,255,0.56)"/><circle cx="358.11" cy="455.00" r="2.46" fill="rgba(255,255,255,0.56)"/><circle cx="366.10" cy="453.16" r="2.15" fill="rgba(255,255,255,0.56)"/><circle cx="356.27" cy="461.45" r="1.84" fill="rgba(255,255,255,0.56)"/></g><g transform="translate(-512.00,0.00)"><circle cx="349.66" cy="452.70" r="2.76" fill="rgba(255,255,255,0.56)"/><circle cx="358.11" cy="455.00" r="2.46" fill="rgba(255,255,255,0.56)"/><circle cx="366.10" cy="453.16" r="2.15" fill="rgba(255,255,255,0.56)"/><circle cx="356.27" cy="461.45" r="1.84" fill="rgba(255,255,255,0.56)"/></g><g transform="translate(-512.00,512.00)"><circle cx="349.66" cy="452.70" r="2.76" fill="rgba(255,255,255,0.56)"/><circle cx="358.11" cy="455.00" r="2.46" fill="rgba(255,255,255,0.56)"/><circle cx="366.10" cy="453.16" r="2.15" fill="rgba(255,255,255,0.56)"/><circle cx="356.27" cy="461.45" r="1.84" fill="rgba(255,255,255,0.56)"/></g><g transform="translate(0.00,-512.00)"><circle cx="349.66" cy="452.70" r="2.76" fill="rgba(255,255,255,0.56)"/><circle cx="358.11" cy="455.00" r="2.46" fill="rgba(255,255,255,0.56)"/><circle cx="366.10" cy="453.16" r="2.15" fill="rgba(255,255,255,0.56)"/><circle cx="356.27" cy="461.45" r="1.84" fill="rgba(255,255,255,0.56)"/></g><g transform="translate(0.00,0.00)"><circle cx="349.66" cy="452.70" r="2.76" fill="rgba(255,255,255,0.56)"/><circle cx="358.11" cy="455.00" r="2.46" fill="rgba(255,255,255,0.56)"/><circle cx="366.10" cy="453.16" r="2.15" fill="rgba(255,255,255,0.56)"/><circle cx="356.27" cy="461.45" r="1.84" fill="rgba(255,255,255,0.56)"/></g><g transform="translate(0.00,512.00)"><circle cx="349.66" cy="452.70" r="2.76" fill="rgba(255,255,255,0.56)"/><circle cx="358.11" cy="455.00" r="2.46" fill="rgba(255,255,255,0.56)"/><circle cx="366.10" cy="453.16" r="2.15" fill="rgba(255,255,255,0.56)"/><circle cx="356.27" cy="461.45" r="1.84" fill="rgba(255,255,255,0.56)"/></g><g transform="translate(512.00,-512.00)"><circle cx="349.66" cy="452.70" r="2.76" fill="rgba(255,255,255,0.56)"/><circle cx="358.11" cy="455.00" r="2.46" fill="rgba(255,255,255,0.56)"/><circle cx="366.10" cy="453.16" r="2.15" fill="rgba(255,255,255,0.56)"/><circle cx="356.27" cy="461.45" r="1.84" fill="rgba(255,255,255,0.56)"/></g><g transform="translate(512.00,0.00)"><circle cx="349.66" cy="452.70" r="2.76" fill="rgba(255,255,255,0.56)"/><circle cx="358.11" cy="455.00" r="2.46" fill="rgba(255,255,255,0.56)"/><circle cx="366.10" cy="453.16" r="2.15" fill="rgba(255,255,255,0.56)"/><circle cx="356.27" cy="461.45" r="1.84" fill="rgba(255,255,255,0.56)"/></g><g transform="translate(512.00,512.00)"><circle cx="349.66" cy="452.70" r="2.76" fill="rgba(255,255,255,0.56)"/><circle cx="358.11" cy="455.00" r="2.46" fill="rgba(255,255,255,0.56)"/><circle cx="366.10" cy="453.16" r="2.15" fill="rgba(255,255,255,0.56)"/><circle cx="356.27" cy="461.45" r="1.84" fill="rgba(255,255,255,0.56)"/></g><g transform="translate(-512.00,-512.00)"><path d="M 436.83,463.72 Q 445.71,458.08 452.63,470.41 Q 462.50,463.22 470.33,474.82" fill="none" stroke="rgba(255,255,255,0.848)" stroke-width="2.39" stroke-linecap="round" stroke-linejoin="round"/></g><g transform="translate(-512.00,0.00)"><path d="M 436.83,463.72 Q 445.71,458.08 452.63,470.41 Q 462.50,463.22 470.33,474.82" fill="none" stroke="rgba(255,255,255,0.848)" stroke-width="2.39" stroke-linecap="round" stroke-linejoin="round"/></g><g transform="translate(-512.00,512.00)"><path d="M 436.83,463.72 Q 445.71,458.08 452.63,470.41 Q 462.50,463.22 470.33,474.82" fill="none" stroke="rgba(255,255,255,0.848)" stroke-width="2.39" stroke-linecap="round" stroke-linejoin="round"/></g><g transform="translate(0.00,-512.00)"><path d="M 436.83,463.72 Q 445.71,458.08 452.63,470.41 Q 462.50,463.22 470.33,474.82" fill="none" stroke="rgba(255,255,255,0.848)" stroke-width="2.39" stroke-linecap="round" stroke-linejoin="round"/></g><g transform="translate(0.00,0.00)"><path d="M 436.83,463.72 Q 445.71,458.08 452.63,470.41 Q 462.50,463.22 470.33,474.82" fill="none" stroke="rgba(255,255,255,0.848)" stroke-width="2.39" stroke-linecap="round" stroke-linejoin="round"/></g><g transform="translate(0.00,512.00)"><path d="M 436.83,463.72 Q 445.71,458.08 452.63,470.41 Q 462.50,463.22 470.33,474.82" fill="none" stroke="rgba(255,255,255,0.848)" stroke-width="2.39" stroke-linecap="round" stroke-linejoin="round"/></g><g transform="translate(512.00,-512.00)"><path d="M 436.83,463.72 Q 445.71,458.08 452.63,470.41 Q 462.50,463.22 470.33,474.82" fill="none" stroke="rgba(255,255,255,0.848)" stroke-width="2.39" stroke-linecap="round" stroke-linejoin="round"/></g><g transform="translate(512.00,0.00)"><path d="M 436.83,463.72 Q 445.71,458.08 452.63,470.41 Q 462.50,463.22 470.33,474.82" fill="none" stroke="rgba(255,255,255,0.848)" stroke-width="2.39" stroke-linecap="round" stroke-linejoin="round"/></g><g transform="translate(512.00,512.00)"><path d="M 436.83,463.72 Q 445.71,458.08 452.63,470.41 Q 462.50,463.22 470.33,474.82" fill="none" stroke="rgba(255,255,255,0.848)" stroke-width="2.39" stroke-linecap="round" stroke-linejoin="round"/></g>
</svg>
