<svg xmlns="http://www.w3.org/2000/svg" width="512" height="512" viewBox="0 0 512 512" role="img" aria-label="Seamless hearts pattern tile">
  <rect data-bg="solid" x="0" y="0" width="512" height="512" fill="#FFFFFF" />
  <rect width="512" height="512" fill="#F5F5F3"/><circle cx="343.03" cy="168.74" r="0.25" fill="rgb(228,228,228)" opacity="0.094"/><circle cx="404.10" cy="201.50" r="0.45" fill="rgb(227,227,227)" opacity="0.098"/><circle cx="193.72" cy="253.07" r="0.37" fill="rgb(235,235,235)" opacity="0.103"/><circle cx="364.07" cy="430.12" r="0.35" fill="rgb(227,227,227)" opacity="0.095"/><circle cx="293.05" cy="47.36" r="0.29" fill="rgb(235,235,235)" opacity="0.065"/><circle cx="61.63" cy="503.20" r="0.34" fill="rgb(234,234,234)" opacity="0.087"/><circle cx="286.25" cy="366.08" r="0.47" fill="rgb(229,229,229)" opacity="0.073"/><circle cx="432.15" cy="349.61" r="0.31" fill="rgb(228,228,228)" opacity="0.094"/><circle cx="367.54" cy="510.46" r="0.35" fill="rgb(227,227,227)" opacity="0.119"/><circle cx="237.12" cy="423.25" r="0.37" fill="rgb(227,227,227)" opacity="0.084"/><circle cx="260.66" cy="498.03" r="0.37" fill="rgb(229,229,229)" opacity="0.119"/><circle cx="83.69" cy="177.78" r="0.22" fill="rgb(236,236,236)" opacity="0.091"/><circle cx="427.77" cy="299.71" r="0.52" fill="rgb(228,228,228)" opacity="0.115"/><circle cx="439.01" cy="437.81" r="0.45" fill="rgb(230,230,230)" opacity="0.102"/><circle cx="368.61" cy="284.79" r="0.53" fill="rgb(234,234,234)" opacity="0.061"/><circle cx="436.91" cy="254.62" r="0.35" fill="rgb(227,227,227)" opacity="0.118"/><circle cx="462.86" cy="310.45" r="0.52" fill="rgb(236,236,236)" opacity="0.082"/><circle cx="365.17" cy="346.73" r="0.34" fill="rgb(235,235,235)" opacity="0.099"/><circle cx="70.06" cy="380.82" r="0.45" fill="rgb(233,233,233)" opacity="0.061"/><circle cx="504.07" cy="488.00" r="0.27" fill="rgb(227,227,227)" opacity="0.090"/><circle cx="74.05" cy="267.32" r="0.54" fill="rgb(228,228,228)" opacity="0.081"/><circle cx="492.77" cy="383.94" r="0.44" fill="rgb(232,232,232)" opacity="0.095"/><circle cx="280.01" cy="34.51" r="0.30" fill="rgb(233,233,233)" opacity="0.111"/><circle cx="414.72" cy="387.49" r="0.54" fill="rgb(235,235,235)" opacity="0.075"/><circle cx="264.41" cy="307.11" r="0.41" fill="rgb(233,233,233)" opacity="0.107"/><circle cx="402.12" cy="311.99" r="0.27" fill="rgb(234,234,234)" opacity="0.098"/><circle cx="144.04" cy="280.45" r="0.41" fill="rgb(229,229,229)" opacity="0.107"/><circle cx="406.01" cy="59.51" r="0.29" fill="rgb(232,232,232)" opacity="0.083"/><circle cx="90.14" cy="194.30" r="0.40" fill="rgb(227,227,227)" opacity="0.081"/><circle cx="91.17" cy="365.67" r="0.20" fill="rgb(226,226,226)" opacity="0.115"/><circle cx="165.96" cy="338.32" r="0.52" fill="rgb(234,234,234)" opacity="0.115"/><circle cx="302.12" cy="244.91" r="0.51" fill="rgb(230,230,230)" opacity="0.065"/><circle cx="53.00" cy="441.05" r="0.45" fill="rgb(234,234,234)" opacity="0.093"/><circle cx="248.88" cy="104.26" r="0.32" fill="rgb(229,229,229)" opacity="0.068"/><circle cx="126.12" cy="364.92" r="0.21" fill="rgb(227,227,227)" opacity="0.107"/><circle cx="277.52" cy="175.81" r="0.23" fill="rgb(226,226,226)" opacity="0.101"/><circle cx="85.57" cy="98.13" r="0.43" fill="rgb(229,229,229)" opacity="0.065"/><circle cx="422.14" cy="479.74" r="0.25" fill="rgb(235,235,235)" opacity="0.101"/><circle cx="410.85" cy="404.00" r="0.32" fill="rgb(235,235,235)" opacity="0.087"/><circle cx="235.48" cy="451.03" r="0.35" fill="rgb(227,227,227)" opacity="0.079"/><circle cx="126.04" cy="180.37" r="0.42" fill="rgb(236,236,236)" opacity="0.105"/><circle cx="266.02" cy="43.69" r="0.20" fill="rgb(230,230,230)" opacity="0.108"/><circle cx="313.22" cy="291.89" r="0.52" fill="rgb(234,234,234)" opacity="0.093"/><circle cx="320.67" cy="161.20" r="0.53" fill="rgb(230,230,230)" opacity="0.091"/><circle cx="269.35" cy="437.66" r="0.38" fill="rgb(229,229,229)" opacity="0.114"/><circle cx="503.74" cy="333.59" r="0.28" fill="rgb(231,231,231)" opacity="0.064"/><circle cx="0.77" cy="170.74" r="0.36" fill="rgb(235,235,235)" opacity="0.086"/><circle cx="278.88" cy="26.29" r="0.46" fill="rgb(235,235,235)" opacity="0.081"/><circle cx="356.16" cy="420.22" r="0.21" fill="rgb(231,231,231)" opacity="0.119"/><circle cx="127.64" cy="159.69" r="0.52" fill="rgb(228,228,228)" opacity="0.092"/><circle cx="331.95" cy="15.33" r="0.52" fill="rgb(228,228,228)" opacity="0.118"/><circle cx="179.91" cy="322.89" r="0.23" fill="rgb(231,231,231)" opacity="0.112"/><circle cx="74.57" cy="471.05" r="0.26" fill="rgb(235,235,235)" opacity="0.102"/><circle cx="296.28" cy="347.96" r="0.36" fill="rgb(235,235,235)" opacity="0.085"/><circle cx="243.38" cy="256.48" r="0.38" fill="rgb(234,234,234)" opacity="0.081"/><circle cx="204.91" cy="132.23" r="0.20" fill="rgb(235,235,235)" opacity="0.077"/><circle cx="457.30" cy="479.66" r="0.48" fill="rgb(228,228,228)" opacity="0.084"/><circle cx="237.49" cy="239.56" r="0.33" fill="rgb(234,234,234)" opacity="0.086"/><circle cx="485.55" cy="243.95" r="0.40" fill="rgb(235,235,235)" opacity="0.068"/><circle cx="79.97" cy="458.26" r="0.21" fill="rgb(234,234,234)" opacity="0.119"/><circle cx="323.17" cy="216.41" r="0.28" fill="rgb(231,231,231)" opacity="0.087"/><circle cx="325.84" cy="129.91" r="0.39" fill="rgb(231,231,231)" opacity="0.115"/><circle cx="308.42" cy="208.62" r="0.29" fill="rgb(234,234,234)" opacity="0.095"/><circle cx="423.23" cy="38.54" r="0.21" fill="rgb(230,230,230)" opacity="0.115"/><circle cx="320.08" cy="70.17" r="0.53" fill="rgb(228,228,228)" opacity="0.072"/><circle cx="388.01" cy="234.25" r="0.29" fill="rgb(226,226,226)" opacity="0.089"/><circle cx="182.86" cy="437.79" r="0.33" fill="rgb(226,226,226)" opacity="0.092"/><circle cx="22.17" cy="200.53" r="0.30" fill="rgb(236,236,236)" opacity="0.062"/><circle cx="416.97" cy="479.86" r="0.26" fill="rgb(229,229,229)" opacity="0.095"/><circle cx="32.63" cy="479.96" r="0.32" fill="rgb(229,229,229)" opacity="0.102"/><circle cx="31.93" cy="224.21" r="0.21" fill="rgb(230,230,230)" opacity="0.119"/><circle cx="47.76" cy="421.93" r="0.22" fill="rgb(227,227,227)" opacity="0.067"/><circle cx="468.61" cy="464.58" r="0.55" fill="rgb(231,231,231)" opacity="0.062"/><circle cx="476.27" cy="277.54" r="0.53" fill="rgb(231,231,231)" opacity="0.069"/><circle cx="203.04" cy="394.68" r="0.33" fill="rgb(234,234,234)" opacity="0.117"/><circle cx="379.01" cy="458.19" r="0.26" fill="rgb(226,226,226)" opacity="0.098"/><circle cx="175.60" cy="291.00" r="0.38" fill="rgb(231,231,231)" opacity="0.116"/><circle cx="381.38" cy="162.78" r="0.24" fill="rgb(231,231,231)" opacity="0.081"/><circle cx="215.41" cy="168.27" r="0.31" fill="rgb(235,235,235)" opacity="0.118"/><circle cx="419.75" cy="280.27" r="0.22" fill="rgb(230,230,230)" opacity="0.066"/><circle cx="156.05" cy="499.39" r="0.37" fill="rgb(234,234,234)" opacity="0.089"/><circle cx="505.59" cy="235.67" r="0.49" fill="rgb(234,234,234)" opacity="0.102"/><circle cx="52.47" cy="39.74" r="0.53" fill="rgb(229,229,229)" opacity="0.103"/><circle cx="161.81" cy="397.48" r="0.27" fill="rgb(234,234,234)" opacity="0.116"/><circle cx="384.38" cy="157.06" r="0.42" fill="rgb(226,226,226)" opacity="0.075"/><circle cx="58.34" cy="358.40" r="0.31" fill="rgb(235,235,235)" opacity="0.089"/><circle cx="457.40" cy="10.67" r="0.47" fill="rgb(235,235,235)" opacity="0.075"/><circle cx="256.03" cy="336.99" r="0.54" fill="rgb(231,231,231)" opacity="0.072"/><circle cx="242.45" cy="434.10" r="0.37" fill="rgb(233,233,233)" opacity="0.068"/><circle cx="316.38" cy="132.13" r="0.44" fill="rgb(235,235,235)" opacity="0.112"/><circle cx="460.51" cy="214.13" r="0.37" fill="rgb(232,232,232)" opacity="0.080"/><circle cx="414.52" cy="343.50" r="0.27" fill="rgb(228,228,228)" opacity="0.087"/><circle cx="404.01" cy="258.71" r="0.49" fill="rgb(230,230,230)" opacity="0.110"/><circle cx="62.47" cy="181.98" r="0.41" fill="rgb(235,235,235)" opacity="0.083"/><circle cx="137.72" cy="49.05" r="0.44" fill="rgb(234,234,234)" opacity="0.090"/><circle cx="487.00" cy="155.72" r="0.41" fill="rgb(232,232,232)" opacity="0.115"/><circle cx="308.31" cy="459.88" r="0.40" fill="rgb(235,235,235)" opacity="0.085"/><circle cx="249.93" cy="67.73" r="0.31" fill="rgb(228,228,228)" opacity="0.112"/><circle cx="440.47" cy="209.07" r="0.30" fill="rgb(235,235,235)" opacity="0.091"/><circle cx="332.20" cy="132.94" r="0.32" fill="rgb(230,230,230)" opacity="0.097"/><circle cx="361.03" cy="319.11" r="0.49" fill="rgb(228,228,228)" opacity="0.081"/><circle cx="31.99" cy="22.12" r="0.45" fill="rgb(227,227,227)" opacity="0.102"/><circle cx="396.61" cy="22.83" r="0.42" fill="rgb(235,235,235)" opacity="0.087"/><circle cx="448.24" cy="334.61" r="0.33" fill="rgb(230,230,230)" opacity="0.089"/><circle cx="57.69" cy="92.25" r="0.36" fill="rgb(230,230,230)" opacity="0.106"/><circle cx="422.62" cy="114.32" r="0.47" fill="rgb(232,232,232)" opacity="0.086"/><circle cx="420.06" cy="145.14" r="0.49" fill="rgb(230,230,230)" opacity="0.092"/><circle cx="340.72" cy="158.56" r="0.44" fill="rgb(232,232,232)" opacity="0.117"/><circle cx="463.39" cy="83.03" r="0.29" fill="rgb(234,234,234)" opacity="0.104"/><circle cx="229.48" cy="374.58" r="0.53" fill="rgb(227,227,227)" opacity="0.073"/><circle cx="313.88" cy="27.14" r="0.22" fill="rgb(229,229,229)" opacity="0.084"/><circle cx="205.17" cy="164.26" r="0.44" fill="rgb(230,230,230)" opacity="0.119"/><circle cx="195.11" cy="450.53" r="0.34" fill="rgb(236,236,236)" opacity="0.120"/><circle cx="98.50" cy="395.42" r="0.28" fill="rgb(228,228,228)" opacity="0.101"/><circle cx="202.33" cy="4.72" r="0.28" fill="rgb(233,233,233)" opacity="0.085"/><circle cx="160.39" cy="28.44" r="0.25" fill="rgb(229,229,229)" opacity="0.106"/><circle cx="127.05" cy="434.91" r="0.31" fill="rgb(228,228,228)" opacity="0.063"/><circle cx="505.51" cy="313.57" r="0.36" fill="rgb(229,229,229)" opacity="0.066"/><circle cx="404.28" cy="109.80" r="0.43" fill="rgb(232,232,232)" opacity="0.104"/><circle cx="439.29" cy="333.65" r="0.31" fill="rgb(229,229,229)" opacity="0.099"/><circle cx="127.79" cy="312.67" r="0.25" fill="rgb(233,233,233)" opacity="0.104"/><circle cx="347.09" cy="370.14" r="0.34" fill="rgb(231,231,231)" opacity="0.111"/><circle cx="58.66" cy="390.79" r="0.39" fill="rgb(230,230,230)" opacity="0.077"/><circle cx="428.10" cy="152.73" r="0.25" fill="rgb(226,226,226)" opacity="0.104"/><circle cx="3.25" cy="169.96" r="0.33" fill="rgb(236,236,236)" opacity="0.098"/><circle cx="445.28" cy="310.78" r="0.20" fill="rgb(228,228,228)" opacity="0.067"/><circle cx="266.38" cy="281.97" r="0.32" fill="rgb(230,230,230)" opacity="0.098"/><circle cx="174.24" cy="476.75" r="0.25" fill="rgb(235,235,235)" opacity="0.110"/><circle cx="128.99" cy="175.72" r="0.43" fill="rgb(226,226,226)" opacity="0.082"/><circle cx="401.96" cy="278.73" r="0.49" fill="rgb(227,227,227)" opacity="0.092"/><circle cx="508.18" cy="186.26" r="0.55" fill="rgb(228,228,228)" opacity="0.109"/><circle cx="377.42" cy="400.07" r="0.32" fill="rgb(233,233,233)" opacity="0.068"/><circle cx="193.45" cy="232.56" r="0.39" fill="rgb(236,236,236)" opacity="0.117"/><circle cx="322.18" cy="500.34" r="0.40" fill="rgb(226,226,226)" opacity="0.074"/><circle cx="318.80" cy="87.71" r="0.24" fill="rgb(228,228,228)" opacity="0.091"/><circle cx="159.23" cy="337.75" r="0.25" fill="rgb(230,230,230)" opacity="0.064"/><circle cx="171.79" cy="121.31" r="0.26" fill="rgb(227,227,227)" opacity="0.119"/><circle cx="331.25" cy="294.31" r="0.45" fill="rgb(227,227,227)" opacity="0.069"/><circle cx="170.85" cy="307.30" r="0.46" fill="rgb(228,228,228)" opacity="0.075"/><circle cx="196.52" cy="504.15" r="0.35" fill="rgb(230,230,230)" opacity="0.070"/><circle cx="290.26" cy="459.49" r="0.48" fill="rgb(231,231,231)" opacity="0.102"/><circle cx="269.18" cy="156.69" r="0.36" fill="rgb(234,234,234)" opacity="0.105"/><circle cx="136.29" cy="344.41" r="0.36" fill="rgb(226,226,226)" opacity="0.104"/><circle cx="241.50" cy="378.32" r="0.20" fill="rgb(233,233,233)" opacity="0.069"/><circle cx="187.71" cy="396.13" r="0.39" fill="rgb(233,233,233)" opacity="0.066"/><circle cx="51.18" cy="508.98" r="0.42" fill="rgb(231,231,231)" opacity="0.093"/><circle cx="499.17" cy="68.50" r="0.41" fill="rgb(228,228,228)" opacity="0.093"/><circle cx="422.83" cy="42.96" r="0.46" fill="rgb(230,230,230)" opacity="0.088"/><circle cx="369.67" cy="286.01" r="0.40" fill="rgb(236,236,236)" opacity="0.108"/><circle cx="410.66" cy="80.46" r="0.35" fill="rgb(227,227,227)" opacity="0.088"/><circle cx="327.58" cy="349.11" r="0.42" fill="rgb(231,231,231)" opacity="0.111"/><circle cx="135.83" cy="222.98" r="0.24" fill="rgb(229,229,229)" opacity="0.101"/><circle cx="281.39" cy="62.09" r="0.44" fill="rgb(228,228,228)" opacity="0.119"/><circle cx="484.72" cy="133.23" r="0.21" fill="rgb(227,227,227)" opacity="0.062"/><circle cx="107.37" cy="489.58" r="0.30" fill="rgb(235,235,235)" opacity="0.117"/><circle cx="468.46" cy="4.71" r="0.49" fill="rgb(234,234,234)" opacity="0.104"/><circle cx="23.82" cy="435.52" r="0.24" fill="rgb(227,227,227)" opacity="0.076"/><circle cx="274.87" cy="190.49" r="0.38" fill="rgb(229,229,229)" opacity="0.086"/><circle cx="404.54" cy="381.34" r="0.47" fill="rgb(229,229,229)" opacity="0.106"/><circle cx="503.55" cy="429.62" r="0.35" fill="rgb(232,232,232)" opacity="0.104"/><path d="M -467.97,-459.18 L -471.36,-466.70 L -463.69,-471.07 L -456.90,-464.54 L -456.11,-461.42 L -454.45,-464.18 L -446.05,-468.44 L -439.99,-462.03 L -445.42,-455.82 L -458.81,-443.29 L -467.97,-459.18" fill="none" stroke="rgb(125,125,125)" stroke-width="2.40" stroke-linecap="round" stroke-linejoin="round" opacity="0.825"/><path d="M -467.97,52.82 L -471.36,45.30 L -463.69,40.93 L -456.90,47.46 L -456.11,50.58 L -454.45,47.82 L -446.05,43.56 L -439.99,49.97 L -445.42,56.18 L -458.81,68.71 L -467.97,52.82" fill="none" stroke="rgb(125,125,125)" stroke-width="2.40" stroke-linecap="round" stroke-linejoin="round" opacity="0.825"/><path d="M -467.97,564.82 L -471.36,557.30 L -463.69,552.93 L -456.90,559.46 L -456.11,562.58 L -454.45,559.82 L -446.05,555.56 L -439.99,561.97 L -445.42,568.18 L -458.81,580.71 L -467.97,564.82" fill="none" stroke="rgb(125,125,125)" stroke-width="2.40" stroke-linecap="round" stroke-linejoin="round" opacity="0.825"/><path d="M 44.03,-459.18 L 40.64,-466.70 L 48.31,-471.07 L 55.10,-464.54 L 55.89,-461.42 L 57.55,-464.18 L 65.95,-468.44 L 72.01,-462.03 L 66.58,-455.82 L 53.19,-443.29 L 44.03,-459.18" fill="none" stroke="rgb(125,125,125)" stroke-width="2.40" stroke-linecap="round" stroke-linejoin="round" opacity="0.825"/><path d="M 44.03,52.82 L 40.64,45.30 L 48.31,40.93 L 55.10,47.46 L 55.89,50.58 L 57.55,47.82 L 65.95,43.56 L 72.01,49.97 L 66.58,56.18 L 53.19,68.71 L 44.03,52.82" fill="none" stroke="rgb(125,125,125)" stroke-width="2.40" stroke-linecap="round" stroke-linejoin="round" opacity="0.825"/><path d="M 44.03,564.82 L 40.64,557.30 L 48.31,552.93 L 55.10,559.46 L 55.89,562.58 L 57.55,559.82 L 65.95,555.56 L 72.01,561.97 L 66.58,568.18 L 53.19,580.71 L 44.03,564.82" fill="none" stroke="rgb(125,125,125)" stroke-width="2.40" stroke-linecap="round" stroke-linejoin="round" opacity="0.825"/><path d="M 556.03,-459.18 L 552.64,-466.70 L 560.31,-471.07 L 567.10,-464.54 L 567.89,-461.42 L 569.55,-464.18 L 577.95,-468.44 L 584.01,-462.03 L 578.58,-455.82 L 565.19,-443.29 L 556.03,-459.18" fill="none" stroke="rgb(125,125,125)" stroke-width="2.40" stroke-linecap="round" stroke-linejoin="round" opacity="0.825"/><path d="M 556.03,52.82 L 552.64,45.30 L 560.31,40.93 L 567.10,47.46 L 567.89,50.58 L 569.55,47.82 L 577.95,43.56 L 584.01,49.97 L 578.58,56.18 L 565.19,68.71 L 556.03,52.82" fill="none" stroke="rgb(125,125,125)" stroke-width="2.40" stroke-linecap="round" stroke-linejoin="round" opacity="0.825"/><path d="M 556.03,564.82 L 552.64,557.30 L 560.31,552.93 L 567.10,559.46 L 567.89,562.58 L 569.55,559.82 L 577.95,555.56 L 584.01,561.97 L 578.58,568.18 L 565.19,580.71 L 556.03,564.82" fill="none" stroke="rgb(125,125,125)" stroke-width="2.40" stroke-linecap="round" stroke-linejoin="round" opacity="0.825"/><path d="M -364.51,-460.91 L -369.49,-467.18 L -363.32,-473.12 L -355.37,-468.60 L -353.89,-465.85 L -352.98,-468.85 L -346.09,-474.86 L -338.86,-470.27 L -342.49,-463.14 L -352.10,-448.14 L -364.51,-460.91" fill="none" stroke="rgb(130,130,130)" stroke-width="2.20" stroke-linecap="round" stroke-linejoin="round" opacity="0.834"/><path d="M -364.51,51.09 L -369.49,44.82 L -363.32,38.88 L -355.37,43.40 L -353.89,46.15 L -352.98,43.15 L -346.09,37.14 L -338.86,41.73 L -342.49,48.86 L -352.10,63.86 L -364.51,51.09" fill="none" stroke="rgb(130,130,130)" stroke-width="2.20" stroke-linecap="round" stroke-linejoin="round" opacity="0.834"/><path d="M -364.51,563.09 L -369.49,556.82 L -363.32,550.88 L -355.37,555.40 L -353.89,558.15 L -352.98,555.15 L -346.09,549.14 L -338.86,553.73 L -342.49,560.86 L -352.10,575.86 L -364.51,563.09" fill="none" stroke="rgb(130,130,130)" stroke-width="2.20" stroke-linecap="round" stroke-linejoin="round" opacity="0.834"/><path d="M 147.49,-460.91 L 142.51,-467.18 L 148.68,-473.12 L 156.63,-468.60 L 158.11,-465.85 L 159.02,-468.85 L 165.91,-474.86 L 173.14,-470.27 L 169.51,-463.14 L 159.90,-448.14 L 147.49,-460.91" fill="none" stroke="rgb(130,130,130)" stroke-width="2.20" stroke-linecap="round" stroke-linejoin="round" opacity="0.834"/><path d="M 147.49,51.09 L 142.51,44.82 L 148.68,38.88 L 156.63,43.40 L 158.11,46.15 L 159.02,43.15 L 165.91,37.14 L 173.14,41.73 L 169.51,48.86 L 159.90,63.86 L 147.49,51.09" fill="none" stroke="rgb(130,130,130)" stroke-width="2.20" stroke-linecap="round" stroke-linejoin="round" opacity="0.834"/><path d="M 147.49,563.09 L 142.51,556.82 L 148.68,550.88 L 156.63,555.40 L 158.11,558.15 L 159.02,555.15 L 165.91,549.14 L 173.14,553.73 L 169.51,560.86 L 159.90,575.86 L 147.49,563.09" fill="none" stroke="rgb(130,130,130)" stroke-width="2.20" stroke-linecap="round" stroke-linejoin="round" opacity="0.834"/><path d="M 659.49,-460.91 L 654.51,-467.18 L 660.68,-473.12 L 668.63,-468.60 L 670.11,-465.85 L 671.02,-468.85 L 677.91,-474.86 L 685.14,-470.27 L 681.51,-463.14 L 671.90,-448.14 L 659.49,-460.91" fill="none" stroke="rgb(130,130,130)" stroke-width="2.20" stroke-linecap="round" stroke-linejoin="round" opacity="0.834"/><path d="M 659.49,51.09 L 654.51,44.82 L 660.68,38.88 L 668.63,43.40 L 670.11,46.15 L 671.02,43.15 L 677.91,37.14 L 685.14,41.73 L 681.51,48.86 L 671.90,63.86 L 659.49,51.09" fill="none" stroke="rgb(130,130,130)" stroke-width="2.20" stroke-linecap="round" stroke-linejoin="round" opacity="0.834"/><path d="M 659.49,563.09 L 654.51,556.82 L 660.68,550.88 L 668.63,555.40 L 670.11,558.15 L 671.02,555.15 L 677.91,549.14 L 685.14,553.73 L 681.51,560.86 L 671.90,575.86 L 659.49,563.09" fill="none" stroke="rgb(130,130,130)" stroke-width="2.20" stroke-linecap="round" stroke-linejoin="round" opacity="0.834"/><path d="M -263.58,-465.62 L -268.75,-472.07 L -262.41,-478.23 L -254.18,-473.60 L -252.64,-470.77 L -251.71,-473.86 L -244.63,-480.10 L -237.15,-475.39 L -240.86,-468.01 L -250.71,-452.49 L -263.58,-465.62" fill="none" stroke="rgb(121,121,121)" stroke-width="2.00" stroke-linecap="round" stroke-linejoin="round" opacity="0.846"/><path d="M -263.58,46.38 L -268.75,39.93 L -262.41,33.77 L -254.18,38.40 L -252.64,41.23 L -251.71,38.14 L -244.63,31.90 L -237.15,36.61 L -240.86,43.99 L -250.71,59.51 L -263.58,46.38" fill="none" stroke="rgb(121,121,121)" stroke-width="2.00" stroke-linecap="round" stroke-linejoin="round" opacity="0.846"/><path d="M -263.58,558.38 L -268.75,551.93 L -262.41,545.77 L -254.18,550.40 L -252.64,553.23 L -251.71,550.14 L -244.63,543.90 L -237.15,548.61 L -240.86,555.99 L -250.71,571.51 L -263.58,558.38" fill="none" stroke="rgb(121,121,121)" stroke-width="2.00" stroke-linecap="round" stroke-linejoin="round" opacity="0.846"/><path d="M 248.42,-465.62 L 243.25,-472.07 L 249.59,-478.23 L 257.82,-473.60 L 259.36,-470.77 L 260.29,-473.86 L 267.37,-480.10 L 274.85,-475.39 L 271.14,-468.01 L 261.29,-452.49 L 248.42,-465.62" fill="none" stroke="rgb(121,121,121)" stroke-width="2.00" stroke-linecap="round" stroke-linejoin="round" opacity="0.846"/><path d="M 248.42,46.38 L 243.25,39.93 L 249.59,33.77 L 257.82,38.40 L 259.36,41.23 L 260.29,38.14 L 267.37,31.90 L 274.85,36.61 L 271.14,43.99 L 261.29,59.51 L 248.42,46.38" fill="none" stroke="rgb(121,121,121)" stroke-width="2.00" stroke-linecap="round" stroke-linejoin="round" opacity="0.846"/><path d="M 248.42,558.38 L 243.25,551.93 L 249.59,545.77 L 257.82,550.40 L 259.36,553.23 L 260.29,550.14 L 267.37,543.90 L 274.85,548.61 L 271.14,555.99 L 261.29,571.51 L 248.42,558.38" fill="none" stroke="rgb(121,121,121)" stroke-width="2.00" stroke-linecap="round" stroke-linejoin="round" opacity="0.846"/><path d="M 760.42,-465.62 L 755.25,-472.07 L 761.59,-478.23 L 769.82,-473.60 L 771.36,-470.77 L 772.29,-473.86 L 779.37,-480.10 L 786.85,-475.39 L 783.14,-468.01 L 773.29,-452.49 L 760.42,-465.62" fill="none" stroke="rgb(121,121,121)" stroke-width="2.00" stroke-linecap="round" stroke-linejoin="round" opacity="0.846"/><path d="M 760.42,46.38 L 755.25,39.93 L 761.59,33.77 L 769.82,38.40 L 771.36,41.23 L 772.29,38.14 L 779.37,31.90 L 786.85,36.61 L 783.14,43.99 L 773.29,59.51 L 760.42,46.38" fill="none" stroke="rgb(121,121,121)" stroke-width="2.00" stroke-linecap="round" stroke-linejoin="round" opacity="0.846"/><path d="M 760.42,558.38 L 755.25,551.93 L 761.59,545.77 L 769.82,550.40 L 771.36,553.23 L 772.29,550.14 L 779.37,543.90 L 786.85,548.61 L 783.14,555.99 L 773.29,571.51 L 760.42,558.38" fill="none" stroke="rgb(121,121,121)" stroke-width="2.00" stroke-linecap="round" stroke-linejoin="round" opacity="0.846"/><path d="M -166.65,-459.97 L -170.29,-467.41 L -162.73,-472.05 L -155.70,-465.71 L -154.81,-462.60 L -153.23,-465.42 L -144.93,-469.97 L -138.64,-463.72 L -143.89,-457.32 L -156.94,-444.30 L -166.65,-459.97" fill="none" stroke="rgb(130,130,130)" stroke-width="2.00" stroke-linecap="round" stroke-linejoin="round" opacity="0.920"/><path d="M -166.65,52.03 L -170.29,44.59 L -162.73,39.95 L -155.70,46.29 L -154.81,49.40 L -153.23,46.58 L -144.93,42.03 L -138.64,48.28 L -143.89,54.68 L -156.94,67.70 L -166.65,52.03" fill="none" stroke="rgb(130,130,130)" stroke-width="2.00" stroke-linecap="round" stroke-linejoin="round" opacity="0.920"/><path d="M -166.65,564.03 L -170.29,556.59 L -162.73,551.95 L -155.70,558.29 L -154.81,561.40 L -153.23,558.58 L -144.93,554.03 L -138.64,560.28 L -143.89,566.68 L -156.94,579.70 L -166.65,564.03" fill="none" stroke="rgb(130,130,130)" stroke-width="2.00" stroke-linecap="round" stroke-linejoin="round" opacity="0.920"/><path d="M 345.35,-459.97 L 341.71,-467.41 L 349.27,-472.05 L 356.30,-465.71 L 357.19,-462.60 L 358.77,-465.42 L 367.07,-469.97 L 373.36,-463.72 L 368.11,-457.32 L 355.06,-444.30 L 345.35,-459.97" fill="none" stroke="rgb(130,130,130)" stroke-width="2.00" stroke-linecap="round" stroke-linejoin="round" opacity="0.920"/><path d="M 345.35,52.03 L 341.71,44.59 L 349.27,39.95 L 356.30,46.29 L 357.19,49.40 L 358.77,46.58 L 367.07,42.03 L 373.36,48.28 L 368.11,54.68 L 355.06,67.70 L 345.35,52.03" fill="none" stroke="rgb(130,130,130)" stroke-width="2.00" stroke-linecap="round" stroke-linejoin="round" opacity="0.920"/><path d="M 345.35,564.03 L 341.71,556.59 L 349.27,551.95 L 356.30,558.29 L 357.19,561.40 L 358.77,558.58 L 367.07,554.03 L 373.36,560.28 L 368.11,566.68 L 355.06,579.70 L 345.35,564.03" fill="none" stroke="rgb(130,130,130)" stroke-width="2.00" stroke-linecap="round" stroke-linejoin="round" opacity="0.920"/><path d="M 857.35,-459.97 L 853.71,-467.41 L 861.27,-472.05 L 868.30,-465.71 L 869.19,-462.60 L 870.77,-465.42 L 879.07,-469.97 L 885.36,-463.72 L 880.11,-457.32 L 867.06,-444.30 L 857.35,-459.97" fill="none" stroke="rgb(130,130,130)" stroke-width="2.00" stroke-linecap="round" stroke-linejoin="round" opacity="0.920"/><path d="M 857.35,52.03 L 853.71,44.59 L 861.27,39.95 L 868.30,46.29 L 869.19,49.40 L 870.77,46.58 L 879.07,42.03 L 885.36,48.28 L 880.11,54.68 L 867.06,67.70 L 857.35,52.03" fill="none" stroke="rgb(130,130,130)" stroke-width="2.00" stroke-linecap="round" stroke-linejoin="round" opacity="0.920"/><path d="M 857.35,564.03 L 853.71,556.59 L 861.27,551.95 L 868.30,558.29 L 869.19,561.40 L 870.77,558.58 L 879.07,554.03 L 885.36,560.28 L 880.11,566.68 L 867.06,579.70 L 857.35,564.03" fill="none" stroke="rgb(130,130,130)" stroke-width="2.00" stroke-linecap="round" stroke-linejoin="round" opacity="0.920"/><path d="M -58.76,-459.78 L -62.88,-465.53 L -57.17,-470.50 L -50.35,-466.16 L -49.16,-463.66 L -48.23,-466.27 L -41.88,-471.27 L -35.70,-466.89 L -39.22,-460.75 L -48.37,-447.95 L -58.76,-459.78" fill="none" stroke="rgb(120,120,120)" stroke-width="2.20" stroke-linecap="round" stroke-linejoin="round" opacity="0.870"/><path d="M -58.76,52.22 L -62.88,46.47 L -57.17,41.50 L -50.35,45.84 L -49.16,48.34 L -48.23,45.73 L -41.88,40.73 L -35.70,45.11 L -39.22,51.25 L -48.37,64.05 L -58.76,52.22" fill="none" stroke="rgb(120,120,120)" stroke-width="2.20" stroke-linecap="round" stroke-linejoin="round" opacity="0.870"/><path d="M -58.76,564.22 L -62.88,558.47 L -57.17,553.50 L -50.35,557.84 L -49.16,560.34 L -48.23,557.73 L -41.88,552.73 L -35.70,557.11 L -39.22,563.25 L -48.37,576.05 L -58.76,564.22" fill="none" stroke="rgb(120,120,120)" stroke-width="2.20" stroke-linecap="round" stroke-linejoin="round" opacity="0.870"/><path d="M 453.24,-459.78 L 449.12,-465.53 L 454.83,-470.50 L 461.65,-466.16 L 462.84,-463.66 L 463.77,-466.27 L 470.12,-471.27 L 476.30,-466.89 L 472.78,-460.75 L 463.63,-447.95 L 453.24,-459.78" fill="none" stroke="rgb(120,120,120)" stroke-width="2.20" stroke-linecap="round" stroke-linejoin="round" opacity="0.870"/><path d="M 453.24,52.22 L 449.12,46.47 L 454.83,41.50 L 461.65,45.84 L 462.84,48.34 L 463.77,45.73 L 470.12,40.73 L 476.30,45.11 L 472.78,51.25 L 463.63,64.05 L 453.24,52.22" fill="none" stroke="rgb(120,120,120)" stroke-width="2.20" stroke-linecap="round" stroke-linejoin="round" opacity="0.870"/><path d="M 453.24,564.22 L 449.12,558.47 L 454.83,553.50 L 461.65,557.84 L 462.84,560.34 L 463.77,557.73 L 470.12,552.73 L 476.30,557.11 L 472.78,563.25 L 463.63,576.05 L 453.24,564.22" fill="none" stroke="rgb(120,120,120)" stroke-width="2.20" stroke-linecap="round" stroke-linejoin="round" opacity="0.870"/><path d="M 965.24,-459.78 L 961.12,-465.53 L 966.83,-470.50 L 973.65,-466.16 L 974.84,-463.66 L 975.77,-466.27 L 982.12,-471.27 L 988.30,-466.89 L 984.78,-460.75 L 975.63,-447.95 L 965.24,-459.78" fill="none" stroke="rgb(120,120,120)" stroke-width="2.20" stroke-linecap="round" stroke-linejoin="round" opacity="0.870"/><path d="M 965.24,52.22 L 961.12,46.47 L 966.83,41.50 L 973.65,45.84 L 974.84,48.34 L 975.77,45.73 L 982.12,40.73 L 988.30,45.11 L 984.78,51.25 L 975.63,64.05 L 965.24,52.22" fill="none" stroke="rgb(120,120,120)" stroke-width="2.20" stroke-linecap="round" stroke-linejoin="round" opacity="0.870"/><path d="M 965.24,564.22 L 961.12,558.47 L 966.83,553.50 L 973.65,557.84 L 974.84,560.34 L 975.77,557.73 L 982.12,552.73 L 988.30,557.11 L 984.78,563.25 L 975.63,576.05 L 965.24,564.22" fill="none" stroke="rgb(120,120,120)" stroke-width="2.20" stroke-linecap="round" stroke-linejoin="round" opacity="0.870"/><path d="M -471.07,-358.20 L -474.85,-364.94 L -468.05,-369.65 L -461.18,-364.11 L -460.19,-361.26 L -458.86,-363.97 L -451.37,-368.63 L -445.19,-363.14 L -449.76,-356.90 L -461.23,-344.11 L -471.07,-358.20" fill="none" stroke="rgb(127,127,127)" stroke-width="2.00" stroke-linecap="round" stroke-linejoin="round" opacity="0.822"/><path d="M -471.07,153.80 L -474.85,147.06 L -468.05,142.35 L -461.18,147.89 L -460.19,150.74 L -458.86,148.03 L -451.37,143.37 L -445.19,148.86 L -449.76,155.10 L -461.23,167.89 L -471.07,153.80" fill="none" stroke="rgb(127,127,127)" stroke-width="2.00" stroke-linecap="round" stroke-linejoin="round" opacity="0.822"/><path d="M -471.07,665.80 L -474.85,659.06 L -468.05,654.35 L -461.18,659.89 L -460.19,662.74 L -458.86,660.03 L -451.37,655.37 L -445.19,660.86 L -449.76,667.10 L -461.23,679.89 L -471.07,665.80" fill="none" stroke="rgb(127,127,127)" stroke-width="2.00" stroke-linecap="round" stroke-linejoin="round" opacity="0.822"/><path d="M 40.93,-358.20 L 37.15,-364.94 L 43.95,-369.65 L 50.82,-364.11 L 51.81,-361.26 L 53.14,-363.97 L 60.63,-368.63 L 66.81,-363.14 L 62.24,-356.90 L 50.77,-344.11 L 40.93,-358.20" fill="none" stroke="rgb(127,127,127)" stroke-width="2.00" stroke-linecap="round" stroke-linejoin="round" opacity="0.822"/><path d="M 40.93,153.80 L 37.15,147.06 L 43.95,142.35 L 50.82,147.89 L 51.81,150.74 L 53.14,148.03 L 60.63,143.37 L 66.81,148.86 L 62.24,155.10 L 50.77,167.89 L 40.93,153.80" fill="none" stroke="rgb(127,127,127)" stroke-width="2.00" stroke-linecap="round" stroke-linejoin="round" opacity="0.822"/><path d="M 40.93,665.80 L 37.15,659.06 L 43.95,654.35 L 50.82,659.89 L 51.81,662.74 L 53.14,660.03 L 60.63,655.37 L 66.81,660.86 L 62.24,667.10 L 50.77,679.89 L 40.93,665.80" fill="none" stroke="rgb(127,127,127)" stroke-width="2.00" stroke-linecap="round" stroke-linejoin="round" opacity="0.822"/><path d="M 552.93,-358.20 L 549.15,-364.94 L 555.95,-369.65 L 562.82,-364.11 L 563.81,-361.26 L 565.14,-363.97 L 572.63,-368.63 L 578.81,-363.14 L 574.24,-356.90 L 562.77,-344.11 L 552.93,-358.20" fill="none" stroke="rgb(127,127,127)" stroke-width="2.00" stroke-linecap="round" stroke-linejoin="round" opacity="0.822"/><path d="M 552.93,153.80 L 549.15,147.06 L 555.95,142.35 L 562.82,147.89 L 563.81,150.74 L 565.14,148.03 L 572.63,143.37 L 578.81,148.86 L 574.24,155.10 L 562.77,167.89 L 552.93,153.80" fill="none" stroke="rgb(127,127,127)" stroke-width="2.00" stroke-linecap="round" stroke-linejoin="round" opacity="0.822"/><path d="M 552.93,665.80 L 549.15,659.06 L 555.95,654.35 L 562.82,659.89 L 563.81,662.74 L 565.14,660.03 L 572.63,655.37 L 578.81,660.86 L 574.24,667.10 L 562.77,679.89 L 552.93,665.80" fill="none" stroke="rgb(127,127,127)" stroke-width="2.00" stroke-linecap="round" stroke-linejoin="round" opacity="0.822"/><path d="M -373.62,-363.91 L -377.90,-371.16 L -370.61,-376.46 L -362.98,-370.60 L -361.83,-367.51 L -360.45,-370.50 L -352.39,-375.77 L -345.52,-369.93 L -350.34,-363.02 L -362.54,-348.79 L -373.62,-363.91" fill="none" stroke="rgb(127,127,127)" stroke-width="2.20" stroke-linecap="round" stroke-linejoin="round" opacity="0.801"/><path d="M -373.62,148.09 L -377.90,140.84 L -370.61,135.54 L -362.98,141.40 L -361.83,144.49 L -360.45,141.50 L -352.39,136.23 L -345.52,142.07 L -350.34,148.98 L -362.54,163.21 L -373.62,148.09" fill="none" stroke="rgb(127,127,127)" stroke-width="2.20" stroke-linecap="round" stroke-linejoin="round" opacity="0.801"/><path d="M -373.62,660.09 L -377.90,652.84 L -370.61,647.54 L -362.98,653.40 L -361.83,656.49 L -360.45,653.50 L -352.39,648.23 L -345.52,654.07 L -350.34,660.98 L -362.54,675.21 L -373.62,660.09" fill="none" stroke="rgb(127,127,127)" stroke-width="2.20" stroke-linecap="round" stroke-linejoin="round" opacity="0.801"/><path d="M 138.38,-363.91 L 134.10,-371.16 L 141.39,-376.46 L 149.02,-370.60 L 150.17,-367.51 L 151.55,-370.50 L 159.61,-375.77 L 166.48,-369.93 L 161.66,-363.02 L 149.46,-348.79 L 138.38,-363.91" fill="none" stroke="rgb(127,127,127)" stroke-width="2.20" stroke-linecap="round" stroke-linejoin="round" opacity="0.801"/><path d="M 138.38,148.09 L 134.10,140.84 L 141.39,135.54 L 149.02,141.40 L 150.17,144.49 L 151.55,141.50 L 159.61,136.23 L 166.48,142.07 L 161.66,148.98 L 149.46,163.21 L 138.38,148.09" fill="none" stroke="rgb(127,127,127)" stroke-width="2.20" stroke-linecap="round" stroke-linejoin="round" opacity="0.801"/><path d="M 138.38,660.09 L 134.10,652.84 L 141.39,647.54 L 149.02,653.40 L 150.17,656.49 L 151.55,653.50 L 159.61,648.23 L 166.48,654.07 L 161.66,660.98 L 149.46,675.21 L 138.38,660.09" fill="none" stroke="rgb(127,127,127)" stroke-width="2.20" stroke-linecap="round" stroke-linejoin="round" opacity="0.801"/><path d="M 650.38,-363.91 L 646.10,-371.16 L 653.39,-376.46 L 661.02,-370.60 L 662.17,-367.51 L 663.55,-370.50 L 671.61,-375.77 L 678.48,-369.93 L 673.66,-363.02 L 661.46,-348.79 L 650.38,-363.91" fill="none" stroke="rgb(127,127,127)" stroke-width="2.20" stroke-linecap="round" stroke-linejoin="round" opacity="0.801"/><path d="M 650.38,148.09 L 646.10,140.84 L 653.39,135.54 L 661.02,141.40 L 662.17,144.49 L 663.55,141.50 L 671.61,136.23 L 678.48,142.07 L 673.66,148.98 L 661.46,163.21 L 650.38,148.09" fill="none" stroke="rgb(127,127,127)" stroke-width="2.20" stroke-linecap="round" stroke-linejoin="round" opacity="0.801"/><path d="M 650.38,660.09 L 646.10,652.84 L 653.39,647.54 L 661.02,653.40 L 662.17,656.49 L 663.55,653.50 L 671.61,648.23 L 678.48,654.07 L 673.66,660.98 L 661.46,675.21 L 650.38,660.09" fill="none" stroke="rgb(127,127,127)" stroke-width="2.20" stroke-linecap="round" stroke-linejoin="round" opacity="0.801"/><path d="M -271.59,-355.91 L -276.64,-362.44 L -270.19,-368.48 L -262.06,-363.71 L -260.56,-360.85 L -259.58,-363.93 L -252.40,-370.03 L -245.00,-365.20 L -248.85,-357.89 L -258.97,-342.56 L -271.59,-355.91" fill="none" stroke="rgb(126,126,126)" stroke-width="2.20" stroke-linecap="round" stroke-linejoin="round" opacity="0.795"/><path d="M -271.59,156.09 L -276.64,149.56 L -270.19,143.52 L -262.06,148.29 L -260.56,151.15 L -259.58,148.07 L -252.40,141.97 L -245.00,146.80 L -248.85,154.11 L -258.97,169.44 L -271.59,156.09" fill="none" stroke="rgb(126,126,126)" stroke-width="2.20" stroke-linecap="round" stroke-linejoin="round" opacity="0.795"/><path d="M -271.59,668.09 L -276.64,661.56 L -270.19,655.52 L -262.06,660.29 L -260.56,663.15 L -259.58,660.07 L -252.40,653.97 L -245.00,658.80 L -248.85,666.11 L -258.97,681.44 L -271.59,668.09" fill="none" stroke="rgb(126,126,126)" stroke-width="2.20" stroke-linecap="round" stroke-linejoin="round" opacity="0.795"/><path d="M 240.41,-355.91 L 235.36,-362.44 L 241.81,-368.48 L 249.94,-363.71 L 251.44,-360.85 L 252.42,-363.93 L 259.60,-370.03 L 267.00,-365.20 L 263.15,-357.89 L 253.03,-342.56 L 240.41,-355.91" fill="none" stroke="rgb(126,126,126)" stroke-width="2.20" stroke-linecap="round" stroke-linejoin="round" opacity="0.795"/><path d="M 240.41,156.09 L 235.36,149.56 L 241.81,143.52 L 249.94,148.29 L 251.44,151.15 L 252.42,148.07 L 259.60,141.97 L 267.00,146.80 L 263.15,154.11 L 253.03,169.44 L 240.41,156.09" fill="none" stroke="rgb(126,126,126)" stroke-width="2.20" stroke-linecap="round" stroke-linejoin="round" opacity="0.795"/><path d="M 240.41,668.09 L 235.36,661.56 L 241.81,655.52 L 249.94,660.29 L 251.44,663.15 L 252.42,660.07 L 259.60,653.97 L 267.00,658.80 L 263.15,666.11 L 253.03,681.44 L 240.41,668.09" fill="none" stroke="rgb(126,126,126)" stroke-width="2.20" stroke-linecap="round" stroke-linejoin="round" opacity="0.795"/><path d="M 752.41,-355.91 L 747.36,-362.44 L 753.81,-368.48 L 761.94,-363.71 L 763.44,-360.85 L 764.42,-363.93 L 771.60,-370.03 L 779.00,-365.20 L 775.15,-357.89 L 765.03,-342.56 L 752.41,-355.91" fill="none" stroke="rgb(126,126,126)" stroke-width="2.20" stroke-linecap="round" stroke-linejoin="round" opacity="0.795"/><path d="M 752.41,156.09 L 747.36,149.56 L 753.81,143.52 L 761.94,148.29 L 763.44,151.15 L 764.42,148.07 L 771.60,141.97 L 779.00,146.80 L 775.15,154.11 L 765.03,169.44 L 752.41,156.09" fill="none" stroke="rgb(126,126,126)" stroke-width="2.20" stroke-linecap="round" stroke-linejoin="round" opacity="0.795"/><path d="M 752.41,668.09 L 747.36,661.56 L 753.81,655.52 L 761.94,660.29 L 763.44,663.15 L 764.42,660.07 L 771.60,653.97 L 779.00,658.80 L 775.15,666.11 L 765.03,681.44 L 752.41,668.09" fill="none" stroke="rgb(126,126,126)" stroke-width="2.20" stroke-linecap="round" stroke-linejoin="round" opacity="0.795"/><path d="M -162.86,-357.76 L -168.01,-364.53 L -161.31,-370.70 L -152.97,-365.71 L -151.46,-362.75 L -150.42,-365.91 L -142.97,-372.14 L -135.39,-367.09 L -139.42,-359.60 L -149.98,-343.90 L -162.86,-357.76" fill="none" stroke="rgb(120,120,120)" stroke-width="2.40" stroke-linecap="round" stroke-linejoin="round" opacity="0.882"/><path d="M -162.86,154.24 L -168.01,147.47 L -161.31,141.30 L -152.97,146.29 L -151.46,149.25 L -150.42,146.09 L -142.97,139.86 L -135.39,144.91 L -139.42,152.40 L -149.98,168.10 L -162.86,154.24" fill="none" stroke="rgb(120,120,120)" stroke-width="2.40" stroke-linecap="round" stroke-linejoin="round" opacity="0.882"/><path d="M -162.86,666.24 L -168.01,659.47 L -161.31,653.30 L -152.97,658.29 L -151.46,661.25 L -150.42,658.09 L -142.97,651.86 L -135.39,656.91 L -139.42,664.40 L -149.98,680.10 L -162.86,666.24" fill="none" stroke="rgb(120,120,120)" stroke-width="2.40" stroke-linecap="round" stroke-linejoin="round" opacity="0.882"/><path d="M 349.14,-357.76 L 343.99,-364.53 L 350.69,-370.70 L 359.03,-365.71 L 360.54,-362.75 L 361.58,-365.91 L 369.03,-372.14 L 376.61,-367.09 L 372.58,-359.60 L 362.02,-343.90 L 349.14,-357.76" fill="none" stroke="rgb(120,120,120)" stroke-width="2.40" stroke-linecap="round" stroke-linejoin="round" opacity="0.882"/><path d="M 349.14,154.24 L 343.99,147.47 L 350.69,141.30 L 359.03,146.29 L 360.54,149.25 L 361.58,146.09 L 369.03,139.86 L 376.61,144.91 L 372.58,152.40 L 362.02,168.10 L 349.14,154.24" fill="none" stroke="rgb(120,120,120)" stroke-width="2.40" stroke-linecap="round" stroke-linejoin="round" opacity="0.882"/><path d="M 349.14,666.24 L 343.99,659.47 L 350.69,653.30 L 359.03,658.29 L 360.54,661.25 L 361.58,658.09 L 369.03,651.86 L 376.61,656.91 L 372.58,664.40 L 362.02,680.10 L 349.14,666.24" fill="none" stroke="rgb(120,120,120)" stroke-width="2.40" stroke-linecap="round" stroke-linejoin="round" opacity="0.882"/><path d="M 861.14,-357.76 L 855.99,-364.53 L 862.69,-370.70 L 871.03,-365.71 L 872.54,-362.75 L 873.58,-365.91 L 881.03,-372.14 L 888.61,-367.09 L 884.58,-359.60 L 874.02,-343.90 L 861.14,-357.76" fill="none" stroke="rgb(120,120,120)" stroke-width="2.40" stroke-linecap="round" stroke-linejoin="round" opacity="0.882"/><path d="M 861.14,154.24 L 855.99,147.47 L 862.69,141.30 L 871.03,146.29 L 872.54,149.25 L 873.58,146.09 L 881.03,139.86 L 888.61,144.91 L 884.58,152.40 L 874.02,168.10 L 861.14,154.24" fill="none" stroke="rgb(120,120,120)" stroke-width="2.40" stroke-linecap="round" stroke-linejoin="round" opacity="0.882"/><path d="M 861.14,666.24 L 855.99,659.47 L 862.69,653.30 L 871.03,658.29 L 872.54,661.25 L 873.58,658.09 L 881.03,651.86 L 888.61,656.91 L 884.58,664.40 L 874.02,680.10 L 861.14,666.24" fill="none" stroke="rgb(120,120,120)" stroke-width="2.40" stroke-linecap="round" stroke-linejoin="round" opacity="0.882"/><path d="M -62.29,-364.64 L -66.16,-370.47 L -60.34,-375.19 L -53.75,-370.66 L -52.66,-368.16 L -51.64,-370.70 L -45.19,-375.43 L -39.23,-370.89 L -42.93,-364.94 L -52.42,-352.58 L -62.29,-364.64" fill="none" stroke="rgb(141,141,141)" stroke-width="2.40" stroke-linecap="round" stroke-linejoin="round" opacity="0.870"/><path d="M -62.29,147.36 L -66.16,141.53 L -60.34,136.81 L -53.75,141.34 L -52.66,143.84 L -51.64,141.30 L -45.19,136.57 L -39.23,141.11 L -42.93,147.06 L -52.42,159.42 L -62.29,147.36" fill="none" stroke="rgb(141,141,141)" stroke-width="2.40" stroke-linecap="round" stroke-linejoin="round" opacity="0.870"/><path d="M -62.29,659.36 L -66.16,653.53 L -60.34,648.81 L -53.75,653.34 L -52.66,655.84 L -51.64,653.30 L -45.19,648.57 L -39.23,653.11 L -42.93,659.06 L -52.42,671.42 L -62.29,659.36" fill="none" stroke="rgb(141,141,141)" stroke-width="2.40" stroke-linecap="round" stroke-linejoin="round" opacity="0.870"/><path d="M 449.71,-364.64 L 445.84,-370.47 L 451.66,-375.19 L 458.25,-370.66 L 459.34,-368.16 L 460.36,-370.70 L 466.81,-375.43 L 472.77,-370.89 L 469.07,-364.94 L 459.58,-352.58 L 449.71,-364.64" fill="none" stroke="rgb(141,141,141)" stroke-width="2.40" stroke-linecap="round" stroke-linejoin="round" opacity="0.870"/><path d="M 449.71,147.36 L 445.84,141.53 L 451.66,136.81 L 458.25,141.34 L 459.34,143.84 L 460.36,141.30 L 466.81,136.57 L 472.77,141.11 L 469.07,147.06 L 459.58,159.42 L 449.71,147.36" fill="none" stroke="rgb(141,141,141)" stroke-width="2.40" stroke-linecap="round" stroke-linejoin="round" opacity="0.870"/><path d="M 449.71,659.36 L 445.84,653.53 L 451.66,648.81 L 458.25,653.34 L 459.34,655.84 L 460.36,653.30 L 466.81,648.57 L 472.77,653.11 L 469.07,659.06 L 459.58,671.42 L 449.71,659.36" fill="none" stroke="rgb(141,141,141)" stroke-width="2.40" stroke-linecap="round" stroke-linejoin="round" opacity="0.870"/><path d="M 961.71,-364.64 L 957.84,-370.47 L 963.66,-375.19 L 970.25,-370.66 L 971.34,-368.16 L 972.36,-370.70 L 978.81,-375.43 L 984.77,-370.89 L 981.07,-364.94 L 971.58,-352.58 L 961.71,-364.64" fill="none" stroke="rgb(141,141,141)" stroke-width="2.40" stroke-linecap="round" stroke-linejoin="round" opacity="0.870"/><path d="M 961.71,147.36 L 957.84,141.53 L 963.66,136.81 L 970.25,141.34 L 971.34,143.84 L 972.36,141.30 L 978.81,136.57 L 984.77,141.11 L 981.07,147.06 L 971.58,159.42 L 961.71,147.36" fill="none" stroke="rgb(141,141,141)" stroke-width="2.40" stroke-linecap="round" stroke-linejoin="round" opacity="0.870"/><path d="M 961.71,659.36 L 957.84,653.53 L 963.66,648.81 L 970.25,653.34 L 971.34,655.84 L 972.36,653.30 L 978.81,648.57 L 984.77,653.11 L 981.07,659.06 L 971.58,671.42 L 961.71,659.36" fill="none" stroke="rgb(141,141,141)" stroke-width="2.40" stroke-linecap="round" stroke-linejoin="round" opacity="0.870"/><path d="M -475.91,-252.38 L -480.81,-258.40 L -474.90,-264.22 L -467.15,-259.93 L -465.68,-257.28 L -464.83,-260.19 L -458.23,-266.09 L -451.18,-261.73 L -454.62,-254.78 L -463.76,-240.15 L -475.91,-252.38" fill="none" stroke="rgb(136,136,136)" stroke-width="2.40" stroke-linecap="round" stroke-linejoin="round" opacity="0.821"/><path d="M -475.91,259.62 L -480.81,253.60 L -474.90,247.78 L -467.15,252.07 L -465.68,254.72 L -464.83,251.81 L -458.23,245.91 L -451.18,250.27 L -454.62,257.22 L -463.76,271.85 L -475.91,259.62" fill="none" stroke="rgb(136,136,136)" stroke-width="2.40" stroke-linecap="round" stroke-linejoin="round" opacity="0.821"/><path d="M -475.91,771.62 L -480.81,765.60 L -474.90,759.78 L -467.15,764.07 L -465.68,766.72 L -464.83,763.81 L -458.23,757.91 L -451.18,762.27 L -454.62,769.22 L -463.76,783.85 L -475.91,771.62" fill="none" stroke="rgb(136,136,136)" stroke-width="2.40" stroke-linecap="round" stroke-linejoin="round" opacity="0.821"/><path d="M 36.09,-252.38 L 31.19,-258.40 L 37.10,-264.22 L 44.85,-259.93 L 46.32,-257.28 L 47.17,-260.19 L 53.77,-266.09 L 60.82,-261.73 L 57.38,-254.78 L 48.24,-240.15 L 36.09,-252.38" fill="none" stroke="rgb(136,136,136)" stroke-width="2.40" stroke-linecap="round" stroke-linejoin="round" opacity="0.821"/><path d="M 36.09,259.62 L 31.19,253.60 L 37.10,247.78 L 44.85,252.07 L 46.32,254.72 L 47.17,251.81 L 53.77,245.91 L 60.82,250.27 L 57.38,257.22 L 48.24,271.85 L 36.09,259.62" fill="none" stroke="rgb(136,136,136)" stroke-width="2.40" stroke-linecap="round" stroke-linejoin="round" opacity="0.821"/><path d="M 36.09,771.62 L 31.19,765.60 L 37.10,759.78 L 44.85,764.07 L 46.32,766.72 L 47.17,763.81 L 53.77,757.91 L 60.82,762.27 L 57.38,769.22 L 48.24,783.85 L 36.09,771.62" fill="none" stroke="rgb(136,136,136)" stroke-width="2.40" stroke-linecap="round" stroke-linejoin="round" opacity="0.821"/><path d="M 548.09,-252.38 L 543.19,-258.40 L 549.10,-264.22 L 556.85,-259.93 L 558.32,-257.28 L 559.17,-260.19 L 565.77,-266.09 L 572.82,-261.73 L 569.38,-254.78 L 560.24,-240.15 L 548.09,-252.38" fill="none" stroke="rgb(136,136,136)" stroke-width="2.40" stroke-linecap="round" stroke-linejoin="round" opacity="0.821"/><path d="M 548.09,259.62 L 543.19,253.60 L 549.10,247.78 L 556.85,252.07 L 558.32,254.72 L 559.17,251.81 L 565.77,245.91 L 572.82,250.27 L 569.38,257.22 L 560.24,271.85 L 548.09,259.62" fill="none" stroke="rgb(136,136,136)" stroke-width="2.40" stroke-linecap="round" stroke-linejoin="round" opacity="0.821"/><path d="M 548.09,771.62 L 543.19,765.60 L 549.10,759.78 L 556.85,764.07 L 558.32,766.72 L 559.17,763.81 L 565.77,757.91 L 572.82,762.27 L 569.38,769.22 L 560.24,783.85 L 548.09,771.62" fill="none" stroke="rgb(136,136,136)" stroke-width="2.40" stroke-linecap="round" stroke-linejoin="round" opacity="0.821"/><path d="M -371.26,-255.47 L -375.44,-260.92 L -370.05,-265.93 L -363.29,-261.93 L -362.06,-259.55 L -361.23,-262.11 L -355.23,-267.17 L -349.09,-263.12 L -352.31,-257.04 L -360.79,-244.31 L -371.26,-255.47" fill="none" stroke="rgb(133,133,133)" stroke-width="2.40" stroke-linecap="round" stroke-linejoin="round" opacity="0.820"/><path d="M -371.26,256.53 L -375.44,251.08 L -370.05,246.07 L -363.29,250.07 L -362.06,252.45 L -361.23,249.89 L -355.23,244.83 L -349.09,248.88 L -352.31,254.96 L -360.79,267.69 L -371.26,256.53" fill="none" stroke="rgb(133,133,133)" stroke-width="2.40" stroke-linecap="round" stroke-linejoin="round" opacity="0.820"/><path d="M -371.26,768.53 L -375.44,763.08 L -370.05,758.07 L -363.29,762.07 L -362.06,764.45 L -361.23,761.89 L -355.23,756.83 L -349.09,760.88 L -352.31,766.96 L -360.79,779.69 L -371.26,768.53" fill="none" stroke="rgb(133,133,133)" stroke-width="2.40" stroke-linecap="round" stroke-linejoin="round" opacity="0.820"/><path d="M 140.74,-255.47 L 136.56,-260.92 L 141.95,-265.93 L 148.71,-261.93 L 149.94,-259.55 L 150.77,-262.11 L 156.77,-267.17 L 162.91,-263.12 L 159.69,-257.04 L 151.21,-244.31 L 140.74,-255.47" fill="none" stroke="rgb(133,133,133)" stroke-width="2.40" stroke-linecap="round" stroke-linejoin="round" opacity="0.820"/><path d="M 140.74,256.53 L 136.56,251.08 L 141.95,246.07 L 148.71,250.07 L 149.94,252.45 L 150.77,249.89 L 156.77,244.83 L 162.91,248.88 L 159.69,254.96 L 151.21,267.69 L 140.74,256.53" fill="none" stroke="rgb(133,133,133)" stroke-width="2.40" stroke-linecap="round" stroke-linejoin="round" opacity="0.820"/><path d="M 140.74,768.53 L 136.56,763.08 L 141.95,758.07 L 148.71,762.07 L 149.94,764.45 L 150.77,761.89 L 156.77,756.83 L 162.91,760.88 L 159.69,766.96 L 151.21,779.69 L 140.74,768.53" fill="none" stroke="rgb(133,133,133)" stroke-width="2.40" stroke-linecap="round" stroke-linejoin="round" opacity="0.820"/><path d="M 652.74,-255.47 L 648.56,-260.92 L 653.95,-265.93 L 660.71,-261.93 L 661.94,-259.55 L 662.77,-262.11 L 668.77,-267.17 L 674.91,-263.12 L 671.69,-257.04 L 663.21,-244.31 L 652.74,-255.47" fill="none" stroke="rgb(133,133,133)" stroke-width="2.40" stroke-linecap="round" stroke-linejoin="round" opacity="0.820"/><path d="M 652.74,256.53 L 648.56,251.08 L 653.95,246.07 L 660.71,250.07 L 661.94,252.45 L 662.77,249.89 L 668.77,244.83 L 674.91,248.88 L 671.69,254.96 L 663.21,267.69 L 652.74,256.53" fill="none" stroke="rgb(133,133,133)" stroke-width="2.40" stroke-linecap="round" stroke-linejoin="round" opacity="0.820"/><path d="M 652.74,768.53 L 648.56,763.08 L 653.95,758.07 L 660.71,762.07 L 661.94,764.45 L 662.77,761.89 L 668.77,756.83 L 674.91,760.88 L 671.69,766.96 L 663.21,779.69 L 652.74,768.53" fill="none" stroke="rgb(133,133,133)" stroke-width="2.40" stroke-linecap="round" stroke-linejoin="round" opacity="0.820"/><path d="M -262.63,-259.46 L -265.92,-265.50 L -259.82,-269.62 L -253.76,-264.62 L -252.90,-262.07 L -251.70,-264.47 L -244.98,-268.55 L -239.53,-263.59 L -243.66,-258.09 L -254.00,-246.81 L -262.63,-259.46" fill="none" stroke="rgb(119,119,119)" stroke-width="2.00" stroke-linecap="round" stroke-linejoin="round" opacity="0.856"/><path d="M -262.63,252.54 L -265.92,246.50 L -259.82,242.38 L -253.76,247.38 L -252.90,249.93 L -251.70,247.53 L -244.98,243.45 L -239.53,248.41 L -243.66,253.91 L -254.00,265.19 L -262.63,252.54" fill="none" stroke="rgb(119,119,119)" stroke-width="2.00" stroke-linecap="round" stroke-linejoin="round" opacity="0.856"/><path d="M -262.63,764.54 L -265.92,758.50 L -259.82,754.38 L -253.76,759.38 L -252.90,761.93 L -251.70,759.53 L -244.98,755.45 L -239.53,760.41 L -243.66,765.91 L -254.00,777.19 L -262.63,764.54" fill="none" stroke="rgb(119,119,119)" stroke-width="2.00" stroke-linecap="round" stroke-linejoin="round" opacity="0.856"/><path d="M 249.37,-259.46 L 246.08,-265.50 L 252.18,-269.62 L 258.24,-264.62 L 259.10,-262.07 L 260.30,-264.47 L 267.02,-268.55 L 272.47,-263.59 L 268.34,-258.09 L 258.00,-246.81 L 249.37,-259.46" fill="none" stroke="rgb(119,119,119)" stroke-width="2.00" stroke-linecap="round" stroke-linejoin="round" opacity="0.856"/><path d="M 249.37,252.54 L 246.08,246.50 L 252.18,242.38 L 258.24,247.38 L 259.10,249.93 L 260.30,247.53 L 267.02,243.45 L 272.47,248.41 L 268.34,253.91 L 258.00,265.19 L 249.37,252.54" fill="none" stroke="rgb(119,119,119)" stroke-width="2.00" stroke-linecap="round" stroke-linejoin="round" opacity="0.856"/><path d="M 249.37,764.54 L 246.08,758.50 L 252.18,754.38 L 258.24,759.38 L 259.10,761.93 L 260.30,759.53 L 267.02,755.45 L 272.47,760.41 L 268.34,765.91 L 258.00,777.19 L 249.37,764.54" fill="none" stroke="rgb(119,119,119)" stroke-width="2.00" stroke-linecap="round" stroke-linejoin="round" opacity="0.856"/><path d="M 761.37,-259.46 L 758.08,-265.50 L 764.18,-269.62 L 770.24,-264.62 L 771.10,-262.07 L 772.30,-264.47 L 779.02,-268.55 L 784.47,-263.59 L 780.34,-258.09 L 770.00,-246.81 L 761.37,-259.46" fill="none" stroke="rgb(119,119,119)" stroke-width="2.00" stroke-linecap="round" stroke-linejoin="round" opacity="0.856"/><path d="M 761.37,252.54 L 758.08,246.50 L 764.18,242.38 L 770.24,247.38 L 771.10,249.93 L 772.30,247.53 L 779.02,243.45 L 784.47,248.41 L 780.34,253.91 L 770.00,265.19 L 761.37,252.54" fill="none" stroke="rgb(119,119,119)" stroke-width="2.00" stroke-linecap="round" stroke-linejoin="round" opacity="0.856"/><path d="M 761.37,764.54 L 758.08,758.50 L 764.18,754.38 L 770.24,759.38 L 771.10,761.93 L 772.30,759.53 L 779.02,755.45 L 784.47,760.41 L 780.34,765.91 L 770.00,777.19 L 761.37,764.54" fill="none" stroke="rgb(119,119,119)" stroke-width="2.00" stroke-linecap="round" stroke-linejoin="round" opacity="0.856"/><path d="M -161.16,-258.19 L -165.49,-264.42 L -159.30,-269.67 L -152.05,-264.92 L -150.81,-262.22 L -149.77,-265.00 L -142.89,-270.27 L -136.33,-265.49 L -140.19,-258.96 L -150.19,-245.36 L -161.16,-258.19" fill="none" stroke="rgb(127,127,127)" stroke-width="2.00" stroke-linecap="round" stroke-linejoin="round" opacity="0.898"/><path d="M -161.16,253.81 L -165.49,247.58 L -159.30,242.33 L -152.05,247.08 L -150.81,249.78 L -149.77,247.00 L -142.89,241.73 L -136.33,246.51 L -140.19,253.04 L -150.19,266.64 L -161.16,253.81" fill="none" stroke="rgb(127,127,127)" stroke-width="2.00" stroke-linecap="round" stroke-linejoin="round" opacity="0.898"/><path d="M -161.16,765.81 L -165.49,759.58 L -159.30,754.33 L -152.05,759.08 L -150.81,761.78 L -149.77,759.00 L -142.89,753.73 L -136.33,758.51 L -140.19,765.04 L -150.19,778.64 L -161.16,765.81" fill="none" stroke="rgb(127,127,127)" stroke-width="2.00" stroke-linecap="round" stroke-linejoin="round" opacity="0.898"/><path d="M 350.84,-258.19 L 346.51,-264.42 L 352.70,-269.67 L 359.95,-264.92 L 361.19,-262.22 L 362.23,-265.00 L 369.11,-270.27 L 375.67,-265.49 L 371.81,-258.96 L 361.81,-245.36 L 350.84,-258.19" fill="none" stroke="rgb(127,127,127)" stroke-width="2.00" stroke-linecap="round" stroke-linejoin="round" opacity="0.898"/><path d="M 350.84,253.81 L 346.51,247.58 L 352.70,242.33 L 359.95,247.08 L 361.19,249.78 L 362.23,247.00 L 369.11,241.73 L 375.67,246.51 L 371.81,253.04 L 361.81,266.64 L 350.84,253.81" fill="none" stroke="rgb(127,127,127)" stroke-width="2.00" stroke-linecap="round" stroke-linejoin="round" opacity="0.898"/><path d="M 350.84,765.81 L 346.51,759.58 L 352.70,754.33 L 359.95,759.08 L 361.19,761.78 L 362.23,759.00 L 369.11,753.73 L 375.67,758.51 L 371.81,765.04 L 361.81,778.64 L 350.84,765.81" fill="none" stroke="rgb(127,127,127)" stroke-width="2.00" stroke-linecap="round" stroke-linejoin="round" opacity="0.898"/><path d="M 862.84,-258.19 L 858.51,-264.42 L 864.70,-269.67 L 871.95,-264.92 L 873.19,-262.22 L 874.23,-265.00 L 881.11,-270.27 L 887.67,-265.49 L 883.81,-258.96 L 873.81,-245.36 L 862.84,-258.19" fill="none" stroke="rgb(127,127,127)" stroke-width="2.00" stroke-linecap="round" stroke-linejoin="round" opacity="0.898"/><path d="M 862.84,253.81 L 858.51,247.58 L 864.70,242.33 L 871.95,247.08 L 873.19,249.78 L 874.23,247.00 L 881.11,241.73 L 887.67,246.51 L 883.81,253.04 L 873.81,266.64 L 862.84,253.81" fill="none" stroke="rgb(127,127,127)" stroke-width="2.00" stroke-linecap="round" stroke-linejoin="round" opacity="0.898"/><path d="M 862.84,765.81 L 858.51,759.58 L 864.70,754.33 L 871.95,759.08 L 873.19,761.78 L 874.23,759.00 L 881.11,753.73 L 887.67,758.51 L 883.81,765.04 L 873.81,778.64 L 862.84,765.81" fill="none" stroke="rgb(127,127,127)" stroke-width="2.00" stroke-linecap="round" stroke-linejoin="round" opacity="0.898"/><path d="M -62.17,-254.41 L -67.11,-260.07 L -61.58,-265.90 L -53.94,-262.01 L -52.43,-259.49 L -51.70,-262.33 L -45.51,-268.26 L -38.53,-264.27 L -41.63,-257.43 L -49.99,-242.97 L -62.17,-254.41" fill="none" stroke="rgb(130,130,130)" stroke-width="2.00" stroke-linecap="round" stroke-linejoin="round" opacity="0.807"/><path d="M -62.17,257.59 L -67.11,251.93 L -61.58,246.10 L -53.94,249.99 L -52.43,252.51 L -51.70,249.67 L -45.51,243.74 L -38.53,247.73 L -41.63,254.57 L -49.99,269.03 L -62.17,257.59" fill="none" stroke="rgb(130,130,130)" stroke-width="2.00" stroke-linecap="round" stroke-linejoin="round" opacity="0.807"/><path d="M -62.17,769.59 L -67.11,763.93 L -61.58,758.10 L -53.94,761.99 L -52.43,764.51 L -51.70,761.67 L -45.51,755.74 L -38.53,759.73 L -41.63,766.57 L -49.99,781.03 L -62.17,769.59" fill="none" stroke="rgb(130,130,130)" stroke-width="2.00" stroke-linecap="round" stroke-linejoin="round" opacity="0.807"/><path d="M 449.83,-254.41 L 444.89,-260.07 L 450.42,-265.90 L 458.06,-262.01 L 459.57,-259.49 L 460.30,-262.33 L 466.49,-268.26 L 473.47,-264.27 L 470.37,-257.43 L 462.01,-242.97 L 449.83,-254.41" fill="none" stroke="rgb(130,130,130)" stroke-width="2.00" stroke-linecap="round" stroke-linejoin="round" opacity="0.807"/><path d="M 449.83,257.59 L 444.89,251.93 L 450.42,246.10 L 458.06,249.99 L 459.57,252.51 L 460.30,249.67 L 466.49,243.74 L 473.47,247.73 L 470.37,254.57 L 462.01,269.03 L 449.83,257.59" fill="none" stroke="rgb(130,130,130)" stroke-width="2.00" stroke-linecap="round" stroke-linejoin="round" opacity="0.807"/><path d="M 449.83,769.59 L 444.89,763.93 L 450.42,758.10 L 458.06,761.99 L 459.57,764.51 L 460.30,761.67 L 466.49,755.74 L 473.47,759.73 L 470.37,766.57 L 462.01,781.03 L 449.83,769.59" fill="none" stroke="rgb(130,130,130)" stroke-width="2.00" stroke-linecap="round" stroke-linejoin="round" opacity="0.807"/><path d="M 961.83,-254.41 L 956.89,-260.07 L 962.42,-265.90 L 970.06,-262.01 L 971.57,-259.49 L 972.30,-262.33 L 978.49,-268.26 L 985.47,-264.27 L 982.37,-257.43 L 974.01,-242.97 L 961.83,-254.41" fill="none" stroke="rgb(130,130,130)" stroke-width="2.00" stroke-linecap="round" stroke-linejoin="round" opacity="0.807"/><path d="M 961.83,257.59 L 956.89,251.93 L 962.42,246.10 L 970.06,249.99 L 971.57,252.51 L 972.30,249.67 L 978.49,243.74 L 985.47,247.73 L 982.37,254.57 L 974.01,269.03 L 961.83,257.59" fill="none" stroke="rgb(130,130,130)" stroke-width="2.00" stroke-linecap="round" stroke-linejoin="round" opacity="0.807"/><path d="M 961.83,769.59 L 956.89,763.93 L 962.42,758.10 L 970.06,761.99 L 971.57,764.51 L 972.30,761.67 L 978.49,755.74 L 985.47,759.73 L 982.37,766.57 L 974.01,781.03 L 961.83,769.59" fill="none" stroke="rgb(130,130,130)" stroke-width="2.00" stroke-linecap="round" stroke-linejoin="round" opacity="0.807"/><path d="M -476.82,-157.65 L -481.05,-165.06 L -473.59,-170.31 L -465.95,-164.27 L -464.83,-161.13 L -463.39,-164.13 L -455.16,-169.34 L -448.29,-163.34 L -453.28,-156.41 L -465.83,-142.19 L -476.82,-157.65" fill="none" stroke="rgb(119,119,119)" stroke-width="2.00" stroke-linecap="round" stroke-linejoin="round" opacity="0.828"/><path d="M -476.82,354.35 L -481.05,346.94 L -473.59,341.69 L -465.95,347.73 L -464.83,350.87 L -463.39,347.87 L -455.16,342.66 L -448.29,348.66 L -453.28,355.59 L -465.83,369.81 L -476.82,354.35" fill="none" stroke="rgb(119,119,119)" stroke-width="2.00" stroke-linecap="round" stroke-linejoin="round" opacity="0.828"/><path d="M -476.82,866.35 L -481.05,858.94 L -473.59,853.69 L -465.95,859.73 L -464.83,862.87 L -463.39,859.87 L -455.16,854.66 L -448.29,860.66 L -453.28,867.59 L -465.83,881.81 L -476.82,866.35" fill="none" stroke="rgb(119,119,119)" stroke-width="2.00" stroke-linecap="round" stroke-linejoin="round" opacity="0.828"/><path d="M 35.18,-157.65 L 30.95,-165.06 L 38.41,-170.31 L 46.05,-164.27 L 47.17,-161.13 L 48.61,-164.13 L 56.84,-169.34 L 63.71,-163.34 L 58.72,-156.41 L 46.17,-142.19 L 35.18,-157.65" fill="none" stroke="rgb(119,119,119)" stroke-width="2.00" stroke-linecap="round" stroke-linejoin="round" opacity="0.828"/><path d="M 35.18,354.35 L 30.95,346.94 L 38.41,341.69 L 46.05,347.73 L 47.17,350.87 L 48.61,347.87 L 56.84,342.66 L 63.71,348.66 L 58.72,355.59 L 46.17,369.81 L 35.18,354.35" fill="none" stroke="rgb(119,119,119)" stroke-width="2.00" stroke-linecap="round" stroke-linejoin="round" opacity="0.828"/><path d="M 35.18,866.35 L 30.95,858.94 L 38.41,853.69 L 46.05,859.73 L 47.17,862.87 L 48.61,859.87 L 56.84,854.66 L 63.71,860.66 L 58.72,867.59 L 46.17,881.81 L 35.18,866.35" fill="none" stroke="rgb(119,119,119)" stroke-width="2.00" stroke-linecap="round" stroke-linejoin="round" opacity="0.828"/><path d="M 547.18,-157.65 L 542.95,-165.06 L 550.41,-170.31 L 558.05,-164.27 L 559.17,-161.13 L 560.61,-164.13 L 568.84,-169.34 L 575.71,-163.34 L 570.72,-156.41 L 558.17,-142.19 L 547.18,-157.65" fill="none" stroke="rgb(119,119,119)" stroke-width="2.00" stroke-linecap="round" stroke-linejoin="round" opacity="0.828"/><path d="M 547.18,354.35 L 542.95,346.94 L 550.41,341.69 L 558.05,347.73 L 559.17,350.87 L 560.61,347.87 L 568.84,342.66 L 575.71,348.66 L 570.72,355.59 L 558.17,369.81 L 547.18,354.35" fill="none" stroke="rgb(119,119,119)" stroke-width="2.00" stroke-linecap="round" stroke-linejoin="round" opacity="0.828"/><path d="M 547.18,866.35 L 542.95,858.94 L 550.41,853.69 L 558.05,859.73 L 559.17,862.87 L 560.61,859.87 L 568.84,854.66 L 575.71,860.66 L 570.72,867.59 L 558.17,881.81 L 547.18,866.35" fill="none" stroke="rgb(119,119,119)" stroke-width="2.00" stroke-linecap="round" stroke-linejoin="round" opacity="0.828"/><path d="M -366.84,-152.65 L -371.13,-158.04 L -365.83,-163.16 L -358.98,-159.27 L -357.70,-156.91 L -356.92,-159.48 L -351.00,-164.66 L -344.77,-160.72 L -347.89,-154.57 L -356.15,-141.67 L -366.84,-152.65" fill="none" stroke="rgb(128,128,128)" stroke-width="2.20" stroke-linecap="round" stroke-linejoin="round" opacity="0.842"/><path d="M -366.84,359.35 L -371.13,353.96 L -365.83,348.84 L -358.98,352.73 L -357.70,355.09 L -356.92,352.52 L -351.00,347.34 L -344.77,351.28 L -347.89,357.43 L -356.15,370.33 L -366.84,359.35" fill="none" stroke="rgb(128,128,128)" stroke-width="2.20" stroke-linecap="round" stroke-linejoin="round" opacity="0.842"/><path d="M -366.84,871.35 L -371.13,865.96 L -365.83,860.84 L -358.98,864.73 L -357.70,867.09 L -356.92,864.52 L -351.00,859.34 L -344.77,863.28 L -347.89,869.43 L -356.15,882.33 L -366.84,871.35" fill="none" stroke="rgb(128,128,128)" stroke-width="2.20" stroke-linecap="round" stroke-linejoin="round" opacity="0.842"/><path d="M 145.16,-152.65 L 140.87,-158.04 L 146.17,-163.16 L 153.02,-159.27 L 154.30,-156.91 L 155.08,-159.48 L 161.00,-164.66 L 167.23,-160.72 L 164.11,-154.57 L 155.85,-141.67 L 145.16,-152.65" fill="none" stroke="rgb(128,128,128)" stroke-width="2.20" stroke-linecap="round" stroke-linejoin="round" opacity="0.842"/><path d="M 145.16,359.35 L 140.87,353.96 L 146.17,348.84 L 153.02,352.73 L 154.30,355.09 L 155.08,352.52 L 161.00,347.34 L 167.23,351.28 L 164.11,357.43 L 155.85,370.33 L 145.16,359.35" fill="none" stroke="rgb(128,128,128)" stroke-width="2.20" stroke-linecap="round" stroke-linejoin="round" opacity="0.842"/><path d="M 145.16,871.35 L 140.87,865.96 L 146.17,860.84 L 153.02,864.73 L 154.30,867.09 L 155.08,864.52 L 161.00,859.34 L 167.23,863.28 L 164.11,869.43 L 155.85,882.33 L 145.16,871.35" fill="none" stroke="rgb(128,128,128)" stroke-width="2.20" stroke-linecap="round" stroke-linejoin="round" opacity="0.842"/><path d="M 657.16,-152.65 L 652.87,-158.04 L 658.17,-163.16 L 665.02,-159.27 L 666.30,-156.91 L 667.08,-159.48 L 673.00,-164.66 L 679.23,-160.72 L 676.11,-154.57 L 667.85,-141.67 L 657.16,-152.65" fill="none" stroke="rgb(128,128,128)" stroke-width="2.20" stroke-linecap="round" stroke-linejoin="round" opacity="0.842"/><path d="M 657.16,359.35 L 652.87,353.96 L 658.17,348.84 L 665.02,352.73 L 666.30,355.09 L 667.08,352.52 L 673.00,347.34 L 679.23,351.28 L 676.11,357.43 L 667.85,370.33 L 657.16,359.35" fill="none" stroke="rgb(128,128,128)" stroke-width="2.20" stroke-linecap="round" stroke-linejoin="round" opacity="0.842"/><path d="M 657.16,871.35 L 652.87,865.96 L 658.17,860.84 L 665.02,864.73 L 666.30,867.09 L 667.08,864.52 L 673.00,859.34 L 679.23,863.28 L 676.11,869.43 L 667.85,882.33 L 657.16,871.35" fill="none" stroke="rgb(128,128,128)" stroke-width="2.20" stroke-linecap="round" stroke-linejoin="round" opacity="0.842"/><path d="M -271.93,-156.15 L -275.70,-163.79 L -267.95,-168.57 L -260.71,-162.08 L -259.78,-158.89 L -258.17,-161.80 L -249.66,-166.49 L -243.18,-160.09 L -248.56,-153.50 L -261.92,-140.09 L -271.93,-156.15" fill="none" stroke="rgb(140,140,140)" stroke-width="2.00" stroke-linecap="round" stroke-linejoin="round" opacity="0.876"/><path d="M -271.93,355.85 L -275.70,348.21 L -267.95,343.43 L -260.71,349.92 L -259.78,353.11 L -258.17,350.20 L -249.66,345.51 L -243.18,351.91 L -248.56,358.50 L -261.92,371.91 L -271.93,355.85" fill="none" stroke="rgb(140,140,140)" stroke-width="2.00" stroke-linecap="round" stroke-linejoin="round" opacity="0.876"/><path d="M -271.93,867.85 L -275.70,860.21 L -267.95,855.43 L -260.71,861.92 L -259.78,865.11 L -258.17,862.20 L -249.66,857.51 L -243.18,863.91 L -248.56,870.50 L -261.92,883.91 L -271.93,867.85" fill="none" stroke="rgb(140,140,140)" stroke-width="2.00" stroke-linecap="round" stroke-linejoin="round" opacity="0.876"/><path d="M 240.07,-156.15 L 236.30,-163.79 L 244.05,-168.57 L 251.29,-162.08 L 252.22,-158.89 L 253.83,-161.80 L 262.34,-166.49 L 268.82,-160.09 L 263.44,-153.50 L 250.08,-140.09 L 240.07,-156.15" fill="none" stroke="rgb(140,140,140)" stroke-width="2.00" stroke-linecap="round" stroke-linejoin="round" opacity="0.876"/><path d="M 240.07,355.85 L 236.30,348.21 L 244.05,343.43 L 251.29,349.92 L 252.22,353.11 L 253.83,350.20 L 262.34,345.51 L 268.82,351.91 L 263.44,358.50 L 250.08,371.91 L 240.07,355.85" fill="none" stroke="rgb(140,140,140)" stroke-width="2.00" stroke-linecap="round" stroke-linejoin="round" opacity="0.876"/><path d="M 240.07,867.85 L 236.30,860.21 L 244.05,855.43 L 251.29,861.92 L 252.22,865.11 L 253.83,862.20 L 262.34,857.51 L 268.82,863.91 L 263.44,870.50 L 250.08,883.91 L 240.07,867.85" fill="none" stroke="rgb(140,140,140)" stroke-width="2.00" stroke-linecap="round" stroke-linejoin="round" opacity="0.876"/><path d="M 752.07,-156.15 L 748.30,-163.79 L 756.05,-168.57 L 763.29,-162.08 L 764.22,-158.89 L 765.83,-161.80 L 774.34,-166.49 L 780.82,-160.09 L 775.44,-153.50 L 762.08,-140.09 L 752.07,-156.15" fill="none" stroke="rgb(140,140,140)" stroke-width="2.00" stroke-linecap="round" stroke-linejoin="round" opacity="0.876"/><path d="M 752.07,355.85 L 748.30,348.21 L 756.05,343.43 L 763.29,349.92 L 764.22,353.11 L 765.83,350.20 L 774.34,345.51 L 780.82,351.91 L 775.44,358.50 L 762.08,371.91 L 752.07,355.85" fill="none" stroke="rgb(140,140,140)" stroke-width="2.00" stroke-linecap="round" stroke-linejoin="round" opacity="0.876"/><path d="M 752.07,867.85 L 748.30,860.21 L 756.05,855.43 L 763.29,861.92 L 764.22,865.11 L 765.83,862.20 L 774.34,857.51 L 780.82,863.91 L 775.44,870.50 L 762.08,883.91 L 752.07,867.85" fill="none" stroke="rgb(140,140,140)" stroke-width="2.00" stroke-linecap="round" stroke-linejoin="round" opacity="0.876"/><path d="M -161.92,-153.71 L -165.54,-160.97 L -158.17,-165.56 L -151.24,-159.41 L -150.35,-156.37 L -148.82,-159.14 L -140.73,-163.65 L -134.53,-157.57 L -139.63,-151.27 L -152.31,-138.44 L -161.92,-153.71" fill="none" stroke="rgb(122,122,122)" stroke-width="2.00" stroke-linecap="round" stroke-linejoin="round" opacity="0.856"/><path d="M -161.92,358.29 L -165.54,351.03 L -158.17,346.44 L -151.24,352.59 L -150.35,355.63 L -148.82,352.86 L -140.73,348.35 L -134.53,354.43 L -139.63,360.73 L -152.31,373.56 L -161.92,358.29" fill="none" stroke="rgb(122,122,122)" stroke-width="2.00" stroke-linecap="round" stroke-linejoin="round" opacity="0.856"/><path d="M -161.92,870.29 L -165.54,863.03 L -158.17,858.44 L -151.24,864.59 L -150.35,867.63 L -148.82,864.86 L -140.73,860.35 L -134.53,866.43 L -139.63,872.73 L -152.31,885.56 L -161.92,870.29" fill="none" stroke="rgb(122,122,122)" stroke-width="2.00" stroke-linecap="round" stroke-linejoin="round" opacity="0.856"/><path d="M 350.08,-153.71 L 346.46,-160.97 L 353.83,-165.56 L 360.76,-159.41 L 361.65,-156.37 L 363.18,-159.14 L 371.27,-163.65 L 377.47,-157.57 L 372.37,-151.27 L 359.69,-138.44 L 350.08,-153.71" fill="none" stroke="rgb(122,122,122)" stroke-width="2.00" stroke-linecap="round" stroke-linejoin="round" opacity="0.856"/><path d="M 350.08,358.29 L 346.46,351.03 L 353.83,346.44 L 360.76,352.59 L 361.65,355.63 L 363.18,352.86 L 371.27,348.35 L 377.47,354.43 L 372.37,360.73 L 359.69,373.56 L 350.08,358.29" fill="none" stroke="rgb(122,122,122)" stroke-width="2.00" stroke-linecap="round" stroke-linejoin="round" opacity="0.856"/><path d="M 350.08,870.29 L 346.46,863.03 L 353.83,858.44 L 360.76,864.59 L 361.65,867.63 L 363.18,864.86 L 371.27,860.35 L 377.47,866.43 L 372.37,872.73 L 359.69,885.56 L 350.08,870.29" fill="none" stroke="rgb(122,122,122)" stroke-width="2.00" stroke-linecap="round" stroke-linejoin="round" opacity="0.856"/><path d="M 862.08,-153.71 L 858.46,-160.97 L 865.83,-165.56 L 872.76,-159.41 L 873.65,-156.37 L 875.18,-159.14 L 883.27,-163.65 L 889.47,-157.57 L 884.37,-151.27 L 871.69,-138.44 L 862.08,-153.71" fill="none" stroke="rgb(122,122,122)" stroke-width="2.00" stroke-linecap="round" stroke-linejoin="round" opacity="0.856"/><path d="M 862.08,358.29 L 858.46,351.03 L 865.83,346.44 L 872.76,352.59 L 873.65,355.63 L 875.18,352.86 L 883.27,348.35 L 889.47,354.43 L 884.37,360.73 L 871.69,373.56 L 862.08,358.29" fill="none" stroke="rgb(122,122,122)" stroke-width="2.00" stroke-linecap="round" stroke-linejoin="round" opacity="0.856"/><path d="M 862.08,870.29 L 858.46,863.03 L 865.83,858.44 L 872.76,864.59 L 873.65,867.63 L 875.18,864.86 L 883.27,860.35 L 889.47,866.43 L 884.37,872.73 L 871.69,885.56 L 862.08,870.29" fill="none" stroke="rgb(122,122,122)" stroke-width="2.00" stroke-linecap="round" stroke-linejoin="round" opacity="0.856"/><path d="M -62.25,-151.39 L -66.76,-156.66 L -61.60,-162.00 L -54.57,-158.33 L -53.19,-156.00 L -52.50,-158.62 L -46.71,-164.04 L -40.30,-160.29 L -43.23,-153.99 L -51.10,-140.70 L -62.25,-151.39" fill="none" stroke="rgb(124,124,124)" stroke-width="2.00" stroke-linecap="round" stroke-linejoin="round" opacity="0.888"/><path d="M -62.25,360.61 L -66.76,355.34 L -61.60,350.00 L -54.57,353.67 L -53.19,356.00 L -52.50,353.38 L -46.71,347.96 L -40.30,351.71 L -43.23,358.01 L -51.10,371.30 L -62.25,360.61" fill="none" stroke="rgb(124,124,124)" stroke-width="2.00" stroke-linecap="round" stroke-linejoin="round" opacity="0.888"/><path d="M -62.25,872.61 L -66.76,867.34 L -61.60,862.00 L -54.57,865.67 L -53.19,868.00 L -52.50,865.38 L -46.71,859.96 L -40.30,863.71 L -43.23,870.01 L -51.10,883.30 L -62.25,872.61" fill="none" stroke="rgb(124,124,124)" stroke-width="2.00" stroke-linecap="round" stroke-linejoin="round" opacity="0.888"/><path d="M 449.75,-151.39 L 445.24,-156.66 L 450.40,-162.00 L 457.43,-158.33 L 458.81,-156.00 L 459.50,-158.62 L 465.29,-164.04 L 471.70,-160.29 L 468.77,-153.99 L 460.90,-140.70 L 449.75,-151.39" fill="none" stroke="rgb(124,124,124)" stroke-width="2.00" stroke-linecap="round" stroke-linejoin="round" opacity="0.888"/><path d="M 449.75,360.61 L 445.24,355.34 L 450.40,350.00 L 457.43,353.67 L 458.81,356.00 L 459.50,353.38 L 465.29,347.96 L 471.70,351.71 L 468.77,358.01 L 460.90,371.30 L 449.75,360.61" fill="none" stroke="rgb(124,124,124)" stroke-width="2.00" stroke-linecap="round" stroke-linejoin="round" opacity="0.888"/><path d="M 449.75,872.61 L 445.24,867.34 L 450.40,862.00 L 457.43,865.67 L 458.81,868.00 L 459.50,865.38 L 465.29,859.96 L 471.70,863.71 L 468.77,870.01 L 460.90,883.30 L 449.75,872.61" fill="none" stroke="rgb(124,124,124)" stroke-width="2.00" stroke-linecap="round" stroke-linejoin="round" opacity="0.888"/><path d="M 961.75,-151.39 L 957.24,-156.66 L 962.40,-162.00 L 969.43,-158.33 L 970.81,-156.00 L 971.50,-158.62 L 977.29,-164.04 L 983.70,-160.29 L 980.77,-153.99 L 972.90,-140.70 L 961.75,-151.39" fill="none" stroke="rgb(124,124,124)" stroke-width="2.00" stroke-linecap="round" stroke-linejoin="round" opacity="0.888"/><path d="M 961.75,360.61 L 957.24,355.34 L 962.40,350.00 L 969.43,353.67 L 970.81,356.00 L 971.50,353.38 L 977.29,347.96 L 983.70,351.71 L 980.77,358.01 L 972.90,371.30 L 961.75,360.61" fill="none" stroke="rgb(124,124,124)" stroke-width="2.00" stroke-linecap="round" stroke-linejoin="round" opacity="0.888"/><path d="M 961.75,872.61 L 957.24,867.34 L 962.40,862.00 L 969.43,865.67 L 970.81,868.00 L 971.50,865.38 L 977.29,859.96 L 983.70,863.71 L 980.77,870.01 L 972.90,883.30 L 961.75,872.61" fill="none" stroke="rgb(124,124,124)" stroke-width="2.00" stroke-linecap="round" stroke-linejoin="round" opacity="0.888"/><path d="M -472.89,-55.10 L -477.47,-61.73 L -470.87,-67.28 L -463.18,-62.20 L -461.88,-59.33 L -460.76,-62.28 L -453.43,-67.85 L -446.47,-62.74 L -450.61,-55.82 L -461.30,-41.41 L -472.89,-55.10" fill="none" stroke="rgb(119,119,119)" stroke-width="2.40" stroke-linecap="round" stroke-linejoin="round" opacity="0.866"/><path d="M -472.89,456.90 L -477.47,450.27 L -470.87,444.72 L -463.18,449.80 L -461.88,452.67 L -460.76,449.72 L -453.43,444.15 L -446.47,449.26 L -450.61,456.18 L -461.30,470.59 L -472.89,456.90" fill="none" stroke="rgb(119,119,119)" stroke-width="2.40" stroke-linecap="round" stroke-linejoin="round" opacity="0.866"/><path d="M -472.89,968.90 L -477.47,962.27 L -470.87,956.72 L -463.18,961.80 L -461.88,964.67 L -460.76,961.72 L -453.43,956.15 L -446.47,961.26 L -450.61,968.18 L -461.30,982.59 L -472.89,968.90" fill="none" stroke="rgb(119,119,119)" stroke-width="2.40" stroke-linecap="round" stroke-linejoin="round" opacity="0.866"/><path d="M 39.11,-55.10 L 34.53,-61.73 L 41.13,-67.28 L 48.82,-62.20 L 50.12,-59.33 L 51.24,-62.28 L 58.57,-67.85 L 65.53,-62.74 L 61.39,-55.82 L 50.70,-41.41 L 39.11,-55.10" fill="none" stroke="rgb(119,119,119)" stroke-width="2.40" stroke-linecap="round" stroke-linejoin="round" opacity="0.866"/><path d="M 39.11,456.90 L 34.53,450.27 L 41.13,444.72 L 48.82,449.80 L 50.12,452.67 L 51.24,449.72 L 58.57,444.15 L 65.53,449.26 L 61.39,456.18 L 50.70,470.59 L 39.11,456.90" fill="none" stroke="rgb(119,119,119)" stroke-width="2.40" stroke-linecap="round" stroke-linejoin="round" opacity="0.866"/><path d="M 39.11,968.90 L 34.53,962.27 L 41.13,956.72 L 48.82,961.80 L 50.12,964.67 L 51.24,961.72 L 58.57,956.15 L 65.53,961.26 L 61.39,968.18 L 50.70,982.59 L 39.11,968.90" fill="none" stroke="rgb(119,119,119)" stroke-width="2.40" stroke-linecap="round" stroke-linejoin="round" opacity="0.866"/><path d="M 551.11,-55.10 L 546.53,-61.73 L 553.13,-67.28 L 560.82,-62.20 L 562.12,-59.33 L 563.24,-62.28 L 570.57,-67.85 L 577.53,-62.74 L 573.39,-55.82 L 562.70,-41.41 L 551.11,-55.10" fill="none" stroke="rgb(119,119,119)" stroke-width="2.40" stroke-linecap="round" stroke-linejoin="round" opacity="0.866"/><path d="M 551.11,456.90 L 546.53,450.27 L 553.13,444.72 L 560.82,449.80 L 562.12,452.67 L 563.24,449.72 L 570.57,444.15 L 577.53,449.26 L 573.39,456.18 L 562.70,470.59 L 551.11,456.90" fill="none" stroke="rgb(119,119,119)" stroke-width="2.40" stroke-linecap="round" stroke-linejoin="round" opacity="0.866"/><path d="M 551.11,968.90 L 546.53,962.27 L 553.13,956.72 L 560.82,961.80 L 562.12,964.67 L 563.24,961.72 L 570.57,956.15 L 577.53,961.26 L 573.39,968.18 L 562.70,982.59 L 551.11,968.90" fill="none" stroke="rgb(119,119,119)" stroke-width="2.40" stroke-linecap="round" stroke-linejoin="round" opacity="0.866"/><path d="M -374.39,-52.12 L -378.37,-59.71 L -370.68,-64.72 L -363.22,-58.36 L -362.21,-55.17 L -360.66,-58.13 L -352.19,-63.07 L -345.51,-56.78 L -350.77,-50.01 L -363.91,-36.17 L -374.39,-52.12" fill="none" stroke="rgb(125,125,125)" stroke-width="2.40" stroke-linecap="round" stroke-linejoin="round" opacity="0.840"/><path d="M -374.39,459.88 L -378.37,452.29 L -370.68,447.28 L -363.22,453.64 L -362.21,456.83 L -360.66,453.87 L -352.19,448.93 L -345.51,455.22 L -350.77,461.99 L -363.91,475.83 L -374.39,459.88" fill="none" stroke="rgb(125,125,125)" stroke-width="2.40" stroke-linecap="round" stroke-linejoin="round" opacity="0.840"/><path d="M -374.39,971.88 L -378.37,964.29 L -370.68,959.28 L -363.22,965.64 L -362.21,968.83 L -360.66,965.87 L -352.19,960.93 L -345.51,967.22 L -350.77,973.99 L -363.91,987.83 L -374.39,971.88" fill="none" stroke="rgb(125,125,125)" stroke-width="2.40" stroke-linecap="round" stroke-linejoin="round" opacity="0.840"/><path d="M 137.61,-52.12 L 133.63,-59.71 L 141.32,-64.72 L 148.78,-58.36 L 149.79,-55.17 L 151.34,-58.13 L 159.81,-63.07 L 166.49,-56.78 L 161.23,-50.01 L 148.09,-36.17 L 137.61,-52.12" fill="none" stroke="rgb(125,125,125)" stroke-width="2.40" stroke-linecap="round" stroke-linejoin="round" opacity="0.840"/><path d="M 137.61,459.88 L 133.63,452.29 L 141.32,447.28 L 148.78,453.64 L 149.79,456.83 L 151.34,453.87 L 159.81,448.93 L 166.49,455.22 L 161.23,461.99 L 148.09,475.83 L 137.61,459.88" fill="none" stroke="rgb(125,125,125)" stroke-width="2.40" stroke-linecap="round" stroke-linejoin="round" opacity="0.840"/><path d="M 137.61,971.88 L 133.63,964.29 L 141.32,959.28 L 148.78,965.64 L 149.79,968.83 L 151.34,965.87 L 159.81,960.93 L 166.49,967.22 L 161.23,973.99 L 148.09,987.83 L 137.61,971.88" fill="none" stroke="rgb(125,125,125)" stroke-width="2.40" stroke-linecap="round" stroke-linejoin="round" opacity="0.840"/><path d="M 649.61,-52.12 L 645.63,-59.71 L 653.32,-64.72 L 660.78,-58.36 L 661.79,-55.17 L 663.34,-58.13 L 671.81,-63.07 L 678.49,-56.78 L 673.23,-50.01 L 660.09,-36.17 L 649.61,-52.12" fill="none" stroke="rgb(125,125,125)" stroke-width="2.40" stroke-linecap="round" stroke-linejoin="round" opacity="0.840"/><path d="M 649.61,459.88 L 645.63,452.29 L 653.32,447.28 L 660.78,453.64 L 661.79,456.83 L 663.34,453.87 L 671.81,448.93 L 678.49,455.22 L 673.23,461.99 L 660.09,475.83 L 649.61,459.88" fill="none" stroke="rgb(125,125,125)" stroke-width="2.40" stroke-linecap="round" stroke-linejoin="round" opacity="0.840"/><path d="M 649.61,971.88 L 645.63,964.29 L 653.32,959.28 L 660.78,965.64 L 661.79,968.83 L 663.34,965.87 L 671.81,960.93 L 678.49,967.22 L 673.23,973.99 L 660.09,987.83 L 649.61,971.88" fill="none" stroke="rgb(125,125,125)" stroke-width="2.40" stroke-linecap="round" stroke-linejoin="round" opacity="0.840"/><path d="M -263.12,-52.52 L -266.36,-58.94 L -259.85,-63.04 L -253.68,-57.62 L -252.88,-54.93 L -251.53,-57.40 L -244.38,-61.43 L -238.86,-56.08 L -243.35,-50.46 L -254.53,-39.03 L -263.12,-52.52" fill="none" stroke="rgb(126,126,126)" stroke-width="2.40" stroke-linecap="round" stroke-linejoin="round" opacity="0.826"/><path d="M -263.12,459.48 L -266.36,453.06 L -259.85,448.96 L -253.68,454.38 L -252.88,457.07 L -251.53,454.60 L -244.38,450.57 L -238.86,455.92 L -243.35,461.54 L -254.53,472.97 L -263.12,459.48" fill="none" stroke="rgb(126,126,126)" stroke-width="2.40" stroke-linecap="round" stroke-linejoin="round" opacity="0.826"/><path d="M -263.12,971.48 L -266.36,965.06 L -259.85,960.96 L -253.68,966.38 L -252.88,969.07 L -251.53,966.60 L -244.38,962.57 L -238.86,967.92 L -243.35,973.54 L -254.53,984.97 L -263.12,971.48" fill="none" stroke="rgb(126,126,126)" stroke-width="2.40" stroke-linecap="round" stroke-linejoin="round" opacity="0.826"/><path d="M 248.88,-52.52 L 245.64,-58.94 L 252.15,-63.04 L 258.32,-57.62 L 259.12,-54.93 L 260.47,-57.40 L 267.62,-61.43 L 273.14,-56.08 L 268.65,-50.46 L 257.47,-39.03 L 248.88,-52.52" fill="none" stroke="rgb(126,126,126)" stroke-width="2.40" stroke-linecap="round" stroke-linejoin="round" opacity="0.826"/><path d="M 248.88,459.48 L 245.64,453.06 L 252.15,448.96 L 258.32,454.38 L 259.12,457.07 L 260.47,454.60 L 267.62,450.57 L 273.14,455.92 L 268.65,461.54 L 257.47,472.97 L 248.88,459.48" fill="none" stroke="rgb(126,126,126)" stroke-width="2.40" stroke-linecap="round" stroke-linejoin="round" opacity="0.826"/><path d="M 248.88,971.48 L 245.64,965.06 L 252.15,960.96 L 258.32,966.38 L 259.12,969.07 L 260.47,966.60 L 267.62,962.57 L 273.14,967.92 L 268.65,973.54 L 257.47,984.97 L 248.88,971.48" fill="none" stroke="rgb(126,126,126)" stroke-width="2.40" stroke-linecap="round" stroke-linejoin="round" opacity="0.826"/><path d="M 760.88,-52.52 L 757.64,-58.94 L 764.15,-63.04 L 770.32,-57.62 L 771.12,-54.93 L 772.47,-57.40 L 779.62,-61.43 L 785.14,-56.08 L 780.65,-50.46 L 769.47,-39.03 L 760.88,-52.52" fill="none" stroke="rgb(126,126,126)" stroke-width="2.40" stroke-linecap="round" stroke-linejoin="round" opacity="0.826"/><path d="M 760.88,459.48 L 757.64,453.06 L 764.15,448.96 L 770.32,454.38 L 771.12,457.07 L 772.47,454.60 L 779.62,450.57 L 785.14,455.92 L 780.65,461.54 L 769.47,472.97 L 760.88,459.48" fill="none" stroke="rgb(126,126,126)" stroke-width="2.40" stroke-linecap="round" stroke-linejoin="round" opacity="0.826"/><path d="M 760.88,971.48 L 757.64,965.06 L 764.15,960.96 L 770.32,966.38 L 771.12,969.07 L 772.47,966.60 L 779.62,962.57 L 785.14,967.92 L 780.65,973.54 L 769.47,984.97 L 760.88,971.48" fill="none" stroke="rgb(126,126,126)" stroke-width="2.40" stroke-linecap="round" stroke-linejoin="round" opacity="0.826"/><path d="M -169.56,-44.46 L -174.84,-50.58 L -168.86,-56.82 L -160.65,-52.59 L -159.04,-49.88 L -158.25,-52.93 L -151.54,-59.28 L -144.06,-54.94 L -147.43,-47.60 L -156.52,-32.08 L -169.56,-44.46" fill="none" stroke="rgb(123,123,123)" stroke-width="2.00" stroke-linecap="round" stroke-linejoin="round" opacity="0.891"/><path d="M -169.56,467.54 L -174.84,461.42 L -168.86,455.18 L -160.65,459.41 L -159.04,462.12 L -158.25,459.07 L -151.54,452.72 L -144.06,457.06 L -147.43,464.40 L -156.52,479.92 L -169.56,467.54" fill="none" stroke="rgb(123,123,123)" stroke-width="2.00" stroke-linecap="round" stroke-linejoin="round" opacity="0.891"/><path d="M -169.56,979.54 L -174.84,973.42 L -168.86,967.18 L -160.65,971.41 L -159.04,974.12 L -158.25,971.07 L -151.54,964.72 L -144.06,969.06 L -147.43,976.40 L -156.52,991.92 L -169.56,979.54" fill="none" stroke="rgb(123,123,123)" stroke-width="2.00" stroke-linecap="round" stroke-linejoin="round" opacity="0.891"/><path d="M 342.44,-44.46 L 337.16,-50.58 L 343.14,-56.82 L 351.35,-52.59 L 352.96,-49.88 L 353.75,-52.93 L 360.46,-59.28 L 367.94,-54.94 L 364.57,-47.60 L 355.48,-32.08 L 342.44,-44.46" fill="none" stroke="rgb(123,123,123)" stroke-width="2.00" stroke-linecap="round" stroke-linejoin="round" opacity="0.891"/><path d="M 342.44,467.54 L 337.16,461.42 L 343.14,455.18 L 351.35,459.41 L 352.96,462.12 L 353.75,459.07 L 360.46,452.72 L 367.94,457.06 L 364.57,464.40 L 355.48,479.92 L 342.44,467.54" fill="none" stroke="rgb(123,123,123)" stroke-width="2.00" stroke-linecap="round" stroke-linejoin="round" opacity="0.891"/><path d="M 342.44,979.54 L 337.16,973.42 L 343.14,967.18 L 351.35,971.41 L 352.96,974.12 L 353.75,971.07 L 360.46,964.72 L 367.94,969.06 L 364.57,976.40 L 355.48,991.92 L 342.44,979.54" fill="none" stroke="rgb(123,123,123)" stroke-width="2.00" stroke-linecap="round" stroke-linejoin="round" opacity="0.891"/><path d="M 854.44,-44.46 L 849.16,-50.58 L 855.14,-56.82 L 863.35,-52.59 L 864.96,-49.88 L 865.75,-52.93 L 872.46,-59.28 L 879.94,-54.94 L 876.57,-47.60 L 867.48,-32.08 L 854.44,-44.46" fill="none" stroke="rgb(123,123,123)" stroke-width="2.00" stroke-linecap="round" stroke-linejoin="round" opacity="0.891"/><path d="M 854.44,467.54 L 849.16,461.42 L 855.14,455.18 L 863.35,459.41 L 864.96,462.12 L 865.75,459.07 L 872.46,452.72 L 879.94,457.06 L 876.57,464.40 L 867.48,479.92 L 854.44,467.54" fill="none" stroke="rgb(123,123,123)" stroke-width="2.00" stroke-linecap="round" stroke-linejoin="round" opacity="0.891"/><path d="M 854.44,979.54 L 849.16,973.42 L 855.14,967.18 L 863.35,971.41 L 864.96,974.12 L 865.75,971.07 L 872.46,964.72 L 879.94,969.06 L 876.57,976.40 L 867.48,991.92 L 854.44,979.54" fill="none" stroke="rgb(123,123,123)" stroke-width="2.00" stroke-linecap="round" stroke-linejoin="round" opacity="0.891"/><path d="M -62.59,-48.98 L -67.48,-55.77 L -60.75,-61.66 L -52.67,-56.56 L -51.26,-53.61 L -50.16,-56.69 L -42.68,-62.63 L -35.36,-57.48 L -39.50,-50.21 L -50.27,-35.04 L -62.59,-48.98" fill="none" stroke="rgb(130,130,130)" stroke-width="2.00" stroke-linecap="round" stroke-linejoin="round" opacity="0.793"/><path d="M -62.59,463.02 L -67.48,456.23 L -60.75,450.34 L -52.67,455.44 L -51.26,458.39 L -50.16,455.31 L -42.68,449.37 L -35.36,454.52 L -39.50,461.79 L -50.27,476.96 L -62.59,463.02" fill="none" stroke="rgb(130,130,130)" stroke-width="2.00" stroke-linecap="round" stroke-linejoin="round" opacity="0.793"/><path d="M -62.59,975.02 L -67.48,968.23 L -60.75,962.34 L -52.67,967.44 L -51.26,970.39 L -50.16,967.31 L -42.68,961.37 L -35.36,966.52 L -39.50,973.79 L -50.27,988.96 L -62.59,975.02" fill="none" stroke="rgb(130,130,130)" stroke-width="2.00" stroke-linecap="round" stroke-linejoin="round" opacity="0.793"/><path d="M 449.41,-48.98 L 444.52,-55.77 L 451.25,-61.66 L 459.33,-56.56 L 460.74,-53.61 L 461.84,-56.69 L 469.32,-62.63 L 476.64,-57.48 L 472.50,-50.21 L 461.73,-35.04 L 449.41,-48.98" fill="none" stroke="rgb(130,130,130)" stroke-width="2.00" stroke-linecap="round" stroke-linejoin="round" opacity="0.793"/><path d="M 449.41,463.02 L 444.52,456.23 L 451.25,450.34 L 459.33,455.44 L 460.74,458.39 L 461.84,455.31 L 469.32,449.37 L 476.64,454.52 L 472.50,461.79 L 461.73,476.96 L 449.41,463.02" fill="none" stroke="rgb(130,130,130)" stroke-width="2.00" stroke-linecap="round" stroke-linejoin="round" opacity="0.793"/><path d="M 449.41,975.02 L 444.52,968.23 L 451.25,962.34 L 459.33,967.44 L 460.74,970.39 L 461.84,967.31 L 469.32,961.37 L 476.64,966.52 L 472.50,973.79 L 461.73,988.96 L 449.41,975.02" fill="none" stroke="rgb(130,130,130)" stroke-width="2.00" stroke-linecap="round" stroke-linejoin="round" opacity="0.793"/><path d="M 961.41,-48.98 L 956.52,-55.77 L 963.25,-61.66 L 971.33,-56.56 L 972.74,-53.61 L 973.84,-56.69 L 981.32,-62.63 L 988.64,-57.48 L 984.50,-50.21 L 973.73,-35.04 L 961.41,-48.98" fill="none" stroke="rgb(130,130,130)" stroke-width="2.00" stroke-linecap="round" stroke-linejoin="round" opacity="0.793"/><path d="M 961.41,463.02 L 956.52,456.23 L 963.25,450.34 L 971.33,455.44 L 972.74,458.39 L 973.84,455.31 L 981.32,449.37 L 988.64,454.52 L 984.50,461.79 L 973.73,476.96 L 961.41,463.02" fill="none" stroke="rgb(130,130,130)" stroke-width="2.00" stroke-linecap="round" stroke-linejoin="round" opacity="0.793"/><path d="M 961.41,975.02 L 956.52,968.23 L 963.25,962.34 L 971.33,967.44 L 972.74,970.39 L 973.84,967.31 L 981.32,961.37 L 988.64,966.52 L 984.50,973.79 L 973.73,988.96 L 961.41,975.02" fill="none" stroke="rgb(130,130,130)" stroke-width="2.00" stroke-linecap="round" stroke-linejoin="round" opacity="0.793"/>
</svg>
